<mxfile host="65bd71144e">
    <diagram id="L1CvW_XseY-8P9iQ_KQ4" name="ページ1">
        <mxGraphModel dx="935" dy="712" grid="0" gridSize="10" guides="1" tooltips="1" connect="1" arrows="1" fold="1" page="0" pageScale="1" pageWidth="1920" pageHeight="1200" background="#ffffff" math="0" shadow="0">
            <root>
                <mxCell id="0"/>
                <mxCell id="1" parent="0"/>
                <mxCell id="9" value="" style="group" parent="1" vertex="1" connectable="0">
                    <mxGeometry x="265.9" y="53" width="162.2" height="181" as="geometry"/>
                </mxCell>
                <mxCell id="7" value="" style="whiteSpace=wrap;html=1;aspect=fixed;fillColor=none;strokeColor=#000000;strokeWidth=2;" parent="9" vertex="1">
                    <mxGeometry y="20.181184668989548" width="160.8174268672476" height="160.8174268672476" as="geometry"/>
                </mxCell>
                <mxCell id="6" value="" style="shape=image;verticalLabelPosition=bottom;labelBackgroundColor=default;verticalAlign=top;aspect=fixed;imageAspect=0;image=data:image/svg+xml,PHN2ZyB4bWxucz0iaHR0cDovL3d3dy53My5vcmcvMjAwMC9zdmciIHdpZHRoPSIyNTAwIiB2aWV3Qm94PSIwIDAgMjgyLjcyIDY0IiBoZWlnaHQ9IjI1MDAiIGZpbGw9Im5vbmUiPjxwYXRoIGZpbGw9IiMwMDAiIGQ9Ik0xNDEuMDQgMTZjLTExLjA0IDAtMTkgNy4yLTE5IDE4czguOTYgMTggMjAgMThjNi42NyAwIDEyLjU1LTIuNjQgMTYuMTktNy4wOWwtNy42NS00LjQyYy0yLjAyIDIuMjEtNS4wOSAzLjUtOC41NCAzLjUtNC43OSAwLTguODYtMi41LTEwLjM3LTYuNWgyOC4wMmMuMjItMS4xMi4zNS0yLjI4LjM1LTMuNSAwLTEwLjc5LTcuOTYtMTcuOTktMTktMTcuOTl6bS05LjQ2IDE0LjVjMS4yNS0zLjk5IDQuNjctNi41IDkuNDUtNi41IDQuNzkgMCA4LjIxIDIuNTEgOS40NSA2LjV6TTI0OC43MiAxNmMtMTEuMDQgMC0xOSA3LjItMTkgMThzOC45NiAxOCAyMCAxOGM2LjY3IDAgMTIuNTUtMi42NCAxNi4xOS03LjA5bC03LjY1LTQuNDJjLTIuMDIgMi4yMS01LjA5IDMuNS04LjU0IDMuNS00Ljc5IDAtOC44Ni0yLjUtMTAuMzctNi41aDI4LjAyYy4yMi0xLjEyLjM1LTIuMjguMzUtMy41IDAtMTAuNzktNy45Ni0xNy45OS0xOS0xNy45OXptLTkuNDUgMTQuNWMxLjI1LTMuOTkgNC42Ny02LjUgOS40NS02LjUgNC43OSAwIDguMjEgMi41MSA5LjQ1IDYuNXpNMjAwLjI0IDM0YzAgNiAzLjkyIDEwIDEwIDEwIDQuMTIgMCA3LjIxLTEuODcgOC44LTQuOTJsNy42OCA0LjQzYy0zLjE4IDUuMy05LjE0IDguNDktMTYuNDggOC40OS0xMS4wNSAwLTE5LTcuMi0xOS0xOHM3Ljk2LTE4IDE5LTE4YzcuMzQgMCAxMy4yOSAzLjE5IDE2LjQ4IDguNDlsLTcuNjggNC40M2MtMS41OS0zLjA1LTQuNjgtNC45Mi04LjgtNC45Mi02LjA3IDAtMTAgNC0xMCAxMHptODIuNDgtMjl2NDZoLTlWNXpNMzYuOTUgMEw3My45IDY0SDB6bTkyLjM4IDVsLTI3LjcxIDQ4TDczLjkxIDVIODQuM2wxNy4zMiAzMCAxNy4zMi0zMHptNTguOTEgMTJ2OS42OWMtMS0uMjktMi4wNi0uNDktMy4yLS40OS01LjgxIDAtMTAgNC0xMCAxMFY1MWgtOVYxN2g5djkuMmMwLTUuMDggNS45MS05LjIgMTMuMi05LjJ6Ii8+PC9zdmc+;" parent="9" vertex="1">
                    <mxGeometry x="10.813333333333333" width="132.437880949498" height="132.437880949498" as="geometry"/>
                </mxCell>
                <mxCell id="8" value="" style="shape=image;verticalLabelPosition=bottom;labelBackgroundColor=default;verticalAlign=top;aspect=fixed;imageAspect=0;image=data:image/png,iVBORw0KGgoAAAANSUhEUgAAAgAAAAE1CAMAAACm+ahLAAAABGdBTUEAALGPC/xhBQAAACBjSFJNAAB6JgAAgIQAAPoAAACA6AAAdTAAAOpgAAA6mAAAF3CculE8AAAAB3RJTUUH5QEXDxUUXMATUwAAAwBQTFRFAAAAAAAAAAAAAAAAAAAAAAAAAAAAAAAAAAAAAAAAAAAAAAAAAAAAAAAAAAAAAAAAAAAAAAAAAAAAAAAAAAAAAAAAAAAAAAAAAAAAAAAAAAAAAAAAAAAAAAAAAAAAAAAAAAAAAAAAAAAAAAAAAAAAAAAAAAAAAAAAAAAAAAAAAAAAAAAAAAAAAAAAAAAAAAAAAAAAAAAAAAAAAAAAAAAAAAAAAAAAAAAAAAAAAAAAAAAAAAAAAAAAAAAAAAAAAAAAAAAAAAAAAAAAAAAAAAAAAAAAAAAAAAAAAAAAAAAAAAAAAAAAAAAAAAAAAAAAAAAAAAAAAAAAAAAAAAAAAAAAAAAAAAAAAAAAAAAAAAAAAAAAAAAAAAAAAAAAAAAAAAAAAAAAAAAAAAAAAAAAAAAAAAAAAAAAAAAAAAAAAAAAAAAAAAAAAAAAAAAAAAAAAAAAAAAAAAAAAAAAAAAAAAAAAAAAAAAAAAAAAAAAAAAAAAAAAAAAAAAAAAAAAAAAAAAAAAAAAAAAAAAAAAAAAAAAAAAAAAAAAAAAAAAAAAAAAAAAAAAAAAAAAAAAAAAAAAAAAAAAAAAAAAAAAAAAAAAAAAAAAAAAAAAAAAAAAAAAAAAAAAAAAAAAAAAAAAAAAAAAAAAAAAAAAAAAAAAAAAAAAAAAAAAAAAAAAAAAAAAAAAAAAAAAAAAAAAAAAAAAAAAAAAAAAAAAAAAAAAAAAAAAAAAAAAAAAAAAAAAAAAAAAAAAAAAAAAAAAAAAAAAAAAAAAAAAAAAAAAAAAAAAAAAAAAAAAAAAAAAAAAAAAAAAAAAAAAAAAAAAAAAAAAAAAAAAAAAAAAAAAAAAAAAAAAAAAAAAAAAAAAAAAAAAAAAAAAAAAAAAAAAAAAAAAAAAAAAAAAAAAAAAAAAAAAAAAAAAAAAAAAAAAAAAAAAAAAAAAAAAAAAAAAAAAAAAAAAAAAAAAAAAAAAAAAAAAAAAAAAAAAAAAAAAAAAAAAAAAAAAAAAAAAAAAAAAAAAAAAAAAAAAszD0iAAAAP90Uk5TAAECAwQFBgcICQoLDA0ODxAREhMUFRYXGBkaGxwdHh8gISIjJCUmJygpKissLS4vMDEyMzQ1Njc4OTo7PD0+P0BBQkNERUZHSElKS0xNTk9QUVJTVFVWV1hZWltcXV5fYGFiY2RlZmdoaWprbG1ub3BxcnN0dXZ3eHl6e3x9fn+AgYKDhIWGh4iJiouMjY6PkJGSk5SVlpeYmZqbnJ2en6ChoqOkpaanqKmqq6ytrq+wsbKztLW2t7i5uru8vb6/wMHCw8TFxsfIycrLzM3Oz9DR0tPU1dbX2Nna29zd3t/g4eLj5OXm5+jp6uvs7e7v8PHy8/T19vf4+fr7/P3+6wjZNQAAAAFiS0dE/6UH8sUAABqFSURBVHja7Z13YFTF9sfnbk8nBFIgEEIJAaSKVOkiKM+HCjxBkB88Og8IRSII+hCliaJYAJUnCqEFKVJEwEcT5YH0UI2GQKQklDRSNlu+vz/uvZNsBEzIvcnunfn+A9lkZ++e/eydc86cOUMIlxvI4MttwLK8qui4ERiWd6Q3NwLD0teP1nMrMKzQTmZuBIYV9HIlbgSGZRnWlhuBYRn7DuRGYFmdpgZwIzCsqIWtBW4FdlXlnX8auBXYlWnM+5W5FRjWs1uacyMwrCYH+/EUIMMKWfcRTwEyrIAFB4K4FdiV99iTf+cTALvSd//lLZ4CYli19u+I4lZgWHGX+/AJgF2Z/317Ov/82ZVpQMpOL24GZqVrd/SPVtwMDDuAm9JfNXEzsJsB+ChvVXVuBmZlGGE92o4XATArfY/Um8OM3A7Mqun+/C94CpBd1Viee46nANmV34ys3AHcDOw6AP0ybB/4cDswqzbXHPvqcjMwq4iDSOrDy4CZVeDiguz5fCMgszJOSnMejOB2YNYBfD7RebMTTwGyKl3bI7BO53ZgVtU2A9t5GTCzMi8owMWuvBcUsxp8GxkTeBUQsw5Ax7NO++oQbghGJTTaB+fx1twQrCpkuQ13h3M7sCrL9AzgS94Mklm9mAYk1ud2YNUBaPgrkDGA7wNhVbW2O5D3jj83BKMKWnQPjr2NuSEYlffo60BKfz4BMCpd90Qgby4/D4JVVT/lBI5W5YZgVJW2Akhtww3BqHzetAL3pvB9QIzKMPA6gE3h3BKMquNxB3DhGR4BMKo6m+3A3Sm8EwCjqroMgG0lTwEyKuPUfAAXH+eWYFQ9UwBYh3BDMKpmBx0AlvMUIKMKX2cDcKY53wfCpgIWFABI5WtAjMo0/C6Ae+/yjaCMqsslAI6Djbgl2FS1AwCQ3otPAGzKZ0UBAOc8vgbE6Of/ZiYA/MjLwNmU5ZXLAJD8NN8IyqR0bY8BQOY0ngJi1AHcZgdg31iLm4JJCR8WAMBvz/IJgEkZh+UDQOa/uCnYdAB6JgMA4i3cFkyq6X4HACTzfUBsqvqKPADIGsObgTIp7zdyAACfB3NbMOkADMwBAMf+ZtwWTKpVIgAg5WU+ATCp2jscAJC/2I/bgkUFfSg6AMd5N2gmZRl/BwCQ8zdPu3IHVdbs8tzDEuxQV5mvy77Zh/nSQ/a1qt2ddb1uAgCss+QigPpnHOWoXY9+DhUKdaF7OSawg6GusmfIr1Tjvw7psYxX1crQRR0EADh20gmg/lmUo/YoAoB9Qy0tAmDs/av84Lnu6lRpmb4Qx7/Uy+DJACBzopcGASD+M9OlB22b66jyZkaKDmDGvwvnGI8EAFeaaREAErrBJj2aO12NQq22CU4AcO4JIx4OAA75ahEAEn1GfvheH8XfiVD7eycAIKnoRlAPBQAxei0CQJ7Llh+/GKn0O6m8MA8AkDeOaACApI7lDcDv6+LU0PLeLmHaxwXSyzlXKHxys2nQH+LIG1w6AYQtKPUlX5CildyDpX7qtFClALDFVytnANZFhqihYNcDWuvukl/v7nhl6/WbnxTHTWjnshHUEFTqS/5MgvTmP0v91EC9UgAgY5KhfAH4qlyO0tX3TpZvAae7KDryVvF7e3d4mdNoH1jFK7zeh5SjCidN6d/E8iloL2cAiGnyXZmATXWU27RtfkP82hYsrUw8HIC3c6X/fFNdiwCQkJWSfWGdo1hK2NBHdAAcPzcnng7A42tk+8QKWgSAND0lv+TNfoo5AAfFCSDtZeLxADzW7Ij0vxuNNQkA6Zsnv+b5MGVGDF0i3TY/smgAAMOA29J/v/XSJADmT+mb/Y8iq0KmUZlScqEG0QAApNIiKQ7JfsOoRQBIrX3yuuDdSUosfbe9IY6Wpsw+oAoHgDTeKxnofDedFgHQdbtAl74VaOBa7bA4Vs4MZRLoFQ8A6ZsiLQzHR2gRAOI1WZ7l7FvrlXUw/8V2MQL4TqEDwdwAAMs8p5QOivHSIgAkjMaCuW+XMRY0DkmVsue9dZoBgFSRlzCSmmkSANL4ovy6d3qXbaT2R8T58t5Mpb4r7gAA6Zompcv2emsSAKG7nO9Ccpn6+NfeKPlLuxVbXHILAHxevyf9PE6vRQCIsMhKl6HKkL31eUsaJkW5W6VbAEBqb5bITmqvSQBI5E75ldNjzI88Sh/Jm8wao9cYALpnpFmyYF2YJgHQP3NJXhU62/1RB4lIkMZYHUI0BgDxmnNP/oIYtAgA8X6N1ohueMTyIMtK6TZ5pqtOcwCQSlukWPBCV50WASBV4uTyINucRzrPwzQjQ1pVGqGko+QuAJAoqcYJ66tpEgASfZS6AS89wtMNL/4urZsuU3SrkdsAQGKkUMk6RadJAEgfOdTBpdJvFBAayuVlp5RdNnUfAMLWS49de0ybAJgW0bf9eam/xAFL8sWn5r9INAqArsNx6cHNFk0CQOrQWPDOhNI+d1QWFCwCcEsAiH74LSnMnWbQJABCNxoLJjxVqnlOaHZNeuLh+kSzAJDA/0gXc66LoEUAiGHsHfkCtkeV5i1G7pZipJTndRoGgDQ7IS2brquhSQBIyBdygVjuvFLEgpUWSv5j5luKnwjpVgCQf+RIgdJ4L00CQJrQWDB1UMm9x4FXxOc49tQj2gbA/KW8T6CpNgHQ9yrsjFHi8pcWx6UJIE2FJJl7AUDqnBDfq/N7L00CQAzv2mVHcG0J/fng1VIK2P6qCmulbgaA4QXJ3cVYvSYBIGE75RrRzGklIkA/U77o3Wq0U3IzAEjlBZK/k9RGmwDoutAa0Ys9S3JH7yFnAH7tKDAAAImWuisVrA3VJADEZ5JU/wTHtrp//ecNDkkOwN0YVcql3A4A3fPXpWzZeIMmASBhq+TyoJy5fxnVBS6TUsD21ersnnQ7AIhxkeQmne0kaBIAIfo8TQn/1X5By0Rpe7HzTGeBEQCI9wHpl2uraRIAQnpk0AZZNf8iarws/eHtoSpdixsCQDpJbRWsMTptAkDmyQ3EsCrwYX9X73v575abGQLAZ6ZUGpDSSKMA1NhW2BvlYTsil8hVRIl1CUMACPW2ym0jLNoEQN/9PK0R7fbgP+snTxWZg3UsAUB0T50RY5/MKXpNAkCM4+/Q/YL1H+DdCU/IO6bs7wUSpgAgJCZdlUjAbQAgQZ/ly71R3n3ALp9a2+UU8PcNCWsABH0j3gLsa8K1CQBp/LN8Lbf/cV/IA97KlLdMvmhgDgDSRFoTuDvOS5sAkGfyae+YWvebJP5xRU4XzVPzYt0VADJKss/FphoFwDCfWmHVfXzderTT8E+qbpZyWwCqSvtgnNss2gSAREjtnoHM1/7k6xri5V+mP0mYBIA0/0UywSidNgEgbc/KH3Li34vN8uZYuWwgN1bPKACmYdKqUNITGgXA+1835OvZ2cDFEdT3TJEjwE0qt1F2XwBI1WViBWWBcpth3QsAEvyF7Ajem+8SCzb+Xs4VJzylZxYAEn1aipPGGbQJAGlwTL6gtKKxYFXpOEDgbqzKPVPcGgCht/gFcZ56UtAmAMJTcrIfV6sURoCvyC2m7ZuDCMMAEPKFdCeMC9MmAITMpL1jvqWTQBu5LhJnHyNsA1BLKg2wjtNpFICQrbK7nxkrpbxC98tXmTuEMA6A4QWpNOBKI40CoOt0qrBGVE8IIab5ctkwvvZmHQASKJ2NhPUWbQJAvCbJfUQLNtcjhJABdAI43kJgHgChwT4xWZIxXtAmACToK9kRzH/bn5A2/5NvAGn9y+McHTcHgJCu0hGsZ5WIBNwRAFL7sHxVef2E8NX0h4X+hANACJluV64s2i0BIE+l09Psms2U+8g49jYiHABCCKksRQJ3xlo0CgCZT7MB+6kDcO15wgEQ1VlqkH2uqVYBqLn1z8dyzjVzACRZJomRgGOjWTEAjrw6QWENL8MR4boufzry9XRlwgGQFb5KSggO1ykFgPK6XpbuXYYRqa6jpXQQOABFJoHT0knZLTQKAAn4NK/oYFlTvAkHoFDmGLGIuiAuWKMAkAYHi4zl2BRJOABFVWWdmB25NdagUQBI93uFY13qoeMAuCpSvAU4j7fRKgCV/igca384YQSAG1ElfUZ/abvgylBtAuDzpbNwrOy3/RkB4FyJ57pKK8QLzS/TYRkUgLxbaQoroVdZDGKRu6RKJwv1M3IAXCU0PyQ+5XJDJQA4NGqIwnqpTIcedjzhdLmfHGjEASgm0xBpklxjUQAA98oEkog1VtcJxb5CzwEopsorxIx5+hjNAWCZmFPcpcgdzAEorjo/i7fJhHaCxgB4ln7+6XRZ6EZHgQNQPFS+XdaFYfcEoOYl6v5P/E4uEbR/V4cDUFzvS21VYn20BEDA57IDWLDUp0sCTQfPC+QAFFPdn6SemW0F7QBgnEDrQfY1JN5T6JECyS8YOACu0j8nbplz7DBrB4Aup+UbQPLzBkKCV8tugPOX2hyAYvKKFRvnOl/TawQAocFO+fPPijURQki9X2go8K0vB6D4JLBFLA1IbqcRAPzflTMA1q+lPbA9C5OCY/UcgGJ6Rjw+0baxhjYAGCxvA8RJeh7gHBoLXunMASgmc4xonTtTLFoAoPbvdHWicDGp5ib5Qdu2KA5AMfnul5ond9AAAF7f0Lv9x4V+ra4rPVIg711/DkAxNRIrp52bano8AJa5dBfA9qIlAKZhtHVI6lATB6DYJDBWjJvzpxg8HABjXzoBnHc9DqrSJ7RE8EQrgQPgqupfi27AH608GwChGd0Hnlr8mLyog3R5eFMgB8BVuielQ4Y3+Xs0AIFLaQS4ouqf0kPZ8qUWxHIAiskkdVrOnOTRAIzMomb487qPfjZ1Dy/34AAUjwTixCLhi0/rPBeAx2gGILvrfX5ddS09YPDHegIHoJgbIMZJ9vU1PRaA8H209uPN+36+LY7JjQLyl1TlABTTS+JRCumv+ngoAAELc2gryPsXOluG053CN0Z6cQBc5bdUOoC3dAvDbgOAfqDcChTHOj0g4V/l41z5b848IXAAXEOolkfEBMq3Fo8E4PGjcph3a9wDl7ZrnaB7xXabOADFYsG+Yv8wx2S9BwIQtkae3/M+fsiVPEH9RMcMIwfAVd7zxTRqcmvPA8AwrXAX2EO3E8TQSeD2CzoOgKvq73cCgG1DdY8DoBvtBnDz4UtaldfITaOdPzfhABTTs2IkcHuSxcMAiNwrX4Z12sOdO13rIzRYXBrGAXCVaZbcStqzAPD9kN7YV/3VYQDmoXTTcNoICwfAVaF7nQDgiK/hSQAYx8l1v46Df90K1Od9SkuSKrFguQAgWPz8/Px89AoDIHQRj1bOn2jwHAD0XU/Tgq8BJbjuYHqyEPaGegIAQsuWLVtGF30goMlzM1auXLly0aB21fVKAkD8poulASktPQeAmvTY4JySVfu0SylsHWf0AACMiYmJifGFP3v1WHhSdmVvrhsWqCQAJHKTOPQ3/h4DQOHB4TtKuJAxme4cvtnPAwAwAcBPhZ//WxfsRTa9pi9/XEkAdJ2TxM1iMZ4CQE+6DSinpHFd8AqaDjrYxNMAsLyX7brtuWBvBwUBIPqYPABwnusqeAIAQgNa7pk/vKQundBkv5w3tH8V6lkAGGZlAnBmXV799hufHL5rA+BYH6EgAMRLnFLta8M9AYDqq2kR0LKStwI19L0sX/e913w8CoB2ZwBYj/b3JoQQQ5uVt52ANcasIACk6UVxbpns4/4A+MTSCHBf49I4u3PpffS3pwQPAsA4Mxdw7G4qX3PQrEwAP4UrCYBppJgQPNdGcHcA9D3oBJDUt1QlzTW20GNk9oZ4EAChqwFcf6VwGSP4BwC5bZQEgIStkrprWtwdgPAD8seYPbuU2z4fo76jfb4HAdBwL4D/Fe3yPgIABigKgNBePGTYNl7n3gAYP6Xx0I7S9gIXBtPD5m8N0nsMAI0PANhftOTVXLVq1aoWRQEgZLB4yPCVlm4NgH4QDYWulX5Tk/+nNBtQhh5J5Q1Ao30Artzn7CNlAfBdYgMAW3w1dwag9W/yi98d8QhPb0RjQevqCE8BoOZGAPZd7Q3qAkDqnRcXhmPM7gtAZLy86du2KOBR7No3Ub74jFhfDwHA/I4VgP3naY3VBYAMENNBJ9q7LQC+s2gk90OjR7qF+8yhIyQ9rfMMAIi0zznzzMbYjmYVAfCbay9RA7kKA8DQ56pc2nOh1yN+ekFb5XVB56lADwHAOE3KfDhy02+uHxnlb1QHAFL/v04AyB9vcE8Amp2kDsCkR3+TSdSN/MLHMwAglqnXHYULAdajMdHeqgCgl4qEr7RwSwB846gNvi7DgfCDaQu5jKEGzwCACAM3F0UAx2LC1ACABCwQZ8h4P3cEYDSN4S5Fl2Wm+5C2kDvZzkMAILqI/osOZhYScHtxTTUAIJEHnACQMc4NAeh8kX5zXypTzqvh9/RmGhfhIQAQoqsU3XXcytMyvFkLK6kBgPBkutg76GFNlisGgDq75XugbU7ZWv7oetNYMH+mr6cAQAgRTH5VmsUeynEAwJ3WagBAyIwCALCvqe5mAFT+QO73YttQ1vdrmpZBy4Ne1HkOAJJH2OsHKwAsVQeAsJ2imz3R260AsAyXOz45z3YvO01x1KM6WsfTACCk/hYAOKcOALqu4lSb0FpwJwBan5Jf9M4YBc4Drv8rdac+9/M4AEgLAMhWBwDiLXYStsd7uREAvlvpGuCXAUoM2I82ELs7xs0BsHQcNGhQb5d3bcwBAJUAIOFbnABgHS24DQD6qbQK+Gw1RUb0e4/2jknoJrgDAI2vXL2avFD+qRYAHCKEEBK0LCMj47zL9keDA8AptQAgHc44AeBKM3cBwPA83Qea1k2hMWtvpkxtrSNUGACWsGqSs9XoBoDD8nw0CgBWiLfkGQ4gd1GRcEX3AgDsUg0AMjIbAGzrQ90EgGaHaBHQ60q9pP6ZBHlRIHdBpYoCIGh8fPw0sRK31iEAt0aJE2/UAQAYJEWtqQCSx9KL1Hf8BQCGqgeAT7xYNTPB7BYAhC6Rd/bZ45VbxC9yqkhqf30FAfB6NlCwjBBCiP98AM5z4yN1JKDXxvwiJ8JGbLADuPKRuBKorzP6qA3AhSj1ACAtkgDAeaydOwBgGUs/qZPtFWzwUKUwFjxTo2IAqHQeADLqiuHXOQCO1MM7d/z3dysAvC/NB/oXfgcA6/ltH8wcMzvuf2kOAHfHe6kIgHHEPXEHRZgbANCKLt/dGqXo+T/htIGYY72hQgBocB0A8sW1N58Z6UU3/zgPt5RdE/NU8aQ3Z35OVq7ovOZ+GkJUBIAEvm8FgLz7HjRfvgAE08Nf7IsUHrrHbdplcrK5IgAgRwAgRXIDzbOvFX7+efuK+v1dL+S5HIl6YbKJqAoAefwnJwAkN69oAHwX0rd9SOmGz95v0rYBic/qKgKAXgn59t9GyT+ZB+67IX7B8y595Fr/FfXB4TRpxnLcORMnFm2pCYB+yE0AwDq/igXAMJg2/b/6tOKjR26WswGO7+pXBAC6TuOn9CrciiFE9Z+zeteercum9ii+SOXdfNDb/9mxZ8+ezxYO7ShlhdQEgAQstQFAxpiKBaD1zw66oc9becy70xMm7y0IrAAA7nNXqlYvKjLovi6JJbhOVFRUUOFXUlUApE7CzpNtHwzAqsoWdUTff/WvaPHGCjU6e5hiqeN1q5/eHQAojdQFgHRLBwB7XNgDAVBN02UH4E25CMjxYwt1YsxldJHhSmMOgOvNaIEVAO5M8KooAITnaHevP/qqlWWihaaIr8oBKCqhwW4AwOniC8PlBkBhm1/nbLWavJK/Uy8zZ5rRMwHYV12d8Q0v/ia2jfCuGAAsS+kDP1RRzYres+Rpxvnr3zwTgI0hKr2AZV4OAOQPqxAAhLE0T3O1g3pWFCLj5VUh+/b6HgnAhmC1XiF0j+M+7lH5AKDvRat2bg1R9di/wlATn1ThALio81UAsK0NLncAhOhvZf8855MQVe1o/CctN8h6xNWGigFgpqQ+KuZjploBIM3lPAafmWqrPSFCg0nyTzENVTak/0j6yv0fDYDu08WnT4wmGlNwHAA4f2lDuJiUdKqMbXkItwWjei7JCSBP2aV4Ls+R17R0ALjclJuCUYWutAHAGl9uCkZV7wIAZIzklmBVvXIBOI8/wS3BqMwTcwDYVvFIgFVV+9IK4M44L24KRtXyJweAk60Ebgo2Zex3FYA9zpubgtVswKx8ALn/xy3BqoQtDgDJDbglWFXdEwBsa6pwSzAqQ59kAGljTdwUjMrvjWzAeaQ1twSritxiBwq+DuOWYFWPH3MCjslGbglW1T8VwPUW3BCsyjS3AMDWQG4JVhW+BUBuDDcEq9I9mQA4T7fnlmBVxoEpgHNjOLcEq/KfnQlkTuYLw8wq4hs7cKGTjluCVT1xEcAmXiLKrPQv5wJ5o7khmJX37HwgrRk3BLOqucEK+6aq3BDMZgM6HnXgzlQeCTAry9BrwOkO3BDMyvd9K2xf8YVhdhW4ywnbeL4wzK6anAeu8UiAXRkH3wC2VOKGYFaVF2Qjdxy3A7MSor61O0+144Zgl4B2p5yO9TwSYFiDUpExkaeD2JV5QQHOdeQLw+yqxnZgA18YZle6TueQy3sHMSzT0Ou48Ri3A7sKmJNl3xjE7cCuam2235li4XZgV20v4RTfJ8Cw9K/kFXzJ00EMy3eBLX80XxhmWBGbCv5ows3AcDag8zHHpgBuB3ZlGX49dww3A8vZgA/zT/JDZVhW8F7bat5KmmU1ScyYwNNBDMswNDXhSb4wzLCC3ru3zo+bgV0J0duyhnMzsJwN6HTuj/rcDCxr9O1veAM5lmVecnsSjwRYVsSPJ/k+AabdgJ4Xl4dyMzAsy4Qbw/jCMMsKWJzYiFuBZUXvWu/PrcCyul7i+wSYlmHE8VbcCizL/7Ov+MliTKv2hjFmbgWWswFPr2vPF4ZZltfExXxhmGlVWfwKNwLTCt9WmxuBaTVeytNBTMs4YDCPBJhW8Eh+vCTTEqL684VhpqXv1sHArcC0evOmAWzL0p2ng9hWCK8NYdwRDOXtwxjPBlQ2cSOop/8HZtbo0gBrYwwAAAAldEVYdGRhdGU6Y3JlYXRlADIwMjEtMDEtMjNUMTU6MjE6MjArMDA6MDBECSG4AAAAJXRFWHRkYXRlOm1vZGlmeQAyMDIxLTAxLTIzVDE1OjIxOjIwKzAwOjAwNVSZBAAAAABJRU5ErkJggg==;" parent="9" vertex="1">
                    <mxGeometry x="30.531764705882345" y="99.64459930313589" width="105.54037798523092" height="63.69631417094906" as="geometry"/>
                </mxCell>
                <mxCell id="113" style="edgeStyle=orthogonalEdgeStyle;rounded=0;html=1;entryX=0.5;entryY=0;entryDx=0;entryDy=0;entryPerimeter=0;strokeColor=#000000;fontSize=20;fontColor=#000000;" parent="1" source="13" target="14" edge="1">
                    <mxGeometry relative="1" as="geometry"/>
                </mxCell>
                <mxCell id="13" value="&lt;font style=&quot;font-size: 20px;&quot;&gt;Route53&lt;/font&gt;" style="sketch=0;points=[[0,0,0],[0.25,0,0],[0.5,0,0],[0.75,0,0],[1,0,0],[0,1,0],[0.25,1,0],[0.5,1,0],[0.75,1,0],[1,1,0],[0,0.25,0],[0,0.5,0],[0,0.75,0],[1,0.25,0],[1,0.5,0],[1,0.75,0]];outlineConnect=0;fontColor=#232F3E;gradientColor=#945DF2;gradientDirection=north;fillColor=#5A30B5;strokeColor=#ffffff;dashed=0;verticalLabelPosition=bottom;verticalAlign=top;align=center;html=1;fontSize=12;fontStyle=0;aspect=fixed;shape=mxgraph.aws4.resourceIcon;resIcon=mxgraph.aws4.route_53;strokeWidth=2;" parent="1" vertex="1">
                    <mxGeometry x="308" y="528" width="78" height="78" as="geometry"/>
                </mxCell>
                <mxCell id="50" value="&lt;font style=&quot;font-size: 20px;&quot;&gt;AWS Cloud&lt;/font&gt;" style="points=[[0,0],[0.25,0],[0.5,0],[0.75,0],[1,0],[1,0.25],[1,0.5],[1,0.75],[1,1],[0.75,1],[0.5,1],[0.25,1],[0,1],[0,0.75],[0,0.5],[0,0.25]];outlineConnect=0;gradientColor=none;html=1;whiteSpace=wrap;fontSize=12;fontStyle=0;container=1;pointerEvents=0;collapsible=0;recursiveResize=0;shape=mxgraph.aws4.group;grIcon=mxgraph.aws4.group_aws_cloud_alt;strokeColor=#232F3E;fillColor=none;verticalAlign=top;align=left;spacingLeft=30;fontColor=#232F3E;dashed=0;strokeWidth=1;" parent="1" vertex="1">
                    <mxGeometry x="194" y="324" width="1493" height="873" as="geometry"/>
                </mxCell>
                <mxCell id="90" value="" style="group" parent="50" vertex="1" connectable="0">
                    <mxGeometry x="314" y="210" width="524" height="271" as="geometry"/>
                </mxCell>
                <mxCell id="34" value="" style="rounded=0;whiteSpace=wrap;html=1;strokeColor=#000000;strokeWidth=1;fontSize=16;fontColor=#000000;fillColor=none;movable=1;resizable=1;rotatable=1;deletable=1;editable=1;connectable=1;container=0;" parent="90" vertex="1">
                    <mxGeometry x="92.78" y="140" width="338.42" height="61" as="geometry"/>
                </mxCell>
                <mxCell id="19" value="&lt;font style=&quot;font-size: 20px;&quot;&gt;Public subnet 1a&lt;/font&gt;" style="points=[[0,0],[0.25,0],[0.5,0],[0.75,0],[1,0],[1,0.25],[1,0.5],[1,0.75],[1,1],[0.75,1],[0.5,1],[0.25,1],[0,1],[0,0.75],[0,0.5],[0,0.25]];outlineConnect=0;gradientColor=none;html=1;whiteSpace=wrap;fontSize=12;fontStyle=0;container=0;pointerEvents=0;collapsible=0;recursiveResize=0;shape=mxgraph.aws4.group;grIcon=mxgraph.aws4.group_security_group;grStroke=0;strokeColor=#248814;fillColor=#E9F3E6;verticalAlign=top;align=left;spacingLeft=30;fontColor=#248814;dashed=0;strokeWidth=2;" parent="90" vertex="1">
                    <mxGeometry width="524" height="271" as="geometry"/>
                </mxCell>
                <mxCell id="24" value="" style="rounded=0;whiteSpace=wrap;html=1;strokeColor=#d86515;strokeWidth=2;fontSize=16;fontColor=#000000;fillColor=none;container=0;" parent="90" vertex="1">
                    <mxGeometry x="38.81" y="45.51" width="450.19" height="217.49" as="geometry"/>
                </mxCell>
                <mxCell id="38" value="" style="rounded=0;whiteSpace=wrap;html=1;strokeColor=none;strokeWidth=1;fontSize=13;fontColor=#000000;fillColor=#FFFFFF;container=0;" parent="90" vertex="1">
                    <mxGeometry x="70.63" y="88.33999999999992" width="382.73" height="165.66" as="geometry"/>
                </mxCell>
                <mxCell id="39" value="タスク" style="text;html=1;strokeColor=none;fillColor=none;align=center;verticalAlign=middle;whiteSpace=wrap;rounded=0;strokeWidth=1;fontSize=20;fontColor=#000000;container=0;" parent="90" vertex="1">
                    <mxGeometry x="220.75925925925924" y="76.29571984435802" width="72.77777777777779" height="40.15564202334631" as="geometry"/>
                </mxCell>
                <mxCell id="86" value="" style="rounded=0;whiteSpace=wrap;html=1;labelBackgroundColor=none;strokeColor=#0d0c0c;strokeWidth=1;fontSize=20;fontColor=#FFFFFF;fillColor=none;" parent="90" vertex="1">
                    <mxGeometry x="88.5" y="130.30999999999995" width="347" height="115.69" as="geometry"/>
                </mxCell>
                <mxCell id="28" value="" style="sketch=0;aspect=fixed;html=1;points=[];align=center;image;fontSize=12;image=img/lib/mscae/Docker.svg;strokeColor=#d86515;strokeWidth=2;fontColor=#000000;fillColor=none;container=0;" parent="90" vertex="1">
                    <mxGeometry x="405.1008496732029" y="214.43028349082823" width="48.25982955404385" height="39.569249862107014" as="geometry"/>
                </mxCell>
                <mxCell id="85" value="" style="group" parent="90" vertex="1" connectable="0">
                    <mxGeometry x="38.81481481481478" y="43.82906719949506" width="173.46817901234567" height="36" as="geometry"/>
                </mxCell>
                <mxCell id="25" value="&lt;font style=&quot;font-size: 20px;&quot;&gt;ECS (Fargate)&lt;/font&gt;" style="text;html=1;align=center;verticalAlign=middle;resizable=0;points=[];autosize=1;strokeColor=none;fillColor=none;fontSize=16;fontColor=#000000;container=0;" parent="85" vertex="1">
                    <mxGeometry x="26.468179012345672" width="147" height="36" as="geometry"/>
                </mxCell>
                <mxCell id="22" value="" style="sketch=0;points=[[0,0,0],[0.25,0,0],[0.5,0,0],[0.75,0,0],[1,0,0],[0,1,0],[0.25,1,0],[0.5,1,0],[0.75,1,0],[1,1,0],[0,0.25,0],[0,0.5,0],[0,0.75,0],[1,0.25,0],[1,0.5,0],[1,0.75,0]];outlineConnect=0;fontColor=#232F3E;gradientColor=#F78E04;gradientDirection=north;fillColor=#D05C17;strokeColor=#ffffff;dashed=0;verticalLabelPosition=bottom;verticalAlign=top;align=center;html=1;fontSize=12;fontStyle=0;aspect=fixed;shape=mxgraph.aws4.resourceIcon;resIcon=mxgraph.aws4.fargate;strokeWidth=2;container=0;" parent="85" vertex="1">
                    <mxGeometry y="1.6806604269640957" width="30.60790790790791" height="30.60790790790791" as="geometry"/>
                </mxCell>
                <mxCell id="87" value="" style="group" parent="90" vertex="1" connectable="0">
                    <mxGeometry x="122.99849673202617" y="147.01563964107052" width="268.29430220736924" height="67.41427754284905" as="geometry"/>
                </mxCell>
                <mxCell id="31" value="" style="shape=image;verticalLabelPosition=bottom;labelBackgroundColor=default;verticalAlign=top;aspect=fixed;imageAspect=0;image=data:image/png,iVBORw0KGgoAAAANSUhEUgAABQAAAAHjCAYAAAB8e7LIAAAABmJLR0QA/wD/AP+gvaeTAAAgAElEQVR4nOzdd5zcVb3/8deZ2U2DFAmIVCkSgVCS3dkkIC1cmogoUgQV9IrYQL1e0atiQVSwoVe9onIRf6KIAiIqxcI1iIBJdmYDxIC00FGkBQgJye7O+f3xXTRgymannCmv5+ORxya7s+fzTjIz+53PnAKSJEmSJEmSJEmSJEmSJEmSJEmSJEmSJEmSJEmSJEmSJEmSJEmSJEmSJEmSJEmSJEmSJEmSJEmSJEmSJEmSJEmSJEmSJEmSJEmSJEmSJEmSJEmSJEmSJEmSJEmSJEmSJEmSJEmSJEmSJEmSJEmSJEmSJEmSJEmSJEmSJEmSJEmSJEmSJEmSJEmSJEmSJEmSJEmSJEmSJEmSJEmSJEmSJEmSJEmSJEmSJEmSJEmSJEmSJEmSJEmSJEmSJEmSJEmSJEmS9GIhdQBJUmO6EcbmYPIomDwImwAb52BChPHAOGCDAJOGfj8OmLjKt3dG2HCVP/+wAF+vX3pJkiRJ0vM6UgeQJNVXESaWYcscbBFg8whbD33cAtiMrNk3GdgAoMw/3y2KLxrrxX9ei3HYAJQkSZKkJJwBKEltpATHRPhpitpl2GUGLEpRW5IkSZLaWS51AElS/YyBq4DnUtTOw1Ep6kqSJElSu7MBKEltZCosBa5JUTvCkSnqSpIkSVK7swEoSW0mwGWJSu9ahB0T1ZYkSZKktmUDUJLazAD8MvtQf84ClCRJkqT6swEoSW1mJjwe4Q8pagcbgJIkSZJUdzYAJakNJVwGPL0I2yeqLUmSJEltyQagJLWhctYALKeo7TJgSZIkSaovG4CS1IZmwN8CzE1R22XAkiRJklRfNgAlqU3FdMuAe/rg5YlqS5IkSVLbsQEoSW0qDz8DYoLSoewsQEmSJEmqGxuAktSmpsO9wIIUtV0GLEmSJEn1YwNQktpYqmXAEfaYD1ulqC1JkiRJ7cYGoCS1sTJckqh0yMERiWpLkiRJUluxAShJbWwm3AHclqJ2dBmwJEmSJNWFDUBJanMh0TLgAHv1weYpakuSJElSO7EBKEltLtU+gECuDK9PVFtVUoJZRdgsdQ5JkiRJaxZSB5AkpVeExcC2L/p0P/Do0K+nn/8V4OkIS4CnIjyXg2fLMBiyrxPhyecHiPBUHsprqhvgsS64r9p/H9VPEX5O1si9NcIlOfhVF/QFiKmzSZIkScrYAJQkUYL9gY0D/C3CowPw95nweOpcanxF+D0w+0Wfvi/Cb3JwxRj4zVRYmSKbJEmSpIwNQEmSNGJF6AOmr+UmzwJzIlzSAb+cns0elSRJklRHNgAlSdKIFeEuYPth3rw/wnUBLh2ES5xlKkmSJNWHDUBJkjRixayJt9EIvnUwwJwy/HAcXDYVllY7myRJkqSMDUBJkjQiEUIp29+vo8KhlgNXBPhhhF8XsgNoJEmSJFWJDUBJkjQii2DD5fBMlYd9BPhpGc6dAYuqPLYkSZLUlmwASpKkEZkLW3bAAzUsUYrwjQAXOStQkiRJGrlc6gCSJKk55WBijUt0B/gBcG8JPl2EzWpcT5IkSWpJNgAlSdKIBJhUp1KbRzgduLcXvnsTbFGnupIkSVJLsAEoSZJGqtYzAF9sVIB3DsBdvfD2OteWJEmSmpYNQEkVKcFhvfDK1Dkk1V8dZwC+2JgcbJeotiRJktR0OlIHkNScSjArwlkR9gsw92LY6xgYTJ1L9XUj7JiH7TthqzJsXobNcjA5wqgIHfmhBlEZNgjQGbI3njYY+txzYQ0HO0SIOXhq6I9PlKEMPBFhRQ6W5OGRfnigE26fBguD971UJqQqXIanU9WWJEmSmo0NQEnrpQ92LsPpEY5e5dOztoOTgW+kyqXK3QHbPQn752EnYNsIWwWYTNbkGUu2/DIfV3OCfHno4/PTysPQr7jKn1nlz6t+bnVW/d5Vb/v8x8GhWoNACSj+8+sxZnEGhpqFS8vwBPBoHh7oh1vHwi15mDc1+7wqk2oGIPyzQSxJkiRpHWwAShqWImwd4bQynAjkV3OTs4pwZQHurnc2rdsc2HAivKEMewA7AlsDLyGbjdcJhKd54X/s6hp0cTWfayRDzck8kA8wOsKEAJtD1hXMAyuHblsEApTLsDLAUuDRMtyfg4X98MdZ8Ovwz5tr9eq9B+CqbABKkiRJw2QDUNJaFWFj4FTgAwHGrOWm44BzIxwQGr9P1LKKMHEQDu2A10WYFmCLmP3f5Mrr/O72EyE3dL8eA2ycy2Y/HtwJp5aAUnZfHijDswEeiXBXgHkT4MIpsDhp+MaQbAZgDp5MVVuSJElqNmtbgSWpjS2CDZdny3o/znrs8xXhxB44v3bJ9LwbYdfRcEqE2UPLdUfj83rdDC037o/weMhmvv4xBz/qgltTZ6uXIvwYOC5F7Rzs2QV/SlFbkiRJaja+UJT0Aotg1DI4OWSNv41HMMSSHEztgoerna2dzYUtO+H9ZTgkZKefjsPn8IYVssbgExFuC3AFcF6hBZesFuFK4NAUtYeeZ9qm2SpJkiRVwhePkv6hBK+N8DVg+wqHuqIAr61GpnZ1G0xZBp8C9o+wKf88X0NNKkA5wtIA95XhumXw9X3hztS5KlGCGyLsmaJ2B2w5DR5KUVuSJElqNjYAJVGCncrw1QCHVGvMAMd2w0+rNV6rGzpk5dQAryE7oMM9WtvA0H6Zz8ZsP8FrBuBLs+CR1LmGqwiLgJ0Tld+gAMsS1ZYkSZKaig1AqY3Ng8n5bJbZyaz+ZN9KPNYJU3eHv1d53JYQoaMEHwPeDmxF9f/91bwGgScD9HbCN3eDq1MHWpM+2KcMJwBHUt8DQQYK2enVkiRJkobBBqDUhorZC+f3Ap8BJtaw1I8L8OYajt9Uhvbx+2wZXhtgcuo8ah4RlodsufCl3fDFACtTZ1rVnTD6aTgIODrCG4ANalzysQJsUuMakiRJUsuwASi1mSru8zcsEV7fA7+oR61G1Asn5OBDEXbCGUuqnpUR7oxwYQ+c3UgNwbkwoRPeEOFNwP7UZnbr4kKdnsMkSZKkVmADUGoTvTA9B1+LsG+dSz+ch6nTYUmd6yYzD96Ug08GmIKHd6gOhk4dXgxc2A1nhmwZcXLzYHIHHBmzZcJ7Ur3rjr4CdFdpLEmSJKnl2QCUWtwi2PA5+HqEt5GoGRXh3B54V4ra9bIA3jQInw7wimjTT+k9G6G3H07fE/6QOgxAKXtsvAk4DtixwuHmFLLZhZIkSZKGwQag1OIi5IowJ8A+KWNEOLgHfpcwQ9XNg6Pz2T6Kr8SmnxpUyB5/j0a4fAKc9kp4LHWmInQFeEuE44GNRzDE5QU4otq5JEmSpFZlA1BqA/NgSh5uAsYmjHHvWNh1KixNmKFic2GHDjg/wh7Bk3vVhAKsKMPNo+H01CcML4JRz8HrI5wIHMDwG+k/KGSzmiVJkiQNgzNWpDYwE+4I8OnEMbZ5Ds5InGFEhmZRnlWCJzrgDmAvm39qVhFGB5ixEq4qQrkEDxXh7JjgPj0VVnbDxQU4uAO2Bj4K3DOMb22bPUUlSZKkanAGoNQmIuT64I8x24g/lXKEfXrghoQZhq0IRwNfBLbB50u1gQhLAlw1AP85Cx5JkeFiyG8LB+XgxAiHs/rTs88opH9TQ5IkSWoavqCV2kgx23h/ATAmYYy/PAPTZ8NzCTOs0e9g4iT4MXBQgI7UeaRUIiwLcO0EeN+U7IThursZXtqfnSB8Ii88OOTUApydIpMkSZLUjFwCLLWRAvwFODNxjB3Hw2mJM/yLEhxchLtfks2AOtTmn9pdgHHAoU/D3SVYWYSbb4K96plhd/h7Ab5SgJ0CFCKcCyyN8GQ9c0iSJEnNzhmAUpuZAx3jYS7QnTDGADCzAH0JMxAhtwC+Xs5mF6U8IEVqJisDzI1wSgEW1rt4ESYC4wrw13rXliRJkpqVDUCpDfXC9ADzWP3eWnURoViAmQHK9a69ELZaARcE2Cc6E1qqxIoIf1oG79wX7kwdRpIkSdLq+cJXakM92T6AX0xVP8A1Ed5b7+ZfCY4owSMr4H5gP5t/UsVGB9hvA7ijCM8W4bJFsFHqUJIkSZJeyBmAUptaBKOWQwnYpY5l5wY4rRt+X8ealOCDET4FTKpnXaldDZ0mfH4BPpQ6iyRJkiQbgFJb64UZAW4E8jUu9WfgjAJcUuM6/xAhV4Jvke3vl2yps9TmYoT7O+AD0+EXqcNIkiRJ7coGoNTmivBl4NQaDX8/8LFuuChArFGNF7gbJj4JPw5wiEt8pcYRoL8MN0Q4YQY8kDqPJEmS1E5sAEpt7k4Y/VS2J+BOVRz22Qhf6Ycv7gnLqzjuGt0MW66Eq0N9lzRLGoEITwT4ViFbmi9JkiSpxmwASqIP9ijD9VQ+Y64c4MJB+MgM+Fs1sq1LETaLcHmAGfWoJ6mqYoT7c/Cf3XBZ6jCSJElSq7IBKAmAEnwzwikVDHFtgA90wy1VC7UWN8D2o+EKYMd61JNUcyuBS7vh30P2e0mSJElVYgNQEgBFGEfWvNt+Pb/1bxH+qwA/rMc+f33w8jL8Etit1rUk1d/Qk8h9nfCWadnMZEmSJEkVsgEo6R+KMBv4P4b33DAAnDMAn5wFT9c2GdwEUwbgSuAVta4lqWE8OwjnzISPpA4iSZIkNTMbgJJeoAjnAiet42Z/BE4uwMJa57kHJj0GvwqwV61rSWpYEVg4AY6YAotTh5EkSZKajQ1ASS8wFyZ0wJ+BrVbz5bot910Eo5bBRTk4IvpcJWlIhCUBPleAs1NnkSRJkpqFL6ol/YteeHWAq1b5VDnCeQE+UoCnalk7Qq4E3wlwYqz8VGJJrascoLcfXjcLHkkdRpIkSWpkNgAlrVYRfgCcEKB3EE6eAb21rlmCr5XhfQHyta4lqXUEuGsZHLs3lFJnkSRJkhqRDUBJq3UjbDQaDu2CC2u93LcEH4zwBWBULetIanmPD8L7ZsJFqYNIkiRJjcQGoKRkFsH05XA1sGnqLJJaygrgmwX4cOogkiRJUiOwASip7u6GiU/C/wHdqbNIamnlCNfdA4ceA8tTh5EkSZJSsQEoqW6GDvj4YYDjPNlXUr0EiBEW5uF10+He1HkkSZKkevMFuKS6KMI7gP8BRqfOIqmtPTYKTtgt235AkiRJags2ACXV1A2wx2i4AtgodRZJWsWSAKd0w4Wpg0iSJEm1ZgNQUk0UoZOs8XdQ6iyStCYRlufhP7vgO6mzSJIkSbWSSx1AUutZAKfGbMN9m3+SGlqAsWX4dhGeK8HHU+eRJEmSasEZgJKqpg92LsPvgU1TZ5GkEVoxCF+YCaenDiJJkiRViw1ASRWbAx3j4Uqc8SepRQToj/CVgrMCJUmS1AJsAEqqyAJ4xyCcQ7bnnyS1msEyfH8GnJQ6iCRJkjRSNgAljUgRNss+sHnqLJJUaxEGIvw/G4GSJElqRh4CImm9FeELwEPY/JPUJgJ05OAdvTBQgm+lziNJkiStD2cAShq2eTClA66PsEnqLJKUUoD+AJ/rgjNSZ5EkSZLWxQagpHWKEEpwPvC21FkkqcGsAE4rwNmpg0iSJElrYgNQ0loVoSvA7yNMTJ1FkhpVhOU5OKkbLkydRZIkSXoxG4CSVitCbgFcNgiv84lCkoYnwpJOeOM0+G3qLJIkSdLzfF0v6V/0wn4Bfg2MTp1FkppRgIeXweF7Qyl1FkmSJMkGoKR/iBD64PIIh6fOIkktYvEEOHAKLE4dRJIkSe3LBqAkAHphF+CGABNSZ5GkFnTLYph1DCxPHUSSJEntJ5c6gKT05sM5wEKbf5JUM7ttB8/2whWpg0iSJKn9OANQamPzYasc9AKbps4iSe0iQH8OPj4dvpI6iyRJktqDDUCpTRXhM8An8XlAkpIIsLQMR/TANamzSJIkqbX5wl9qM0WYCCwEtkqdRZIEwD152H863Js6iCRJklqTewBKbaQPjorwODb/JKmRbDsI95Rg7sUwNnUYSZIktR5nAEptIEKuCFcEeHXqLJKktSqX4fwZcFLqIJIkSWodNgClFjd00MdNwEaps0iShm1FGd46A36aOogkSZKanw1AqYWV4IMRzsbHuiQ1pQAPj4e9p8Di1FkkSZLUvGwKSC2oCJ1luC4Hs1JnkSRVLsK1PTA7dQ5JkiQ1Jw8BkVrMXNgrwDM2/ySpdQTYrwQrF8B7U2eRJElS83EGoNRCivBZ4BOpc0iSauqxHOzbBbemDiJJkqTmYANQagF3wuglUAywS+oskqS6uaUbegKsTB1EkiRJjc0lwFKTmw/TnoIlNv8kqe3sVoJlffCp1EEkSZLU2JwBKDWxIpwa4EvRx7IktbUASwdh/xnQmzqLJEmSGo9NA6kJXQz5bWBODvZOnUWS1Dg8LViSJEmrYwNQajLzYas8LIwwMXUWSVJDGhiE98yE81IHkSRJUmOwASg1kRK8M8J38LErSVqHAHeNgZlT4YnUWSRJkpSWh4BITaIIP4rwXWz+SZKGIcIrlsNjpexnhyRJktqYjQSpwc2BMeNhEbBd6iySGkeAGKEcoAwMRChH6A+wAhgAlgLPBXiuDI8NZ8wcjAbGAxOAscCoMozLQUeEfICOMuRyEKJvIjaVAE8NwoEeEiJJktSebABKDawXXpmDBTF7IS6pxUUgwCBZE+8Z4IkIjwR4CLh9EPo2gvk7wKNJg66iCLsG2CMHOw/CDhE2DzA5wIQIY4AOIJ86pzIB/tAF/zZ0P5MkSVKbsAEoNagivBX4Pj5OpVYTgRUBni7Dwzn4ywDcGODyGfBA6nC1Mhc2DXDM0OnlOwGbhWy2YSc+z9VVhIEynDATLkqdRZIkSfXhBbfUgHrhggDHp84haeSGluiuBB4HFuXht6PgfA9k+FcXw9hXwmsG4MAyTAuwPdlJ5x2ps7WyCH++B2YcA8tTZ5EkSVJt2QCUGsidMPopuAnYMXUWSeslBni2DHcFuHoCnDcFFqcO1QrmwxsDHBWgC9iMbFmx1y/VM5iH90+Hc1IHkSRJUu14AS01iD/BNp3wZ2CD1FkkrdOKCA8C1wb4egEWpg7UTu6A7ZbBSf2wfy7bd3ASXtNUJMLiAF0FeCp1FkmSJFWfF8tSA5gH++fht7hRvtRwYvZheYA7gUu74UwPUGg8d8B2T8PJwGuAbchONNb6iYNwxkw4PXUQSZIkVZcNQCmxInw0wlk+GKXGMNTwWwYsysF53XBu0kAakTmw4QR4fxmODjAFGJc6U7MI8HA/dM2CR1JnkSRJUnXYc5AS6oVLAhyVOockygHuH4AfzMhm+K1MHUjV9yc4vANODjCT7JARrVkEvlaAD6UOIkmSpMrZAJQSKEJngJsi7Jw6i9TGlkWY1wGfmA43pg6j+uuDd0d4L/DKCKNS52lQj5WhawY8kDqIJEmSRs4GoFRnt8HkpXB7gMmps0jtJsBS4Mox8N6p8ETqPGocc2DD8fCZAMdGeBmQS52pUQSIOfjGdPiP1FkkSZI0MjYApToqQTfwpwidqbNI7SACAR6LcNE98F/HwPLUmdQceuGAHHwyZs/bns6eeWgiTN8BHk0dRJIkSevHBqBUJ/PhbXk4P/q4k+rhSeD73fAx9/NTpS6GsdvD5yO8CXgp7f08HgfhYzPhi6mDSJIkafja+QJWqpte+FKAD6fOIbW45RGuHAfvcnlvfZRgJ+BtER4N8BjweIDH+uHxQXhszxb9f+iFDwKnBNiGNl0qHGHxUth9drasXpIkSQ3OBqBUYyW4NMKRqXNILWowwrw8nNQFt6YO025KcESEy9Zyk5XAw8CDwP0BHozwUIT78vDQc7C42ZuEN8NRA3AG2UEi7dYMLAd4TzecmzqIJEmS1s4GoFQjEUIpO1l0VuosUquJsKQDPj8dvpI6SzvrhRMDnFfhME8Ci5//FeHWHCxaDnfsBc9UnrJ+FsDrBrNm4FQgnzpPHd2+GKa7x6YkSVLjsgEo1cAcGDMe7gC2Sp1FaiH9Aa6ZAG/1EILGUIQPUdsm7F+BUoRSgEVluLUHbg3Z+S4NrRdOCHA62TLhdrjeGgjwxu61zwiVJElSIu1wQSrV1W0weSncHWBi6ixSKwiwNMJpBfhG6ix6oWI22+2TdS77JLAgwHe74eI61x6RefC+DvhohM1TZ6mD3xfg31KHkCRJ0gu12141Uk31wiuXwcM2/6SquH05FLphvM2/xhTgJQnKvgTYP8IuCWqPyEz4Zjds8QyMBy4ElqXOVEP7F+GZG2HH1EEkSZL0TzYApSq5BfYNcGuEUamzSE2sHOFaYFIBdtwbSqkDac3KMClh+SUJa4/IbFhagLcUYIMcTA0wDxhMnasGNuyE2xbAf6cOIkmSpIwNQKkK5sLb+2EOPqakkVqag08XIN8DswvwVOpAi2zmD0ey2c6xCRuAq+qCW7thVgE6yvBx4PHUmaopAIPwgSLcNwc2TJ1HkiSp3dmskCrUBx/tgO9F99SURuLBCAcWYHxXtp9cUjfCRkU4ugQXLIe/F2Gz1JkaWaIlwADksr0AW8IMOKsAGw/Ay4DfAQOpM1XR1uNhSQnenDqIJElSO7MBqKopQXcRzmmnWTNF+HIZzkqdQ2o2Ee4DdivAVj1wTcos82DbEvxHEeaMgr8DF0c4nmx22+tTZmsCKZcAJ58lWm2z4JECHFSAzkE4KcDDqTNVST7Cj4pwc+ogkiRJ7coZS6qKXpgR4DdkLwbn5OEN05t8eda6lOCHEd6SOofULGL2YUEeDutK3NiYB9t2wHERjgamreWmcwqwf71yNZsiPABsmaJ2hK4eWJCidj0tgG0G4McBZtICb9xGWB5gZgEWps4iSZLUTmwAqmJ9UCjDb3nhUrBbc3BoVzbLp+WU4OoIh6TOITWJGOCPEQ5PubffPJjcAUdGOAHYk+H9DCwDWxbgr7VN15yKsBTYIEXtPGw7He5NUTuVEnwuwn+Q6N+8WkL2fsCZ3fCJ1FkkSZLahQ1AVaQIewFXAeNX8+W/AocVoK++qWonQijCvAA9qbNIjS5AuQxXFuCoACtTZJgLEzrhSOBNEWYD+REM894CfLvK0ZreHOgYn/2/JrmWGAUb7dZC+wCuj5vgoAE4L8JWzXwhF+C2Ltg1tOZJyJIkSQ2lma8bldg6mn/PezbAsd1wRZ1i1czFkN8eFkbYKXUWqcHFCFcV4HWpXtiXoLsM7wzwJio/gdRlwKvRB5uUsz0TUyh3Q2fIZmi2rUWw0TK4IGQz0kfS3G4E/REOTb0XqCRJUquzAagR6YN9ynAlw3thPQi8vwDn1DhWzcyBMePhbmDz1FmkBlYGflJIdNrnfHhZDt4InAjsWsWhXQa8Ggtgh0G4I1H5JwuwUaLaDakX/ifASTTvQVzfKcB7UoeQJElqVU2/mbTqrxcOLMPVDH9WTR74VhHOjE3YdL4ZNhifHVhg809ajQiDObigAPl6N/+GluUfVIJf5LIDKf6b6jb/IPtZ6WnALxKzU5JTaelDpkaiB04pwOg8nBya84Tkdxfh/jmVz9iVJEnSatgA1HopwcEBfgGMG8G3f6wEF8+BMdXOVSvXw/j+rPn3knXeWGozITvc4//1QEcXvLWeta+H8SV4Zyk7SfQ3EQ4HOmpY8ugajt2Uymln4LXl3n/DMR3O6YZJEQ4k8WnbI7DVeHjyT9njWZIkSVVkA1DDVoTXxKz5N7aCYY6aAL++pQkaakWYOAYeAiakziI1oJufhgnd8O/1LNoL2/XC/4yBhyJ8F5hap9L7zIVN61SrKcS0z43NOMOtrnrgmgJs8SxMibAodZ710NEJv+iFC1IHkSRJaiU2ADUsvXAocCkwutKxIuy7EuaX4BWVJ6uNRbBRyJp/azvgRGo7AZZ2wN4FmDYblta7fg52D3Ay9X9s5jvgDXWu2dByCWcABngiVe1msy/c2QO7jIXJEa4FYupMwxHg+CI86pJgSZKk6rABqHUqwWEBLqO6S3dfEeGPfVCo4phVcRtMXg4PRNggdRapgQzk4cPdMH4aXJ8qxNPZ/qNPJyrvMuBVlGFSqtrRPQDX21R4ogdmd8OYmB3i1QyNwI3Hw5O9cEDqIJIkSc2u6Q5kUH0Vsxe8FwKdNSrxbIBju+GKGo2/XhbCpivgXppon0KpDq4qwGtSh3heEX4MHJeg9OAAbDELHklQu+HMgTFjYWIHbBhgUhnG52B8GTbMZTM0N47ZsunNyA5R2mzoVyXbSDzv7AKcWoVx2laEUUW4NJdt79Hwbwjn4evT4T9S55AkSWpWNgC1RiV4Q4SfUtuN9QEGgfcV4Ns1rrNWi+Bly+EebP5JQLbcdxnstzeUUmdZVQmOiNms5BTem/q5qtktyA6o2HwQXh5ghwA7lOEVAXYAXs7wfuZ8sgCfq3HUtjEf/jcHb6fBG4ER7ivAlAArU2eRJElqNjYAtVolOCzCz4BR9aoZ4Etd8NGQYFnSfNgqD3fFOv59pQYWA3y7O9trr+HcCGNHZbPwUuzROacA+yeo2xaK0DkI23bAFGC3CNOA6cD2rHLNEuF9PfA/qXK2ogj5PrgwZjP/G7kRuGI5vKrR3piQJElqdDYA9S9KcPDQab8VH/ixviL8dBK8dQdYUa+a82DbPNxO7ZY5S83knrFQmNrghyy4DLi9zIUJnbB7hGkBppXhJz3wu9S5WlGEUSX4eYBXxwa9TgwQI3y6AJ9NnUWSJKlZNOSFndIpwd4x22Q/2QEYEf6Uh9d1waO1rrUQtloBd2PzT20uwkAZ3jMTzkudZThcBizV1tAegb/KwYEN3Ai8rhv2TZ1DkiSpGTTkBZ3SmA975uA3wIapswB35eHQ6XBnrQoshE1Xwn0xwUxHqcHc3g27NdO+WnNgzPhsFt6EFOVdBqx2MdQIvCzAoTTgdWOEJeNg+0aftSxJkpRaI+/xojoqwawc/JrGaP4BvGIQ/jgfemox+CLYaAXcY/NPbS4CpxZgx2Zq/gHMhueAKxOV3+dmeGmi2lJdBVjZA91hb2UAACAASURBVIeNhY0DzKv7Jr3rEGDScnh0AbwudRZJkqRGZgNQFGHXmL2QTrGh/tpsmoNre+Hwag5ahInL4X5gbDXHlZpJgIfHwsYFODt1lpEKcEmi0vl+eEOi2lISU+GJbpg1MTuQ5fbUeV4kNwiXF12aL0mStEY2ANvcAtgB+C2wUeosazAuwCV98PJqDFaEicBDJNzjUEosDsJnumGLZl8ytyKbtfxMgtJ3hzoeVCQ1kimwuAA7roT9YuM9h7y7CDelDiFJktSIGm4vF9XPTbDFAFwPbJM6y1pE4J2FKhxMcD2MH5M1/xptpqNUFxGeyMOuXfBw6izVUsfTgO8HLgcu6YYbQvbcJLW9efCOPHwTGJM6yyqeLcNOM+CB1EEkSZIahQ3ANtUHm5ThOmDH1FnW4UMF+GqlgxRhHFnzb1LlkaTmU4bfzIBDUueothqfBvxAhJ/k4eIuKNaohtQSinAm8BEgnzrLkHInvHF3uDR1EEmSpEZgA7ANzYUJHfB7oDt1lnX4bAE+VekgN8LYUdksgMlVyCQ1lQDlAXjLTLgodZZaqMFpwCuA3wEXPAM/nw0DVRpXankR8kW4KsCBNM415lcL8KHUISRJklJrlIsz1VEvfCnAh1PnWJsI3+qBUyodpwidwH3AZpWnkprOo2Nhx2bf629dqrQM+Cbg/JVw4Z4t/u8l1dqdsMlT8Adgp9RZAALM64ZZqXNIkiSlZAOwDS2CUcvgOwH+PXWW1YnwowK8NUC5wnFCCW6l8Zc5S1UX4coeOCx1jnqoYBnwMrLm4bcL0FflWFLbmw89ObgK2Dh1lghLAmxTgKdSZ5EkSUrBBmAb64XTAnyWxrofXPkMvL4ay+6KMBeYWYVMUjOJg/DmVl3yuzpDy/z/Dmw4zG+5N8A5K+B7zvaTam8+fCzAGQE6UuaIMNgP/7ZnNjtRkiSprTRS40cJ9MJRAS4AxqbOApTGwn5TYWnFA8HVsQUPPJDWJsKyDpg6He5NnaXeSnBRhGPXcbMbgK+7t59UfxHyffCrCK9OH4UPF+DsxDkkSZLqygagmA975uByYJOEMRYPwJ6zss38K1KE84ATq5BJaia3d8PUAIOpg6RQgjdE+NlqvtQP/LgMX54Bi+qdS9IL9cHm5ewgslemzBHgp93rftNAkiSpZdgAFADzYNs8XEmaDbsfj/CqHri90oH64KwyfLQaoaRmEeH7PfD21DlSWs1pwEuB84GzC3B/umSSVucWeHU/XByHv3S/Fm4vuE+wJElqEzYA9Q+3wEtWZjNoZtex7HMRDujJluZVpBc+EuCL1QglNYkY4PhuuDB1kEYwtAz4gAjfKsM3Z8LjqTNJWrteuCDAW0h0TRrh8aWwzewqbD8iSZLUyGwA6gUWwajl8F3gbXUoV45wTM/ql+2tlz44vpztZSi1hQD9AaZ1ZSddC+iDl5fh0UJ2uq+kJlGEicB1wG6JIvTnfD6VJEktzgagVqseJwRH+M8e+Fql48yHQ/JwVfT+rPax5BnYyhkrklrJPDguD98HRicoHwMc1Q2XJagtSZJUczZMtEa1PCE4wPndVTioYz5MzcMtEXLVyCU1gTsKiTfPl6RaKsFPIhxDguvUAJ/vhk/Uu64kSVKt2QDUWpVgVoRfAC+t1pgRrhsHB06FlZWM0webRHgwwqhqZZMa3O8KcFDqEJJUa32w+SDcGODl9a4d4JpuOLDedSVJkmrJWVNaq26YG2EP4LYqDbk4wJGVNv+KMG4Q7rb5pzbyVZt/ktpFFzzcA9sMwkeBcj1rRzigN7vGyNezriRJUi05A1DDUqUTgp8uw54zYFElWS6G/HawGNi6knGkZlGt/TIlqRlFGNUH10WYWee6ywZhu1nwSD3rSpIk1YIzADUsu8GTz8BBITsheCQGIhxZafMPYDuYj80/tYdYhmNt/klqZwFWdsOsQTgMeK6Odcd1wIPzoadeNSVJkmrFGYBaLxFCCU4DzmD97j/vLcC3K61fzE7nO6LScaQmECMc1APXpA4iSY2kN1uR8IY6XsTGTjhmd7i0fiUlSZKqyxmAWi8BYgE+N3Q63/LhfE+Ec6vR/CvB57D5pzYQoFyGmTb/JOlf9cCReZgKPFankqEfLpkPH6tTPUmSpKpzBqBGbJgnBM+dCPvtACsqqbUAThqEcysZQ2oS/XmYMh3uTR1EkhpdKdua5KRYv2va7xTgPXWqJUmSVDU2AFWRXtguwBXATqv58iMDUJgFD1ZSYz7sk4dr63hxL6WycgC2dsN5SRq+BdlpwfOBTepRL8Jve+DgetSSJEmqFhsqqtgaTgjuL8OBM+APlYzdB5uX4T6go6KQUuPrH4CtbP5J0sjcBGcNwH9Rh+vbCPf1wDa1riNJklQtNgBVFYtg1PJsie5bAQKc0g3fqmTMG2HsaPh7hA2rElJqXDb/JKkK7oRNlkBfgC3rUO6RbtgiwGAdakmSJFXEBqCqqggfALoKQ43AkRo6bfg24JXVSSY1rP4cbNMFD6cOIkmtoggfCvClWOMD7wIs74dtfQNHkiQ1OhuAqroIIUCsZIwSXB3hkGplkhqUzT9JqpG5sGkebgrwshqX6n8Wpu4Ld9a4jiRJ0ojV9F1RtadKm3+98Hmbf2oDA2XY3uafJNXGLHikBzYDvkKF1ybr0LkB/OWP0F3DGpIkSRVxBqAayjx4fQ5+7h1TLS7moWs63FSNwebBlDzsXoBLqjGeJLWaPtg8Qm+EzWtYJnbAIdPgtzWsIUmSNCL2WdQw5sIOHfAXnJmq1hYH4YCZ8PtqDFaCnSJcQ3ZYzq4FuL8a40pSKyrC2cAHqdE1cIA4AG+eCRfVYnxJkqSRstGihlCEiR2wEO+TanGdcEwVm3/dEa4jm9EyIcD3om/sSNIaFeBDK2HnCE/XYvwIIQ8/7oW312J8SZKkkbLZouQuhjzZzL/RqbNItZSHk3eHS6sxVhH2ilkjcePnPxfhgD54WzXGl6RWtSf8pQcmRvhlrWoE+F5vNtNQkiSpIdgAVHLbZXvl1PqEPim1z06Hc6oxUC/sB1wNTHjx1yJ8bS5sWY06ktTKeuB1HXAw0F+L8QN8tQhn1GJsSZKk9eVSMSVVgk9HOD11DqmWAvy0G46txlglOCTC5ax9xuwVBXhtNepJUquLkC9BCdi9FuM/C1P2hTtrMbYkSdJwOQNQyQwtYTw9dQ6pxm6uVvOvF14VsyXE61ouf1gvHF+NmpLU6gIMFmBaDt4DlKs4dDkP/27zT5IkNQJnACqJYrZv2V+BjtRZpBp6rACbVGOgEsyK2XL58cP8liUdsMs0eKga9SWpHSyCjZbDn4HNKhzq7xNhlx3g0WrkkiRJqpQzAFV3c7Km31+w+afWtnIxbF2NgebDtAhXMfzmH8Ckfvh2NepLUruYCk8UYPMI34ojHCPCrwqwqc0/SZLUSGwAqu4mwBxgcuocUg2VJ8BOx8DySgcqwq45uAZ4yfp+b4DX9sJxlWaQpHbTA6eMglnAiuF+T4A4CO/vgcNrGE2SJGlEXAKsupoPZ+Xgo6lzSLU0Cg7dLTultyIleEWE64FNKxjmsU6Yujv8vdI8ktRuhntASITnlsFu7vcnSZIalTMAVTd98G82/9Tq8vD1ajT/irBxhCuprPkHsHE/nFtpHklqR88fEDII7wdWuyo4wMMFmGjzT5IkNTJnAKouitlm2g8A+dRZpFqJML8HZlY6zo0wthP+L8Ae1cg15JgCXFLF8SSprSyAbcpwU4SJz38uwvd74O0pc0mSJA2HDUDV3MWQ3y478bcqp6FKjSjCkp4R7NP3YkOPl0uB11ch1qpcCixJVVCCqyIc2AnH7Z49X0uSJDU8T2FVzW0Pl0ebf2phEQYnwZRqjLUtfJ3qN/8ANh7IxvZQEEmqQDccmjqDJEnS+nIPQNVUEd4R4bDUOaQaO2QHeLTSQXrhtAAnVyPQ6kQ4tgRH1Gp8SZIkSVJjcgmwauZm2HYA7oo2mtXCApzbDe+qdJxiNuvvZ9T+8fJoDqZ2VaFhKUmSJElqDjYAVRNF6AQeAyakziLV0D0F2K7SQUqwU4S51OnxEuFHPXB8PWpJkiRJktJzZpZqZQ42/9TaBhbD1EoHuRE2ivAr6vh4CfAWlwJLkiRJUvuwAaiqK8LHgFelziHVSgQ64DXHwPJKxrkY8p1wIbB9dZINX4Rv3VKFU4slSZIkSY3PBqCqqhd2CfD51DmkGvveNPhtpYNsB18NcEg1Ao3AZivhq4lqS5IkSZLqyD0AVTVFGEe279/Y1FmkWonwYA9sVYVxciUoAdOqEGukngW2KWSPW0mSJElSi3IGoKrpRmz+qbWVA+xSjYFCNtZbgZXVGG8E+iMcbfNPkiRJklqfDUBVRR/8F7B76hxSjX2wAE9Va7BuuCXAmdUabz0MBji+B65OUFuSJEmSVGcuAVbFboHtVsJdeH9SC4uwoAe6qj3uHOgYD3OB7mqPvQYxwLu64X/rVE+SJEmSlJgNG1VkqHnxGDAxdRaphvq7YWyAwVoM3ge7l2E+MKoW468qwEe64cu1riNJkiRJahwuAVZFNoRfYPNPLa4fjqpV8w+gC26ux1LgCGfa/JMkSZKk9uMMQI1YEd4EXJg6h1RjvyvAQbUuUoelwBd1w5sDxBqNL0mSJElqUDYANSJ9sMkg/DVAPnUWqYZWFmB0vYrVcCnwtRPhkB1gRZXHlSRJkiQ1AZcAa71FCGXos/mnVtcPR9ezXhfcHOGsKg97ax6OsPknSZIkSe3LBqDW2wI4F9gydQ6pliL07gG/rHfdpfA5oFSl4R4GXj0dllRpPEmSJElSE3IJsNbLfNgnwB+846jFDXTDBgFWpihepaXAz5RhnxlwU7VySZIkSZKakzMANWx3wugc/Nrmn1pdDt6XqvkHVVkKXI5wrM0/SZIkSRLYANR6eAquBsamziHV2OIu+E7qEBUuBf5ED1xVzTySJEmSpOZlA1DD0geHA7NT55BqLA7AnqlDAMyGgRycyPrPRPx5N3yhFpkkSZIkSc3JBqDWaS5MGISfpc4h1cGPZ8EjqUM8bwRLgW8bgLcFiDULJUmSJElqOm7npnUqws3AbqlzSLUU4bmeBlziPgc6xsNcoHsdN30ywIxuuKseuSRJkiRJzcMZgFqrEpyMzT+1gVFwfOoMqzMbBiKcBPSv5WaDwLE2/yRJkiRJq2MDUGvUB5sA30idQ6q1AHfuDpemzrEmPbAgwplruclZBfht3QJJkiRJkpqKDUCtURl6o/cRtbgAcQK8KnWOdVnTqcABeoEz6p9IkiRJktQsOlIHUGOaD58FXp46h1RrZfjVDvBo6hzrMhsG+uDEctbw6xz69NIcvHn62pcHN51eOCB1BtVGgAfHwuKp63+6tSRJkqQKeAiI/sUC2GYQFuP9Q61vsBtGh2wPvaZQhM8AnwII8JZuuDBxpKqKEEpQTp1DNTUI3AfcApQi9JVh3kx4PHEuSZIkqWXZ4NG/KMLDwGapc0i1NghfngkfSZ1jfQydCjwvwKJuOCF1nmqzAdi2ysCfgWuBOaPgD7vBk2kjqZEUoXMQtu2AbcvwUmDjHLysDJMAcjAhQj5xzFQGIjwDLAvwN+AB4P4BuHcWPJg4W1MaerNt19Q5Ugjwo264rNZ1SvDhCHvUuk6D+ngB/pI6hFrXKj8zpwCviDAe2CDCSwJsyD9XEymNuwrw8RSFXQKsFyjB6dHmn9rDs83W/INsKfB8OKGcvcCTWkWO7MT53YD3r4SBIlwH/HIQfjkT7kkbT/U0DybnYEYOZkQoADsC2+ShI/LPd69f/Pt2trp39DuAIiyJcEsObinDTWX440y4o975mtA+wH6pQ6QQs61Gaq4MswIcUY9aDeirqQOodRShsww9AfbKwasi7MwqPzNX5eyvhjE/VWEbgPqH+fCyOLS0UGp1Ad6VOsNIzYBFqTNINdYB7A/sn4f/LmbLhX+Wgx90ZcuH1UJuhLGjs4bLwREOAqaCTb0qmRRgnwj7BLIpkkX4K3BthD8EuLoA9yfOKElaD32wcxmOJLtWmpGDceDPTa2bDUD9Qw7+hG8MqD080mp750ktbjdgtzJ8ugh/CnBBB1y4OzybOphG5mLIbwuzc3BChNcPLU9SfWwGHBfgOIAi3Brhkjxc3AW3Js4mSVqNebBtHg4Hji7Dq1LnUXOyASgAinAqsE3qHFI9dMBRqTNIGpEc2fKWV/XDF4vwkxx806ZF8+iF7YB3B3g7MNnZCg1h5wCfHmqwLwLOH4QfeDCPJKU1B8ZsCG8KcAowPXUeNb9c6gBKbx5MDvDF1Dmkeohw3zS4PnUOSRWbBLy7DAtL8Iv5sGfqQFqzIszshV8GuDPAh4HJqTNptaYCZ+fhwSL8qAR7pw4kSe1mPmxVhDPHwwMBvofNP1WJDUCRh+uj9wW1iQCvTZ1BUlXlIhyegxuKcF0JDotuZ9EwSjCrCL8G5g49/3q90RzGAG+OcF0RbinBG71WlKTa6oXtivCjHCwGPgZsnDqTWos/yNtcEd5Bdrqe1PIC3FaAhalzSKqZvSP8qgS3FOH1qcO0syJsXYKLItwIHJw6jyqya4SflGBhLxxrI1CSqutmeGkRvhHgNuDNuFWbasQf4G1sLkwAvp06h1Qvg74IldrFLsDPS3BDrxtl11UROnvhNOAvEY7F2ZitZOcAF5Xgz73upStJFbsZNijBp/vhLuB9wKjUmdTabAC2sU64Bt9dUJuIcNMMeCB1Dkn1E2HPANcX4VdF2Dp1nlZXgt0i3Bjgc8DY1HlUMzsFuKQIvy+6ikSSRqQP9umHBRFOB8anzqP2YAOwTfXCARF6UueQ6iUPr0mdQVIyhwF/LsKH5vjGV9VFCEU4NUIxQCF1HtXNbGBBET51J4xOHUaSmsECmFSE88r8//buO8zOsk74+Pc5MwmEFjpKlSoIAsmcCV1BUZEiKmVXXWVtuL4iqO/6guu6ylpZKxYUXdTFggawV0AiKyXJnEkANyhFUFEUAQUCpM653z/OxI0hCTOn/Z7y/VyXF3sBz/N8w8LkzG+e+775KbBndI+qxQFgBc2BwRp8K7pD6pcMfjET7onukBRqU+BDm8LckdYSYXXBPNhqFL4LfBCYEt2jvtsQOPchuHkBPCM6RpLybAReMAaLgFfjFhkK4ACwgjaDCxJsHN0h9csjcGJ0g6TcGMpgdATe7tuAnRmFfQZgHr5hLdirCVePwnv870qS/tYcGByFj2TwbWD76B5VlwPAilkAu6TWyb9SVdz5TLg9OkJSrkzN4D2bwpz5sFN0TBGNwHMS3ADsHt2i3BhI8PbN4JoFfoMrSUDrhN9N4coEb45ukRwAVsz4XgO+bqzKGICTohsk5dbhNVg42tojUBPUgBdmrWW/06NblD8JDm3CjY3WHoGSVFkNmLmi9ab8kdEtEjgArJT58FrgKdEdUh/dMwNujI6QlGtbJfjOKLwn+QOyJzTa+ixxGR76oPXbBvhRA14aHSJJEUbg74Hr8Ptv5YgDwIpowEY1+FR0h9RPY3B6dIOkQsgSvH0UvjsXNouOyasGnJbgM8BAdIsKYSrw5RF4V3SIJPXTKLw2g6/QOihJyg0HgNVxKZ7Op2p5+CD4fnSEpEI5bhCumQs7RofkzfibDBfhZ0dNTpbBO0fhPdEhktQPDTgrwYX4+6VyyH8pK+AGmAkcG90h9dMAvDu6QVIhHTgI182DvaJD8mI+HJrBF/HNP7UpwdtH4D+iOySplxpwNvAx3FJEOeUAsOQSZINwZXSH1GcrZsCHoiMkFdbOA/Df8+HA6JBoDdi5Bt/APf/UoQzeOgJvj+6QpF5owDuAD0R3SOvjALDkRuHsDLaM7pD6KcHF0Q2SCm+7GsxpwEHRIVFugo2BbwPbRbeoHDJ49yi8MrpDkrppBF4OnBvdIT0RB4Altgg2wWWQqp5Uh9dFR0gqhc2BHy6AA6JD+i1BtqK17Lfyb0Gqq7IEnx2Bo6NDJKkb5sMzM/hPXParAnAAWGJLWwd/DEZ3SP2UoJHBWHSHpNLYoglXjMBTo0P6aQH8M3BydIdKaTCDry2AXaJDJKkTI/DU8W0ypka3SBPhALCkboS9mnBMdIfUbyvgFdENkkpn2wyuqsrpwCOwX3IFgXprqyZ8Yw5sGB0iSe2YB1tl8H3cbksF4gCwpFbC1b6DrAq6/1D4ZXSEpFLacRC+M74vXmnNaa0c+AIe+qHem7kJvD86QpImK0E2ABcBu0e3SJPhALCEFrTegNohukMK4Bsrknppxgr4Uirx56dN4R0Z1KM7VA0ZnDkKz4rukKTJGIW3ACdGd0iTVdoPsFW1CKYm+Gx0hxRgZR0+Hh0hqfReNArviY7ohVEYAv4lukOVUkvwhfGD6yQp9xrwdOB90R1SOxwAlsxSuCi5bEcVlODH0Q2SKuOcUTghOqKbUuv0wk/j4WHqv52XwL9GR0jSE5nTOsToIjz0QwXlALBE5sOTErwsukOKsDm8MrpBUmVkCf6zAU+ODumWBvx9guHoDlXWW0Zhn+gISVqfTeAt/l6pInMAWCIZzGn9Qaqce/eE+6IjJFXKtsCXy7Af4BzYMHM5k2JNacJHoiMkaV1uhB0yeEd0h9SJwn9oVctCODKDvaM7pCAfjA6QVEnPGoU3R0d0ahM4E3hKdIeqLYNjRuCw6A5JWpuVcB7uV6qCcwBYEk34RnSDFGSsDh+OjpBUWefOg12jI9o1D7bKPPhDOZHBu6MbJGlN81vLfl8a3SF1ygFgCYzCmxNsEd0hRchgJLpBUqVtPNA6PKOQBuEMYHp0hzTuqAYcHh0hSasbgHNxqy2VgAPAglsEUxN8ILpDirLMwz8kxXveaAEP4boepiV4Q3SHtIazogMkaZUFcEiC50d3SN3gALDglsJn8BhyVdcjh8IvoyMkKcFHroVNozsmYyr8I7BNdIe0hhcVeVm9pHIZg7dFN0jd4gCwwBqwdWp9eJcqqebel5LyY9sNC/Tm0vjpxYU/wESlNFCD10RHSNI82CuD46I7pG5xAFhs38K9CFRhD7l0TVK+vHVBQd6oa8AJwJ7RHdLaZPCy5GdcScEG4E04M1GJ+C9zQV0H+wGHRXdIge4/Ch6JjpCk1WzWhHdER0xE5v6pyrddRv2cKynQ9TANeEl0h9RNDgALagP4YXSDFCmDC6MbJGktXrcAto+OWJ95sBVuaK78K9zBOpLKYwM4Cdg8ukPqJgeABXRT64vRjtEdUqA0E94ZHSFJazG1CWdGR6zPIPw9HiCm/Ds+OkBSpZ0WHSB1mwPAgkmQrYAvRHdIwX6fwVh0hCStw+sbMD06Yl0SvDy6QZqAHUdaW95IUl/Ng60SHBndIXWbA8CCGYW3AJtGd0iRBuD86AZJWo/NgFdHR6zNCOwGHBTdIU3QsdEBkqqnBicCg9EdUrc5ACyQBkwB3hfdIQVLM+BD0RGS9ATOmg0D0RFrqrn3nwokg2dFN0iqnvEBoFQ6DgALpAkfxD17pHuiAyRpAnbeNYfDi+QbVSqWg5Lfr0jqozkw6PJflZW/oRbEItikBmdEd0g54Om/kgohy9kG4nNgQ/ymRsWyeQP2jI6QVB2bwhCtrTyk0nEAWBDL4PPkcCmR1GdpqM1l8A3YqAFvS5B1O0qS1uHFeToMZDN4JrBRdIc0Se5ZKamfjowOkHrFAWABLIBtEpwc3SHlwJ/aPf03tfa9et8ofO9m2KLLXZK0NtOAU6IjVkmtAaBUNJ4ELKmf/KGDSssBYAE04XLfWpJgAL7W7rUZnDT+fx67HOaP+A2FpP54SXTAaurRAVIb9o4OkFQpM6MDpF5xAJhzN8NuCY6I7pDy4EH413auux02AI5b7U/tkcENjRy9mSOptI5YCJtHR4z/INEBoAong72iGyRVQwO2BnaJ7pB6xQFgzi2H7/vqnwTAo0fBI+1c+CA8j8dv5rsJMHsELpwDgx3XSdLaTWm2vgaFuhH2wO0PVEy7+fu0pH7IYJ/oBqmXHADm2HVwIC57kADI4L87uPak9fy10zeDq26Cbdu9vyStTxOOz0GDS5pUVFO2gO2iIyRVwu7RAVIvOQDMsQ3gm9ENUl4kOLud6xowBTjhCe79zBXQGIFZbcVJ0npkcGz0G0zN1huAUiGtdAAoqT/8vVKl5gAwp+bDocBTojuknFhZh5+3c2GCo5nYsredMrhmBF7VznMkaT223CT4DbzMzxQqsMy39CX1QdP9/1Ry7qeRUwMwO0VHSPlxe7sXZvDiSfztG2Zw0SjMSPCWOqxo97mStLpa6wd78wMTdgt8dt79OsG1GSwE7szgzhVw70aw/OnwYAY9+UjWgI3GYNoU2G4M9qzBXqn178mR5ODgmDxJvgEoqQ8y2Ca6QeolB4A5NB+emWCH6A4pRy5q56IE2Sgc28Z1ZwAzGnBKHf7QzrOlCfoDcHF0RAcGaQ3Zd40OybsEhwAfC0zYOfDZefQL4EsDcMkM+HVEQB0eo/W/B4BbVv352TCwGzw7g9MTnIif1+HxB3lJUi84AFSp+YEih3z7T/pbQ21+0zwCB9Rg+zYfexjQmA+nzILr27yH9ETursM50RGdWAT/8hi8IYN3AxtH9+TYIcHPnx78/Ly4GXjnEHy7V2/2depUGAOuAK6YD/vW4MPk4CTpYBtEB0iqhK2jA6Recg/AnJkPxyT3OZFWtzhrfTM0aTV4fofP3r4G1zTaPIBEqoJ9YfkwfDTBELAguifHdpoLOwY+f5PAZ+fBSuDfFsNQHb6V1+HfmmbBonrrs+EbgeXRPVGSA0BJ/bFRdIDUS7l/A3AEnvoI/OYoWBrd0g81+HJ0g5QnCW5o99oMnteF7/AGgQ+Mwl4Pwxuq8rVImqxhuPV2OPQh+BJwSnRPHg3AwcBl/X7ubBgApvX7uTmyGDi53nqrrpCG4ZMjrf0JLwc2jO7pt6yCv2ZJIaZGB/TIUN0fz12UGAAAIABJREFU0oqcvwGYoJbBDzaFP47CxSNwdIIsuqtXboRTga2iO6Q8mdJaVjhpc2Gz8c3UuyLBqzaF6xd6kqa0TnvCsjvhJckfZq1VDfaNeO5Tqz08WQ6cWOTh3yrD8IPUOqm+EG8vdtmU6ABJleDbxiq1XA8AG3ACrVPrpid4eQZXjsJvG/CBebBXdF+3rYTPRjdIOdM8EK5t58IpcDTd/4ZhxhiMjLTuLWktToWxOpxGsQ836ZW9Ix46WOIfnk7AW+swJzqiW4bhEuCr0R2SVFL+sEGllusBIK39Tta0I3D2ANzagEYDzrqpBHvmjcLf4Qbd0prua/fCBMd0M2Q1W2fwowacXeY3kqVOZNCcBq8FrotuyZMUNACssHlD8InoiG5rwttonR4sSZI0YbkdAC6Ap2XwrCf424aAj62Ae0bhyhF4RaOgG3cm+HR0g5Q3WWdvbfTyxMQB4AMNuOQmTz2V1mpfWF5rbW3xl+iWHNkr5fizVwm9uyiHfUzGLLg7uWpEkiRNUm4/hCY4k4m/XTOQ4OgM/gu4uwEXLIBDepjXVQvgJGCL6A4pbxK8r53rFsDTgJ27nPM4GfzdCri+Abv3+llSEc2EexKcFd2RIxvd2IevTQLg3sXw4+iIXhmAr0Q3SJKkYsnlAHAhbJ7gH9q8fEvg9c3WN+W/abRO79yjm33dluDC6AYph5p1+Hk7FyY4qtsx67F/Bs/u4/OkQhlunQrc1l6eZZT8gUFfJPjBUbAyuqNXZkID+EN0hyRJKo5cDgCbrX2DurGsbmda+3Tdvmq/wAZs3YX7ds08eF7y5F/pcRL8qYNrn9nNlgn4WZ+fJxVKBm+lhEsx25HgSdENVZDBTdENvZbBjdENkiSpOHI3AJzdWs77+h7cegj4GPC7Bny3Aac0cnDKz0DrzQhJa6jBNe1cN34wxzO6nLM+98+EX/bxeVLhDMFc4KrojjxIsF10Q0U8GB3Qa014ILpBkiQVR+4GgLvDicCuPXzEBsDxwGzg3hG4sAGH9/B56zQCRwPbRDxbyrtB+Gg71zVgX/r7Dfa1ZdxkXuqB86MD8iBzAKguqfl7jyRJmoTcDQATvLGPj9sig9OBnzXgFyPwrhHYrV8Pz3z7T1qXdADMa/PaI7sZMgEu/5UmYAh+CPw2uiOabwBKkiQpQq4GgCOwH/3fu2uVvTN4Z9baL/DaUTh9LmzWq4eNwhG4D5C0Lo+2e2HW568hTQeA0oRk0EzwjeiOHPD3fkmSJPVdrgaAGZzV+kOoGnBYggsH4d4GzB6FE7q9X2CCr3bzflKZJLijzev6vf/fozU3YZcmLIPLoxuiefCXJEmSIuRmADiv9YH4pdEda9gQOCXBd4DfNODD3ThFeC7sD+zYcZ1UUgPwzXauG9//b9su56xTBjfUYUW/nicV3Z1wA/BIdEekrPXZQpIkSeqr3AwAB+C1wEbRHevxZOBVU2BJpzcahK93oUcqrQ3gk+1cl/X37T+Sy3+lSTkVxoD50R3BHABKkiSp73IxAJwDg8Drozsm4KIDOtibDGA+7ATs3aUeqYzG9oU/t3NhgkO6HfME5vb5eVLhZa23AKvMAaAkSZL6LhcDwE3ghcDO0R1PoJnggk5vMgCzuxEjldj97V6YweHdDJmABX1+nlR4CW6Jbgi2QXSAJEmSqicXA8AMzoxumIDvDsOdndxgHmyV4KBuBUklNdrORQtge+Ap3U1Zr9/UOxhWSlVVg7uiG4L5BqAkSZL6LnwAOB8OBI6I7ngiNfhEF+7xBeJPOZZybQA+2851Y3Bot1vWJ7U5qJSqbqUDQAeAkiRJ6rvwAWBB3v67ZQZc3ckNboKNa3Bct4KkspoB327nulqfB4C4/FdqyzDcCzSjOwKNRQdIkiSpekIHgA3YOoOXRDZM0CcySJ3cYAWcn3IwcJXyLMHSDq49rJstT6TmG4BSW8Z/P30suiPQsugASZIkVU/0QOo15H8pzIPT4Mud3GARTAVO61KPVFoZ3NPOddfDNFrbCfTNCljYz+dJJfNodECg5dEBkiRJqp6wAeD423CnRz1/ojL4wr7wSCf3WAbnAINdSpJKq9199TaCLYHFXc5Zn98d3FrGKKk9VX4D0AGgJEn5tDI6QOqlsAFgA44Bdo16/gSllfCZTm/ShLO7ESOVXYLL27nuQPh9E2YA87uctC4u/5U6MyU6IJBLgCVJyid/SKdSi1wC/E+Bz56o7x8Et3Vyg/lwKrBRl3qkUhuGy9q9dhbcvRyOBC7uXtE63dSHZ0hltnF0QCC/uZAkKZ/8IZ1KLWQA2ICdMzg24tmTkeDjnd6j1oV7SBUxlnV4OuahsKQOp2XwOnr4TXaCX/Tq3lJFVPkHY1Xe/1CSpDyr8hYlqoCQfekSvC6DgYhnT8JtdbiqkxtcD08HtutSj1R2XdvDbwg+OwKLMrgUeHK37rtKDW7p9j2lqpjTOvxrg+iOQA9EB0iSpLW6H9gpOqIHvtwoz3BzKa1fy4O0fqi6JMGfgF8NwB3AHTPhvsjAPOv7ALDR2vfnH/v93Dacn0Hq5AZT4ZJuxUhll+DX3bzfMFy3AA5owteBo7p46+YyuL2L95MqZVN4SnRDMAeAkiTlU1kHR/tEB/RSNv7H5vgfG/AQcCtwQ4JrE1w7C/4YU5cvfV8CnMGLge37/dxJWrwSvtzJDW6CbYF9u9QjVcF13b7hTLhvMTwXOK+Lt73rUFjSxftJlZJgt+iGSJkDQEmScmn8TTIV33RgFnBWBpfW4A8NuH0EPj8CJ46vRqmkiD0AXx/wzElJcNHB8HAn91gJ/9WtHqkKBuGrvbjvUbCyDudk8A9059V39/+TOpDB7tENkZoOACVJyqvfRgeoZ/bI4JUZfGtTuLcBX67iMLCvA8BR2CfBM/r5zDY0B+GCTm7QaG1u/twu9UiVMAOu7+X9h+ArwBHAbzq5jweASJ3JYDi6IZJvAEqSlFu/ig5QX2wGvGzVMHAUPrEQ9oyO6oe+DgATvJr/XaKdVz+c0fn+XuemoBOWpYJa0Y+H1GHBGAwBV7R7j5oDQKkjCQ6NbgjmHjSSJOVQcgBYRZslOGMMftmA743A0Sn/M6u29W1ItQimAi/v1/PalcEnu3CbN3ThHlKV/LlfDzoIHrgTjqW1L2A7B/04AJTatKC1B3CllwDX4K7oBkmS9Hgb+Dm/ymrAcRlcOQo3j8KLooN6oW8DwKVwPK2DMfLsjpkdvBkEMP4vyrQu9UiVkMFt/XzeqTBWh3MSnAosnsy1y/rcKpVJE06Mboi2FO6MbpAkSY93QOsQkN9Fdyjcfgm+0YC5C/K/hd2k9HOZ6mv6+Kx2fSb739Oj25LgE92KkaoiwUjEc4fhstTaj+yWCV6y+NA+vq0olU0GL45uCPaQX0MkScq10egA5cZBTbhmBC6fB3tFx3RDXwaAN8IOKf+HYiwZgy92coMFsAuwQ3dypOpI8MOoZw/DrUvh4Awun8Df3tEBIlKVjX8WODK6I5jLfyVJyrGoFxOUXxm8eABubsDZs2EguqcTfRkAroRXkvN/UAm+dlCHJ/M14Uvd6pGqpA5zIp9/OCyeCacA5wBj6/lbHQBKbVrZ2h93MLojmANASZLy7afRAcqlDYAP7AbXjsBTo2Pa1fMB4PgJKv/Y6+d0KsGnO7n+epiWwWHd6pEqJGXrH7r1RQapDudlrf1K17VEzwGg1IZFsAlwenRHDiyKDpAkSeuWwXzgkegO5dbBGSwcgTen/m6p1xV9CU7wT8DF5PQ/pASNWR2+6jsN3lXEfwGkHFgWHbC6IfgRMAu4eS1/+bd9zpFK4TH4Z2Cr6I5oCW6KbpAkSetWhxXAf0d3KNemZfCRUfhuA6ZHx0xGzwdWGaRhuKoOpy2GbWiduvk9YGWvnz1RNbig03uMwRu70SJV0EPRAWuqw68Ww0GssS9oBr8OCZIKbAFsn7UGgJVXgxujGyRJ0vpl8K3oBhXCscANC2HP6JCJ6usba0fB0jpcWocTaq0DM94ELOhnw1o8mODrndxgFE4ApnWpR6qUDH4X3bA241+vXpnB62j9JBBcAixNWhM+CWwc3ZEDi2fCndERkiRp/Qbh2+RgiyIVwj5jMG8EnhMdMhFhS1Znwj11OL8OQ03YDzgP+ENAykV1eKzDe3y8KyVSBTXXvtQ2N4bgsxk8G/hjcgAoTcoovBZ4UXRHTtycQTM6QpIkrd8B8CfgZ9EdKowtMvhBo7X1Xa7lYs+6WbCoDufcCTul1muUXwWW9OHRaQAu7OQGC2CbJjylSz1S5dTgJ9ENT2QIfrYShofg3ugWqShGYFbyB2R/lTrca1iSJPXVF6MDVCiDwAWNnG8Nl4sB4Cqnwtgw/LAOL1ve2ix81X6BvXr99qcz4PYO7/HprCspUjWl1n/juXcw/M63d6SJmQ/7Zq3lMxtGt+RFBtdEN0iSpImZApcBi6M7VCgZcH4DzowOWZdcDQBXdygsWbVf4OD/7hfY1c2zE3yuw+trCV7QrR6pajJI9RweAiKpffPhwBrMAZ4U3ZIjzTGXEkmSVBgHwKPAV6I7VDgZ8LEGnBUdsja5HQCu7kD4/fh+gTNW2y+w06V4DzwC3+zkBvPhVQmmdNghVVbK0Wngkjo3CkfU4Gpgm+iWnPn5QfBAdIQkSZq4BB/DFUCavAz4aB73BCzEAHB1q+0XuEOC52TwJdo4xCPBl46CpZ20DMB7O7leqrqs8wN4JOVAgqwBZ6XWnp5bRPfk0E+jAyRJ0uQMw60Jvh/doULKgE8saB0mmRuFGwCuMr5f4FVD8Apg+wSnZXAVkCZyfYL/7OT5C1sHf2zbyT2kqksu/5UKbwRmNeA6Wj8l9634tRj/fCJJkgqmBu+LblBhDTbh6yOwW3TIKoPRAd0wvofYxcDF82GnGrwUeDWw5zouuW4WLOrkmU1PBZI6luBP0Q1SsD0aMDs6ogNbAUfR+imn1u6Rhx0ASpJUSEMwt9E6tPD46BYV0lYZfPtaOPTwHBwqU4oB4Opmwd209gg8bxSGUusNwZfwt/sRdXT4xxwYTHB4J/eQBMBd0QFSsC2BU6Ij1DsZ/LjTLUckSVKcJryjBsdS4BWUCrXfhvClBC/KJrhitVdK/S/wEIzW4azpsFPWOq33UuC+8T+2bTN4HTDQjUapygbgf6IbJKnHOjpwTJIkxZoFNwJfiO5QoZ3YgNOjI0o9AFxlT1g2BN+tw6nTYad65wcP/FtXwqSKq8Hc6AZJ6qEVU+AH0RGSJKkzNXgb8GB0h4orgw82YOfIhkoMAFe3Jyzr5PobW6cPe/iH1AW3wc+iGySph36wP/wlOkKSJHVmZmsl4duiO1RomwKfS4F7Z1duANiplXBhdINUBgk4FZZEd0hSryT4fHSDJEnqjqHWLOCK6A4V2nMb8KqohzsAnITxSe1zozukMqhBM7pBknro3gx+GB0hSZK6I4M0Bv9EDk5zVXFl8OEGPDni2Q4AJ2G0dZrwlOgOqQwSrIhukKReSXBx3a9zkiSVykFwVwavie5QoU0H/j3iwQ4AJ+f90QFSWSR4NLpBknqkOQifi46QJEndNwSzgf+M7lChvXIE9uv3Qx0ATtA82CoFn9gilUnmKVqSyuvbM+D26AhJktQbi+GNwHXRHSqsgQze3e+HOgCcoBq8N+yoFqmEEjwQ3SBJvdCED0U3SJKk3jkKlo7BicCt0S0qrBNHYf9+PtAB4ARl8LLoBqlMMrgvukGSui3BDbPg+ugOSZLUWwe1Xmg4Dr+vUXuyJvxLPx/oAHACboKnAptEd0hlkuAP0Q2S1G0ZvDe6QZIk9UcdfpXBC4Al0S0qngxOmg879et5DgAnYCVcEN0glU0Gv4lukKQu+1kdvh8dIUmS+mcI5mZwKrA0ukWFMzgAr+vbw/r1oKJKkI3CM6I7pLJpwm3RDZLUTTU4O7pBf/WpBnw0OqKXEmwc3SBJahmC743CcQm+jasHNQkJXtOAc+uwotfPcgD4BBbCCfjPSeq6Qfh5dIMkddG3ZsIN0RH6q41xQCZJ6qMhuLoBRwM/ALaM7lFhbAc8lz6sInEJ8BNownnRDVIZzfDELEnlsQT45+gISZIUqw7zanAE8PvoFhVKXw6ddQC4HnNgQ1oHgEjqsgzGohskqRsSvLcOv4rukCRJ8WbCLWOtIeDC6BYVxokN2KjXD3EAuB6bwZlAFt0hlU0GKbpBkrrkts3hQ9ERkiQpPw6CuxbDocDHo1tUCBtl8OxeP8QB4Pr93+gAqYwSNKMbJKkLmhm8Zk9YFh0iSZLy5ShYWoezErwaTwjWE2jC8b1+hgPAdZgHWyXYNrpDKimX/0oqg/OG4GfREZIkKb+G4fOp9TbgL6NblF8ZHNPrZzgAXIcp8OHoBqnEen7EuST12Og0eFd0hCRJyr/h1n6A+wPn4MoBrd3OC+EpvXyAA8B1aMIp0Q1Sia2MDpCkDjw8Bi/dF5ZHh0iSpGKow4o6nNeEoQQ3RPcof8bgmb28vwPAtRiB/ejDCSxShflNs6SiaiZ4+UFwW3SIJEkqnlmwqA6HZ3AGcF90j/Ijg0N6eX8HgGtRgwuiG6SScwAoqajeNQzfiY6QJEnFlUFzCD41BXaltSz4wegmxUtwYC/v7wBwDQmy1OOpq1R1yX0vJBXTpUPwnugISZJUDgfAo3U4byrsBrwfeDS6SaGePhsGenVzB4BraMAJwGB0h1RyS6IDJGkyEvxkOrw8gxTdIkmSymV/+Esd/oXWIRDnAL8ODVKUjfZsDYN7wgHgGjJ/si/1w2PRAZI0UQkay+BFe/r2siRJ6qE63F+H84Zg9wTPAS4FxqK71D9NB4D9kSADnhbdIVXAI9EBkjRBCzN4/uGwODpEkiRVQwbNYbiqDqcOwB7AWzO4HmhGt6m3kgPA/hhf/tuz9daS/spvpCXlXgYjU+HZdbg/ukWSJFXTDPh1HT40BIcBOwL/B/gxfk9VSllrGXhPuNfdajL49+gGqSIeig6QpCfwswQn7O/XK0mSlBN1+APwaeDTs2FgV9gfOCyDQ2kdZrozvuhVaE3Yplf3dgA4LkE2CvtFd0gV4TH3kvLskunwSvf8kyRJeXVqa2/AheP/+yTA7bDBw60lpHs0YY8Mdk2wSQabANOBjYEN13HLaev5a+tTG7/3Ko+x7s9QS+n8QMi9af06ymrrXt3YAeC4+XDcgMt/pb5owp+jGyRpLVIG75sJ7/C0X0mSVDTjP7z8xfj/SmkU5icYju7olRps1at7OwAcNwDvjm6QKqTTn/pIUrctTvCqOlwWHSJJkqRqSj18u9G14bSW/yZ4enSHVBU1WB7dIEmruXkM6sMO/yRJkhRrg17d2AEgMB+OzVz+K/XNoPtqScqHBHx8Osw6CG6LjpEkSVLlTe3VjV0CjMt/pX5b7huAkuL9EnhtHa6NDpEkSZLGTenVjX0DsGX/6ACpSlwCLCnQCuC86XCgwz9JkiRVReXfALwRnrfS5b9SXyWXAEvqvyZwOfC2OvwqOkaSJEnqp8oPAMfgfdENUtVMgaXRDZKqI4OrxuCts+DG6BZJkiQpQuUHgE04IIuOkCpmwCXAknovAVfU4NyZcEN0jCRJkhSp0gPAm+Ho5S7/lfpuWWsPLknqhcUJLgE+MQz/Ex0jSZIk5UGlB4DL4N99+0/qv0F4LLpBUumMJvjiGFx8MDwcHSNJkiTlSaUHgBnMjG6QqqgGY9ENkkrhlgSXApcMw63RMZIkSVJeVXYAuAh2XgIbRHdIVZRgSnSDpEK6L8HVGVw1AFfNgF9HB0mSJElFUNkB4BJ4f3SDVFUrYMPoBkm598cE12dwe2qd3jt/GO6MjpIkSZKKqLIDQODY6ACpqlbCRtENknJvWgb/UYd50SGSJElS0dWiAyJcD9OAzaM7pKraCKZGN0jKvenAj0dgVnSIJEmSVHSVHABOhbOiG6QqW+n+m5ImZnoGV8yH4egQSZIkqcgqOQBMcHp0g1RlK1tv4UrSREyvwRULoB4dIkmSJBVV5QaACbIa7BLdIVXZVJcAS5qczZtwpUNASZIkqT2VGwA24JhUwV+3lCdjvgEoafI2b8IVozAUHSJJkiQVTeUGYRn8W3SDVHVN3wCU1J4tEvyoAU+PDpEkSZKKpHIDQGBGdIBUdanDQ0AaMDNB1q0eSYWyNfATh4CSJEnSxFVqANiAnfH0USncIGzW4S1mj8JvGnD+AjigK1GSimQb4CcjsF90iCRJklQElRoAAh+IDpAEwBYdXv8wsBNwZhNubMCiBpw9F7brQpukYtgmg5/Mh32jQyRJkqS8q9QAMMHzohskQYLpHV6/eI0/9TTgA4Pw+1G4cgResQg26eQZkgph2xpcvaD1NUCSJEnSOlRmADgbBrLO3zqS1AUZbNrh9Q+v4y8NJDg6g/9aAn9qtJYKnzAHBjt5nqRc27bpEFCSJElar8p8U7w7nOyhAVI+NGHjDm+x5huAazMNOCXBKZvCPQ24LIOLh2C0w2dLyp/tmnD1KBw1BL+IjpEkaV0y2Pwm2Da6o0xWwF/qsCK6Q+qSpb26cWUGgAneEt0gqSWDjTq8/uE0uUu2B85McGYDbklw6SB8cQb8upMOSbmyXYIrxoeAd0THSJK0Ngm+66Sq654FzOnmDRvweiZ/cGFPVhymHt23Vyske3XfVf8cEuzdi/vnyLpWu3WsMgNA4OnRAZL+alonF69lD8DJeFoG7xyDdzTghgwuXgKXHN7ZPSXlw44J5jTgyDr8KjpGkiQV1tnALtERULxljJN8UUOP91CvblyJPQCvbe031tHAQVJXbdDh9d0Y1tWAwxJcuGFrv8DvNuCUBkzpwr0lxdkRuHoe7BodIkmSJE1Sz94ArMQAcFprei8pJ1KHA8D1HALSrg2B44HZwB9H4MIGHO6+oeqD3wL3RkeU0M4DMGchPCU6RJIkSZqoBH/q1b0rMQBM8JLoBkn/K4OpnVzf7O1y3S0zOB342SjcMgLvasDuPXyequ2PCZ6JQ8Be2GUMrvFNQEmSJBVFBnf36t6VGACSk7X7kv4qb28ArsveGbwTuKMBjQac1YCt+/RsVcQw3FqD5wF/jm4pId8ElCRJUmFk8Lte3bv0A8AF8DRgILpD0t/odJ+9nm2Muh5DwMeA343CZSNwdECDSmom3JTBcXgYTS/sMgZXzW3tDShJkiTlVhN+36t7l34A2IR3RTdIepyOhvIJ7utWSBs2SHBS1hoGSl0zBHObcAzwSHRLCe0+CHNuhB2iQyRJkqR1SfDLXt279ANA4FnRAZIep6OvPVN6uDHqJOyRqvE1VH00C65P8CJgaXRLCe2x0iGgJEmS8uvhYZcAt2f8m/MtozskPU5Hp+tOab0BmLrU0q4NRl1SqB4YhqsyeCGwLLqlhPZcCXMWwPbRIZIkSdIabsl6+H1uqQeA8+EFdDhokJQ/+8JyYvYB/Bs12DO6QeU0BD9O8DJgZXRLCe3ZhJ/MhydFh0iSJEmr+Xkvb17qAWANzohukLR2c2CTDm8RuQ8gAE0HgOqhYbg8wUuAseiWEtq7Bj9twJOjQyRJkiSADG7o5f1LPQDMWqd2SsqhQXhqh7fIwz6ADgDVU8NwGfBqoBndUkJPBa72TUBJkiTlQXIA2J7UWvo7PbpD0tpNhb06vEX4G4DJAaD6oA7/BbyR+H0vy2jvGly5ALaJDpEkSVKl/WUIbu3lA0o7ABxpnf7r/n9STg3APp1cn3LwBmDmAFB9UocLgDdHd5TUfk24qgFbR4dIkiSpsq7q5QEgUOIBYM1vlKS8272Ti7McDACB3WbDQHSEqqEO5wPviO4oqf1xCChJkqQgCX7U62eUdgAIHBwdIGndMtixw1uELwEGpu4CO0dHqDrq8J4M3hvdUVIHAFfNg62iQyRJklQpaQr8uNcPKfMAcMvoAEnr1dGeWwnu6VZIJwY738tQmpQh+NcM/iO6o6QOGHAIKEmSpP6afyD8vtcPGez1AyLcBAetcP8/KdeasHmHt/htV0I6lGA/+vDTGml1M+GcUdgE+D/RLSV04ABceT0cfSj8OTpG7UnwjWE4Kbqjl0bgpKx1UrgkSSq2S/rxkFK+AbgS3hrdIGn9Mti4w+vv7lZLh54eHaDqySANwRnA56JbSmrG1NYQ0NUEkiRJ6qXmYJ9+oFfKAWCCI6IbJD2hDTu5eAj+CCzrUksnHAAqRAbpTng9ffqJYQXNnAo/aMD06BBJkiSV1pX9WP4LJR0A4il+UhF0tAXB+BHpv+tSSyee5knAinIqjN0JLwdmR7eU1EHAj+bCZtEhkiRJKp8EF/TrWaUbAI7CHpTw1yWVUDf+O83DMuANd2193ZFCnApj01pDwO9Ft5TUwQPwo2th0+gQSZIklcrdd8H3+/WwMg7KzooOkDQxs2Fah7fIxUEguAxYwfaF5YvhlAQ/iW4powwO2RB+sKh18IokSZLUsQw+cSqM9et5pRsAJnhudIOkidmr8/06czEAzBwAKgeOgqUZvCCDa6JbSurwJb4JKEmSpO748xL4TD8fWLoBILBzdICkiRmDZ3RyvScBS3+rDo+tgBcA86NbSuow3wSUJElSpxJ84nBY3M9nlmoAOBsGUocni0rqn2aHg7Mm3NWtlg7tFx0grXIwPDwVjgEWRreU1OFL4DsN2Cg6RJIkSYV0/yB8rN8PLdUAcFd4YRYdIWnCMnhKJ9cPwG1dSunU7g4DlCf7w19obYnxP9EtJXUU8KObYOPoEEmSJBVLgnNnwIP9fm6pBoAZvDa6QdLEJdimk+tntJYAL+lSTidqNTggOkJaXR3ub8JzyM+gvGyOWAHfvL7zw4wkSZJUHbdmcGHEg8s2AJwR3SBp4jKY3uH1TeBXXcrpyBgMRTdIa5oFf1wJzwbujG4pqedMhW87BJQkSdIEpARn1GFFxMNLNQBswtbRDZImLsEGXbhHLt5uyhwAKqcOht9phTmkAAAHn0lEQVTRWrL66+CUsnrOVPjWHPcgliRJ0npk8IVhuCrq+aUZAF4H22Yl+vVIVdCN/2YzuLUbLV1Qjw6Q1qUOvx2D5wF/jG4pqeduCpff3oUfakiSJKmU7lkGb40MKM3AbBq8IbpB0qRlCaZ2dAO4vVsxHdrHAwGUZwfBbQmOBO6NbimpYx/0TUBJkiQ9XjPBaYfCnyMjSjMATPD86AZJkzcfDu/k+gS3tP4QbmCZB4Eo54bh1iYcQ+uUYHVZBsdsBl9f1OEPNiRJklQeGXwocunvKmUaAO4Z3SBp8qZ0OACsw7wm7AK8CbixO1XtqbkMWAUwC25MrYNBHoxuKaMEL1gC33Q5sCRJkoBrE/xrdASUaAAIbBYdIGnyxrrw1twsuLsO59dhRhP2A84D/tB53aR5EIgKYRgWNuE44JHolpI69iG4pAFTokMkSZIU5rc1eHHUqb9rKsUA8PbW8K8Uvxapgnbr5s1mwaI6nDMEOwJHJPgssLibz1gPB4AqjFlwfQ1eCCyNbimpFwFfnQOD0SGSJEnqu4cyOGEm3BcdskophmaL4bXRDZLak8EOPbpvsw7XDsPrgCcBLwO+D6zsxfPG7e1BICqSmfAT4ERgWXRLSZ28GXzNIaAkSVKlLE9w8hDcHB2yulIMAJutb14kFVAG03v9jDo8Voev1uH45bBd1hoKXkf3Dw8ZWOY+gCqYOlyRwUvo7XC8shKctAl8eTYMRLdIkiSp51Zk8Pd5OPRjTaUYAAL7RAdIak/q8x5Zh8Kfh+CzdTi8BrsC5wC3dev+NTikW/eS+mUIvpkcAvZMBn+3G1zim4CSJEmlNpbgFUPwzeiQtSnLAHDz6ABJbcsafXgLcG1mwm/qcF4dnrra4SH3dnLPzAGgCmoYLstaW2o0o1tK6pRN4Au+CShJklRKjwEnD8PXokPWpfADwNT6NfgTdanABlqb5YdadXjInbBDgudk8CXaOCE1wcE9yJP6Ygi+mFpDwG4vjxeQwT/sCl9xCChJklQqDyR4bh2+FR2yPoUfADbg+OgGSZ0Zg+dEN6xyKowNw1VD8IrlsG3rT/E9Jr40ctsG7N67Qqm3huHzwJuiO8pqfDnwRakEn8EkSZLEHQNwyHBrj/lcK8OHz5OjAyR1JoOnRzeszaGwpA6X1uGEMXjSaoeHrJfLgFV0dfh4Bm+P7iix0xbA5xwCSpIkFdpPp8KsGXB7dMhEFP6DZ+aJm1LhNWGH6IYnchA8sOrwEGCfBOcCd6zt700OAFUCQ/A+4D3RHWWV4FUOASVJkgqpCXx8Gjxvf/hLdMxEleFD547RAZI6k8Gm0Q2TUYdfDsO76rDn+A8hPg7ct9rf4gBQpVCHd9A6HEc9kOBVo/BZh4CSJEmF8ZsaHFWHs/aF5dExk1GGD5wbRwdI6lhhD/IZgtE6nHUnPHm1w0N2XwSbRLdJ3TAEb0vwqeiOEnv1KFzoEFCSJCn3Lp0KM2bCf0eHtKOw33QDLIKpS/zALJVBNhe2OxjujQ5p16kwBlwFXNWA6Utar4VLhZdBSvDGBTAtwauie0rqNQ1YluCNmScwS5Ik5c2vErxlGL4THdKJQg/PlsCJ0Q2SumMKvDq6oVvq8FAdHovukLolgzQTXpvgy9EtZZXBGxrwmQRZdIskSZIAeDTBuYthv6IP/6DgA8AEz49ukNQ1z40OkLRuGTQfgVdmcHl0S1llcPoofDS6Q5IkqeKawMU12GsY3nUULI0O6oZCDwAzmBHdIKk7Euwd3SBp/Y6ClQlekuC70S0ldtaIQ0BJkqQIKzL4Ugb71eG0mXBPdFA3FXoAmGCn6AZJXbNldICkJ1aHFRvByRn8MLqlrDJ40yh8JLpDkiSpIh4FPt6E3YfgFUPwi+igXij0ADCDzaIbJHXNlOgASROzLyxPcHIq6AloRZDgzaNwXnSHJElSWSVoZHDGVNipDmfNgrujm3qp6APAQp9iLOlvLYRDoxskTUwdHlsGxwNzo1vKKsH/a8D7ozskSZJK5N6std3K/sMwPASf2h/+Eh3VD4UdACaY6kl5UrmMwcujGyRN3OGwGDgmQSO6pcTOacAHoyMkSZIK7BZaKyuOGILth+Atdfh5dFS/FfYNuoXw7OgGSd2VwTOjGyRNTh0easDzgTnAftE9JfXPDVhSh3+LDpEkScq5RzIYTTACzJ8C1xwAf4qOyoPCDgCbcEh0g6Su2z46QLlQiVfwAVLrDbrCq8P9c+HoQfgxsHN0T0md0YAH6nD+ZC9cCYkK/XcFUGtt5l1qtdZenJX4/2sGS/r8yEeAh/v8zFxIsLQfz6nBo6mi/4zVfRms7MFtH6IiX2MLpknr/zePAEsyuDfBXcBdCe4agDvugFtPhbHYTEmSJEmSJEmSJEmSJEmSJEmSJEmSJEmSJEmSJEmSJEmSJEmSJEmSJEmSJEmSJEmSJEmSJEmSJEmSJEmSJEmSJEmSJEmSJEmSJEmSJEmSJEmSJEmSJEmSJEmSJEmSJEmSJEmSJEmSJEmSJEmSJEmSJEmSJEmSJEmSJEmSJEmSJEmSJEmSJEmSJEmSJEmSJEmSJEmSJEmSJEmSJEmSJEmSJEmSJEmSJEmSJEmSJK3H/weBFBvY0QWXJAAAAABJRU5ErkJggg==;container=0;" parent="87" vertex="1">
                    <mxGeometry x="198.3886274509802" y="20.518515842134775" width="69.90567475638906" height="26.379499908071338" as="geometry"/>
                </mxCell>
                <mxCell id="33" value="" style="shape=image;verticalLabelPosition=bottom;labelBackgroundColor=default;verticalAlign=top;aspect=fixed;imageAspect=0;image=data:image/png,iVBORw0KGgoAAAANSUhEUgAAAgAAAAIACAMAAADDpiTIAAAC9FBMVEUAAAAAmAAAmQAAmAAAmQAAmQAAmQAAmgAAmQAAlwAAmQAAmQAAmgAAmQAAmQAAmQAAmQAAmQAAmAAAmQAAogAAmgAAmgAAmAAAmQAAmAAAmQAAkgAAmQAAmQAAmgAAmQAAmgAAmAAAqgAAmQAAmgAAmQAAmQAAmgAAlgAAmgAAmgAAmAAAmAAAmwAAgAAAmQAAmQAAmAAAmwAAmQAAmQAAmQAAmQAAmQAAmQAAkgAAlQAAmAAAmQAAmwAAmAAAmQAAmQAAmgAAgAAAmQAAmQAAmgAAmQAAjgAAmQAAmQAAmQAAmgAAqgAA/wAAmgAAmgAAmQAAmQAAmwAAlgAAmQAAlwAAmQAAnwAAmQAAmAAAmQAAmQAAmAAAmgAAmQAAmgAAmQAAmAAAmQAAmQAAmQAAmwAAmAAAmQAAmQAAmQAAmAAAmQAAmQAAlwAAmQAAmQAAlwAAlgAAmQAAmgAAmQAAmQAAmQAAmQAAmQAAmgAAmwAAmQAAmQAAmQAAnAAAmgAAlQAAmQAAngAAmQAAmwAAmAAAmgAAmAAAmQAAmQAAmAAAnAAAmQAAmQAAmAAAmQAAmQAAmQAAmAAAlAAAmQAAmQAAmQAAmQAAmQAAmQAAnQAAmAAAmQAAmQAAmQAAmgAAnwAAmQAAmgAAmAAAmQAAlQAAmAAAmQAAmAAAmQAAmQAAmQAAmQAAmAAAlwAAmQAAmQAAmQAAmAAAmQAAmQAAnAAAmQAAmgAAmQAAmQAAmQAAmgAAmwAAmQAAmQAAmgAAmAAAmgAAmQAAmwAAmQAAmQAAmAAAmQAAmAAAmQAAmQAAmQAAmQAAmgAAmAAAmAAAmQAAmQAAmAAAmQAAmgAAmgAAmQAAmAAAlwAAmQAAmgAAmgAAmAAAmQAAmgAAmQAAmQAAmAAAnQAAmQAAmgAAmQAAmQAAmQAAmgAAmQAAmQAAmgAAmQAAmgAAmAAAlwAAmQAAmAAAmAAAmAAAmQAAmgAAmQAAmgAAmQAAmgAAmQAAmQCf0VilAAAA+3RSTlMAJXu95Pn8v4IxClqr1/Ty1aVNBQtWplRGco4OS3aSloNhBoehqpNvIiZ0lZ9CBKz9xz3i0zx16+kHDIbuM6n60VsC7cU/yAlk9f6NAwGIYNz4LicZIKAI3i+JgFd52FH3RTfx2xwq5hSoPu8eG/OeOxHhsMrdrfajWCG0tuoSOh3wFb4XuESQUG45JGu7pKdfha4T++PladLGDcKKhOhTEHrJY9YYi85ey53UlJoWKNmZd5tsH8xlVbznNSmPwCuzMK847EE0jGhwI32yfllIcdBKf0xq4HwsLU5iQ2a1onhtGpHEw9rNl89nXQ+6XEDBUoFPc5yYR99Jt5TnVHoAABQMSURBVHja7d13nFbVncfxByOj0qUoig0UOzCKowygoyMJ+jBjiSAoSrCibEDBEhElaOwSJEhWRWNLNrFFAyaIxgi6xlBcosnGxLhEQyyxrtnqev9ZaXrLKb/fOXdmyOv1ef/7nHLv+X3nzlPPrVQAAAAAAAAAAAAAAAAAAAAAAAAAAAAAAAAAAAAAAAAAAAAAAAAAAAAAAAAAAAAAAAAAAAAAAAAAAAAAAAAAAAAAAAAAAAAAAAAAAAAAAAAAAAAAAAAAAAAAAAAAAAAAAAAAAAAAAAAAAAAAAAAAAAAAAAAAAAAAAAAAAAAAAAAAAAAAAAAAAAAAAAAAAAAAAAAAAAAAAADw96fdVl/aun3N1ttsu11ZI3bo2Klzl67dtu/eo63PzaZnrx26df3sCHfsYG3So/dOO++8U+8yT6HPLrvutvsefds5mvTrvede/ffeZ98SZ91v/wM6HbjtgIGWh/cdVJtsdtDBpczYa/DmAQ+pK/FEytPh0MM2H+GQfeqNTYYOG76xwfBhQ0ua9fAjGjZNeuRRjeYm9YcevanJiC+XNGvdVzaNeNiuI02PH3NsklId1RQ9Y/NxqQFrjtd0rT8hiXGi8BL21c7pXkeeZGiy3dZfNNi6lCtj06ia1KRfGm1qM6ZbqsnJY0uYtXHn1IjjTik2ODW/iIOiL3njM+NVT1N0PT2q/kkyoadklq9NzPbqekahyZlnpRucdWZ8JXr0z0569jnFNudOyjQ56Lz4Wc/PjNhlF8GKxyZgck12vH/4urjrlKmRAUguEMzSvX2+V5cLc02mTc82mD4tthL9LspPenG/fJvzLsk1OTI2AT0uzY34jdyZ1tUkRf0HBk222Yj8eJeJu14WW/8kmeGd5PKuxV5Dcit9QL7BAZGVqJ9ZnHSrfKMrCk0iE1Cof5JcOSvdoLFbYnJETAK+WRiuYba0azU+AFdd7ZvlW6Zu2ZBeMzH/+MRroiox8lrTofbJNrrO0CYqAYb6J8n16RY3WFbx/IgEDCsOd6OsZ+PF8fVPkvGeWW4y9qrenG4zp9hgTkQhKh2+bZw09/zYmMyIBBjrn0xMv6aZa1vFW8JfC4wojnaRrOe8MuqfHNbBPcsF5m7fSbeZX3x8fvCCVCo9tzHPeUSm1a0LjI2CE2Cuf5LsmGozzrqM2wcn4LvFwc4WdRz6j6UEILnNPc3t5l53pNucHXoORgvvtBxpdkzb5TgwAbb6J3elGk1MrOaGJuDE4lhXiTp+r5z6J2e7j7yLudfd6TZXhZ6DSZ8RtiOdmmk3x9YsKAHW+idzU61c63hZYAJMY0n6jflGSQFI7lEf32eqZZyDyb1fsR9ppuF91mYBCbDXP9lBGIDQ5wGhi9c/KcvFIQFIfG1C63+/40gzLb9vb/eDf9LWf759sB9KA5Cc3KicNmbxDi7hJeBmddrja7kA3Poj14Fmmn7Z0VB5DXD8/SfJA+IAJAeGJCBs8RofLK/+7lcdrRqAq490Hmim7cCjHS1V1wDX339Sk86SbyUfCkhA2OL1LbH+Se1JyuNrqQBc87D7QLOtH3E1VVwDnH//SX/JYsQkIGjxFk7yHorGj7eMAPjqnxvz0atcbcXXAOfff7LgMVUAkh83t0oA9iy1/s43blsvAFN+4jvOXIejnM+DjvS+yb2x/s6//2RX0WKkLNImIGTxLp8oOBKNPbaAAHzd/92GfJfFztaiBHjqn/tgTrKWjyv/C4Qs3qWSA9E4eqjq+FoiAIL6F8d0J0DwX8B9/U8uzX3UL1rMx3XXgIDFu7DEl4Cb/LStA/Az+9vsrjEjE6CsvywAyucB+sVrXFJq7TcYN1BzfPlj1J9DXrvvJgKGjlEJ0NZfGABdAvSL94Rt3qWS+Z409+3VpgE4aetEwtQ1IgHq+ksDoHomqF68hU9ZZl0imvXn5v8fD7ZlAB4TfrBp7BycAH39xQFIrpcnQL14d9kmPUM24UXm3rZvVbdCAJ6Wvqth7h6YgID6ywOQ/KLFArDviZYpnxFOuKzW2H15mwXg2cMSIcsAQQkIqb8iAPIEaBfvOduM/yyd0fxV0uqyNgrAds+LF9U2REACguqvCUCyc8sE4Je2+QaJV3xMe+MAD7VNAA53faYjHVOdgLD6qwKQjGqJADTZPi6rOVccgMruxhFONP72pqUD8MJwxZLah1EmILD+ugAkv2qBAKywTfaQaLKNRh9rHGJYGwTgwrMSBcdAqgSE1l8ZAFkCVCfax/YScKL850QVw+/bNhi+sNUDcHDXRMM1lCIBwfXXBiDzbaJSAjDKNpPw/80m08zX3ZWtHYDJyp+2OQcTJyC8/uoAZL5SXEIAVtleAk59VBWAymrjKIM1L31LCEBv7fda3cMJExBRf30AklNLDcCLtmn+RVf/ytC7jcOsadUA/Fr9obZnQFECYuofEIDkuBIDMMA2yZULfbPkvWQc52XDG5gtFoDf6L/U4BtSkICo+ocEIPltaQFout02h/DHhCljpxsHGtB6AfhX27+ziAD4ExBX/6AA+C7P8hP9nW2GV+orascYR7qi1QKwY0Oi5z8tTwJmx9Xfuhjub+j8vpwA3Gt9y3yevv6VgRNMI1X/0EoBWLMgcbsyLAC57VbyjnU+6q2/dTGatg9PgPhEf2Eb/pD4bYoiqYs1w1v/VwMD4LkGxNXf/tcQkQDpid7c3jb6H9uw9Lpz2Oy12sRtyKvhby6FJkBQf8flsGmuc/CtdGOa2s20jX2/+pvopVMW6xhf/e9eFvP2clgCJPV3/T9scu/Xc1/s4v2bdehftmHldeewyVpv/c9Vj5kRkgBR/Z1PiDwJOD1u8QYeYhv4T21Xd+U5bLLC953mp85Vj5mjT4Cs/u5nxE2vO6d4I2rx/mwbtlradrURNMXayVeLwTerxyzQJkBYf89Loqa9QhIgOtFp1peAO1S2AIpiHeqrxfRV6jENdAmQ1t/3mrjpZOc0i8MXbzfbmA03V7YA8mJ5CzN9X/WYYROF1N/7pkijMwHVG6Vj5ts8Zn3bbHfBUY+cNm3dvssOr7vuuu5LH1i7dp/F44877i+LXu/ff/m331zS7ZJLJg0vvit7ivP48scoLpa3LK9crg9VbALk9fcvhicBfw4MwBW2EY9dZz7Qny2e+9aS9aV1/oLa7knFOSuK9R3fvCfM1ofKZrzwXBX1FyxG4wWuuapzZGPmmpxhHXBP42Fe/lzsjwd30ZyzuFh3JR5vn6MeMzoBmvpLFqPxIdds1d8FBKD5Hdtww417Ms+L3j9sQrPqnGXFat458ZiwTjtmfAJU9RctRuPjrvmqK/QBmGEdzfi08o343w7fpjxnSbGad0s8Oo/WjhmfAF39RYtRaT7ANWPhGuAdr4f1h/OTTLu8dtRWu+jonspzFhSreW/frJ2zz2cEY/r5ngkq6y8LQKV5kWvO6hPKAPzUOtQKwyG2K2H/yGHac/avifu6uN4hua81+scU6PED55y259CRAag0/9U1a+0xuhO1Pql42xTfQYFFT2mYUnoAmg70TVrYz0Wwzv76z/fMertsHyFtACrNu7tmrX1NdaJjbN+dMn3hdFkJm4fMVZ+z7/Em750t3i3s6iZZ59j6qxMgWYyNCXA+46m+pzpR2zdBTK8Btg2peM7Pyw6AoP63ita69Pprd5WVLMamBDif89Qe7x4zO9Z5tp9Pfa8470H6eufdqT9n9+M9OvmmfNAQZdk6x9ZfvJucNgCV5utds9bO05zo7y2jdCmm96kk2g0lB6CftxDvzKoUCdc5tv66a4BkMWQJqHlfcaI9bTuoPFKYNeC71jmXNOnP2fV4/XLfjAd9IF3rlqi/6hogWYwvOLfz/DwBkvFsOwM3rMq3fEVTa6P8J1aSc3Y8Xv9i4jGiT8VEvs6R9ddcAySLkTLKNWtNR/mJNto2UZ+bb/lkEumq/I+MJOdsf3zkh74J37L8qkmxzpH1V1wDJIuR5vz0q+Yj+Yn+u2WM2vz3gfZRnbhB4SftknO2Pm65/VeKrf5RAVDWX34NkCxGhvPzr5oZ8hO1bO2VzMy1Wxf5JGDBmDIDMPRj33zbWO9dq1rnyPqLrwGSxcg6zjXrgl7iE93P9pWQ/O3LvR+5ud0SdM6Wx/u86ZvuSfs963TrHFl/aQIki5HjfCa4YKn4RG2vKd7MtZsl2nPVplq8XbbknM2Pf+B9U+JD4/3ZIwMQVH9hAiSLked8b65mjfREp9k2U+uea7hdzKdBL4ads/Fx1+2/NrrWUf/gAATWX/Y8QLIYBc77+zX8TTreSssIt+e3p/9NlyTYTeUF4NZ3Eo8/jdWudUvWX3QNkCxGkfMa0CAdr9/blhHez7d84e0k0LcCz9n0+Mu+yZa7f9SuX2dB/Ts7H/UnQLIYBv+hLYRxFNutUsf1y7esvy/wrrLXlRgAn4v6VZwC1tlb//k9xjsf9yZAVbCU3yoXxzyK5ZbKieG7xk0DVl4/d+Zbtw9WbcN3f+g5K09vQy089Q8KgLf+vm+J+RKgK1iK8qdK5kGetfyo0r1D0Mh1y+q6P7B2n/F/eX35m90muTbm+c/WC0CnoL0Y4uo/s95fCs8zweAAWD/QU41n+1rNav/8qUCMftWyO9/Dxt+Zt0gAjhjoPU79Ogv+/tcb72zlvgaEB8D/mzjBeOssz++VuwTuaJn1qOBzboH66wMg+vtfL+IaEBGAyv7xAbA+l9DtE2p5f/4Sc1VaIAC3COqvDoC4/jEJiAlA5b/iAzDSvLmbbqfgVZanEmvDz1lX/x0k9dcGQFH/iAREBUCRAOsQ8ywdNHuF/9A8xFOWt2VKD4Dw9rq6dVbVPzwBcQHw743gHc9203DF3QL6XWkeYqeIc9bU/7+FN9ZUrYuy/sEJiAyAZYNWzXjftHzt+1JxAI4yD/C87d6hJQdAfGNVzbqo6x+agNgAVFbKvrbvGMF2qjdJD+FOc3/rS8lyA7BIfGNdxboE7f8alIDoAPh3SPKNZ7tp2MfCA3jafABdp9k6lBqA/2mJ2+kF7v8bkoD4AFTekyTANcAoS5/esvktv1ixb2peZgD+2hI31Aze/zkgASUEoLJWkABXf9uWwS+LLq4jzfcKmTja2qPEAKjerpCuS8T+3/oElBEASQKc/W+0dDpNMvlr5r576woRFgDZTbSUAYja/12dgFICUHnCt1Ome7yB3cyd3pb81v1+Y9eGMfYepQVAcPscfQAi9//XJqCcAPj3ynV3/6Ol13v+mU8x97xAWYiQAHhvnRISgMj6qxNQUgC8CfB0t/zYYlIH78TmrStqXW8jlRQAbf1FAYiuvzYBZQWg8n13Ajy9T6kRrLhCf20h9AHw3TgnLADOrViE+7+4E7BkqPegggLguQb4ejt3IlNzbzdcSgDuq6gJ1sX9M6j5wv1/xjtHmdnsO6iwALjvmeDrfI3qm14+7v3GywiA+6Y5oQEY7fz6s3z/J/c1oFcLBaDS15EAb+fVZQagrqUDsH/I+vjX5ZFy6u+5BpzQ7Dmo0ABU1tj/k3v72r4YEOJjfSFUAaiurITwrkvTYY5Jdfu/Oa8BL7RUACrzasLH+6i8APxvywagqr+poSwAdaXV330N2MpzUOEBsN87y9+1+eKy6v+u5/35yAAYN8guJQCvlVd/5zVgUaqZ5d92beA5Vj6qCR7v4LICcI9nIstlqkYWgOqKSiBvAE4vsf6ua8CgVCvLL28Hh55kpZfxGvC8pKt36y2Zzr7PkAab+41Lt7Hej9GwObaU4Sn+1EwD22ciQfV3XAPSt2S409zkzpAJNzI+E5wg6bkqfj+o9R7wzWPZdObadJtPLINnt8TUMYz5SabBPaXW334N2DXVZld/Ey3T84C3RD0tX+7U+cS7WivMHeel2/Q3t6mZ5xvcwfB+94eZBo+a/zmF1t+agPSWCeuMv+Vt0G45nHFaMQGPiDre63oZJHWbf5qupn5DMj/tP95c//e9gzu8URzwjWyLZ8qtvyUBP8k0GWZqMixsus2WFhJwg6zjnPj6PzXWP43xpuVLM006HG2qf8eoZdmv8Iy7dr9siwEl19+cgBmZFmMfLrZ4WLCITvk7qQ/x/XB2E/MNwFUk79E3Xlvsl/8dgmFL+wWiL6g4FPY9H5RvcUTJ9Tcl4OPcq+Qphbs3nDAlbK6Ue7IJED9z7hhb//bXSKbpOSLfr3/+fuVNhf/YDUslQ7vcnPvf07Vwh7wO+U1oYutfTMD0ws8uZ9+RbXHH7Ng5P/N/6Zt7PSf+5nST+3YIfrfI5ll4fqZX9dTib7tm5TaEOfZr8asyI/NPoHZGscWt2acBj0fXv1J5KfPU8oSniy0Grk4ls+tq0e/cvJ7+4qtaD9XLu3WMDMBk6UR9U1uOPHyGqcUHmZ0MO/+hjFXplXqle2IvU4sev2r/eYvhwe85ZfT+4vVntdMsY5NZq9/d8L3O6rurZylHt2pe+uT654K1n9ZpekVeAg6RzzTyxhEb/h4bPuxou0DN+HwDns59hc9ifB77dPOQnz5mabJq0ZANDc7eo6xa1N+4ZEN5p3Zy/Nhm3eSOHSdHvformla3Zs05yj5xl4A5qrmurlsz48IPHA2atzv09bc+3OulZSUuSrvFlz3zzGWL2zmaND3bfd6v24lHlJgy4P2/nRn73L5VRF0CpvaJPwAAAAAAAAAAAAAAAAAAAAAAAAAAAAAAAAAAAAAAAAAAAAAAAAAAAAAAAAAAAAAAAAAAAAAAAAAAAAAAAAAAAAAAAAAAAAAAAAAAAAAAAAAAAAAAAAAAAAAAAAAAAAAAAAAAAAAAAAAAAAAAAAAAAAAAAAAAAAAAAAAAAAAAAAAAAAAAAAAAAAAAAAAAAAAAAAAAAAAAAAAAALYc/w9B2vy5e/yGwQAAAABJRU5ErkJggg==;container=0;" parent="87" vertex="1">
                    <mxGeometry width="67.41427754284896" height="67.41427754284896" as="geometry"/>
                </mxCell>
                <mxCell id="35" style="edgeStyle=none;html=1;exitX=1;exitY=0.5;exitDx=0;exitDy=0;entryX=0;entryY=0.5;entryDx=0;entryDy=0;fontSize=16;fontColor=#000000;strokeColor=#000000;" parent="87" source="33" target="31" edge="1">
                    <mxGeometry relative="1" as="geometry"/>
                </mxCell>
                <mxCell id="83" value="&lt;span style=&quot;&quot;&gt;&lt;span style=&quot;color: rgb(0, 0, 0); font-size: 13px;&quot;&gt;Upstream&lt;/span&gt;&lt;br style=&quot;color: rgb(0, 0, 0); font-size: 13px;&quot;&gt;&lt;span style=&quot;color: rgb(0, 0, 0); font-size: 13px;&quot;&gt;puma-socket&lt;/span&gt;&lt;/span&gt;" style="edgeLabel;html=1;align=center;verticalAlign=middle;resizable=0;points=[];fontSize=20;fontColor=#FFFFFF;labelBackgroundColor=none;" parent="35" vertex="1" connectable="0">
                    <mxGeometry x="0.0116" y="-1" relative="1" as="geometry">
                        <mxPoint as="offset"/>
                    </mxGeometry>
                </mxCell>
                <mxCell id="57" value="&lt;font style=&quot;font-size: 20px;&quot;&gt;ECR&lt;/font&gt;" style="outlineConnect=0;dashed=0;verticalLabelPosition=bottom;verticalAlign=top;align=center;html=1;shape=mxgraph.aws3.ecr;fillColor=#F58534;gradientColor=none;labelBackgroundColor=#FFFFFF;strokeColor=#000000;strokeWidth=1;fontSize=16;fontColor=#000000;" parent="50" vertex="1">
                    <mxGeometry x="1004" y="43" width="69" height="72" as="geometry"/>
                </mxCell>
                <mxCell id="59" value="" style="shape=image;verticalLabelPosition=bottom;labelBackgroundColor=default;verticalAlign=top;aspect=fixed;imageAspect=0;image=data:image/png,iVBORw0KGgoAAAANSUhEUgAAAeAAAADwCAMAAADvq0eIAAADAFBMVEVHcEyAgP9cTeZcTuRbT+VcTuVcTuVcTeVcTuZJSfpcTuVcTuZdTuVbTOdcTuVbTeVaUOZcTuZdTuZcTuVbTuVcTuVcTuZeTudcTuVcTuVaS+JcTuVcT+RdTeZcTuRbT+RcUOlcTeVWVNRcTuVdTuRbTuVcTudcTuZcTuVbTuZcT+VcTukAAP9dTeZbTeRdTeRcTuZdTuRcT+VcTuUAACdcTuVCQrRAQLJBQbNbTuVJSbY/P7I/P7JAQLJBQbI/P7NAQLNAQLJBQbNAQLM/P7JFRbRAQLE/P7JcTuVBQbM/P7JAQLRAQLJAQK9BQbJAQLJAQLI/P7M/P7I/P7NAQLNCQrU/P7JAQLNAQLFBQbRAQLI7O7FCQrBdTeVGRq5dUeZcTuVdT+VcTuVcTuVcTeUAAAAAAAAAAAAAAAAAAAAAAAAAAAAAAABcTuU/P7EAAAAAAAAAAAAAAAAAAAAAAAAAAAAAAABdTuYAAAAAAAAAAAAAAAAAAAAAAAAAAAAAAAAAAAAAAAAAAABbT+YAAAAAAAAAAABbT+RcTuUAAABcTuUAAABYUeIAAAAAAAAAAAAAAAAAAAAAAAAAAAAAAAAAAABcTuVcTeYAAAAAAAAAAABSUrhcTuYAAAAAAAAAAAAAAAAAAABcTeZcTuUAAAAAAAAAAABbT+RcTuUAAAAAAAAAAAAAAAAAAAAAAAAAAAAAAAAAAAAAAAAAAAAAAAAAAAAAAAAAAAAAAAAAAAAAAAAAAAAAAAAAAAAAAAAAAAAAAAAAAAAAAAAAAAAAAAAAAAAAAAAAAAAAAAAAAAAAAAAAAAAAAAAAAAAAAAAAAAAAAAAAAAAAAAAAAAAAAAAAAAAAAAAAAAAAAAAAAAAAAAAAAAAAAAAAAAAAAAAAAABcTuYAAAAAAAAAAAAAAAAAAAAAAAAAAAAAAAAAAAAAAAAAAABAQLMAAAA/P7M/P7I/P7EAAABcT+RBQbRAQLI/P7JAQLJAQK9AQLBAQLFAQLJFRbFbTeVZTeZaUOZcTeaI5NjtAAABAHRSTlMAAnqZE3//7m8D1UezIvmRDuVmzTr+qh/0gAjiXr8tohZ3BthKuyr67D2ICwHJOBnbVbz4AsUjs0rfDpH5/2bmPcweq/4JgPf8XuIvwBiid+9N2iq7E5n7b0fVDTpjFim4Td7yQy1EUVVBMCEEpEG07//4y5lmATRJ4uozOoD+xo9lpR0W9oNA0V7oPBEe/cGLiZG76RwmtRNvfAXwf6LsUI0xwifUJDbHVoaft5V0RQkQC1wONnKqbJRnBhUNsd3JnGGBxK53zsBYAytqp9oYuebyTlv7r/BA0Qd65CkSY9LXrSj0moe9R6l4TDToxd9V1tMb0OmIEES48hptKDOOd3KSpgAADCpJREFUeAHs2YVxRAEAAlFinLvL17hb/72lihizr4UdBf00AAAAAAAAAAAAAAAAAAAAAAAAAAAAAABwIkQ7PTtXMFy40+0JwYHt/kBIDmwPR0JyYI8nUwUjsD2bnygYge3FUkgO7NV6o2AEtre7vYIR2D4clYzAdlEqGYG9qmoFI7DdaVohOLB9eSUkB7avb4TkwL5lvcwObN9xJGYHthf3QnJge7gRkgN7+/AoBAe2Z8cnITiw/fwiJAf2qnoVggPb210rBAe2396VjMD2R6lkBPbnFzt3YRRBFARhuAwLgASOMtydPsc5xd3zDwGfEhzezr3erZ4UvtOZrX8oow/mCdhGX8QC1qQe2P9zekYwMYFnnVdbc/MLgokJvOi62lpaXkFkYAH7PZg3ky8AkYEF7LfaKpYACmABe6y2ypUqBMwB7LDaWl1bBwTMBNy9kVzhY2RzCxAwGXB3YoWP7R1AwFTANgMJFD5q9SoETAocXvjINZqAgHmBAwsfrTYgYGrgkMLH7h4gYG7ggMLH/sEhBMwNHFD46DtqAgLmBg4ofByfAALmBg4ofMzNAwLmB/5n4eN0eQUC5gf+V+HDjoIC5gf+X+HjrAQIOB3A/yh82FFQwKkEtsLHL46CAuYH/nPhw46CAk45sBU+Ph4FOwqsOe/3Av5Y+LioV9FpYM3llQPwh0OiHQUFHGGubzyArfBhX8ULbUDAcSbXe+sF3N09cfdyNaoAmQWeuX9k7y7g2kjTOI7/z93d3f0ue+7u7h87CxZuyQM0LQ0NVOCuFnyRxVbC4iQUd9u0uNe9UPf2XLNk3vczycxAmMy2E5rvR3H5oe8zeRIRGRUZHWOKhV596Gmv0Dow90d43P+5tRo4NirOTIL4hMR1FujT+vvCgdXYkEQ+NkKv3v+R1+kzsDU5ICbcDZts5CsF+vW+13xMj4GTKCCpuAs2k78t0LOtbwoHXo1taeQvHfr2pz+HAwcunSS2Q+ee8vod4cCBSiKJndC9Xe99YThwQHYTZ8/IzMrekpNLeQgBD+SHAwciihizFV4FFoSEPzw3HHhlhcQUIdQ8+OzicOCVlBATjdDz9Bd9Ux+BS7LFSokpy/ZRjjvuIWKMCEUPP6LDo8pHiXHgbkslpgKh6befWtOBw4Hx2re8ek0GDgfmPvSmV6zJwOHA3GOVIRI4r6q6pjYnJyeurr6hAD6cLq9G/rxFe+DR5PKKhZchutQFQWPznpbULa2eV9haU9eW3LhcYKuLgUhTdEt7XI5Ha1aHNRY+Ol1eTRB0FRbCo9u1xAnOVFXU3pPS29cfDZFY48Bgf1zC0OPuCgTr/a/fof/ATS17ScS+b3gE4Ny+w7ydPXZqh0evzwmys62XyAjAMjo2PmEnH/YE9ySYKVIwDaapLcNOIjOtswaAmyOvJCyJGZ+n/fDIoCX7sKTCPVVGXE4evKxZKWnE2BKbtBgk6jtwp/sA+XMkSwOXwePgEHn0iAOnA3C6N5LHBj5EkIhPj10p8CF4HT4yQxIT5dLAdicAa62NiBJEgeddwO50B/k6agJwLLOXfPU5EbQXvFLPgbsySMb8gCQwHYexlpbsFQduheHEUVqyDsB2UpDhWjYw/8475iBZ403+gckI07iNf/ezwFRlHZ8niT5DdJyNJEqhgT+c1G3gyVMky7ZdErgh0U5eG8WBD1kPiQe6zaQkJXb5wKfxBKuZFCQc9w88l8VC2jtFgc0kq5fk2KzQwHNe+m59Bh7JIAVpZ/wDLxBjc4oCz8cTUwOg20ZKjiwfeBEek9OkaMrgF3iBuN088Gr1QxO7XvRNPQYuJEVTPLBUBQ/sI2f5829z07KBzwKwnKNl1PPAEsmqA09boI31z9Ff4MMbSVmMcuCD8oEneEB5J5SezvNF03JmGhUDV6kOTCZoRX+Bh4krqz5oMpkastOIyVQOvEc+cJrwH+5CQmmWu6PqfERE1JHaeOIuwKMw8QmHiKl2C2IAXCCOkkovrhsrGp8mjjoUA7eoD7xhDQeeIibjOLxG+Tf1UYtCYHNJk2zghEvwMJ43WSBiSiFmAlwWMXkA1xVPTFnVCJZ0jqURs1ch8EJWgVxg87669r3kz35q/0OLvcRthpYeebIDf+Ny4IFHFkiQWwBmgJg82cBXChsBmcDndkLe8RkS2JpWCBxJvM2j4Mpt/BW45AKb3d2Af2D7VOGoBYBhkcTSxue64OHMIKbljl2Yp0Hgr/78ewg88Cgxm8A5eY/zMoHT0l2ATGDHrAVKSok5s0LgavnPehwxDdLA86nbAP/A0+5Jmau/yHGiCYJZYoru+DXy6gNfvQysIvCw7AWNKSQolAYunQRkApdtN0CZm5jmFQLXksB2HCJVxLglgeNMYHjghUInOMM8CY5WGcAZiSmB1h545ZMT+Nr192NVgcdkP8uPkyDdP7AjGpAJbEssCPA2DBErBE4gwQTETMRk+gVOugRIA9+AWDwJxiFyRvPAYn+4qX3gb3z9a8DqAh8hRlxonASpfoEXnZALnNaA5W0n5tIKgfnrTIFYIzH9voFbm6C7wPxoS9vAX/3+LWC1gatlA2/hn02/wOWQDXwFAQeeXSHwFRKcg9gIMRd8A2+G7gI/Jjra0jDw7S8CwQQ2i/BPSI3+ArfqPvCn+EJKvuEj+MB/+ZYBKgPLUx84HJgvpOQbPoIN/I2//g3QVeDGqKxzCb1XzIKFeyowX0jJN3wEGfgTHwd0Fdi1yIty91ZgvpCSb/hQH/jXfwf0FdiYRHTPBxYvpFx/n/rAP/zlg9BZ4LxpCgfmCyn5hg9VgX/xmZ8BegvcT+HAooWU/PRSReB//ATQKvCMWUadisDb4sOB5RZSbn3TagNf+xGgXeBHIUdF4O3EkX26d0nuvReYe/6rxBs+Ag/8z1++FboMXEdMTUUsvIYDDnyUBPsg1knMltAJzBdSvk9pkKgc+Ks//xcQfGBRu1GtAu8jgcMArDqww2eyz3UR0x46gbmXvP79ihs+eGDJUFCTwB3E7NQq8F4SLEJF4CESzIxAZCcxg6EUmPvAB6UbPpQDf5sPBYMOXEXMmFaB+WPT1QQuJSYZIpuI2R6SgT2nlx8SbfhQDMyHgloFPkZMhlaBJ0iQqiZwGzG1FnBducQcC7nA/J7t3ira8KEc+PtfBrQLbDiguITMEBOjKnACCfaDsRQFHLiZuNRYCLYNEXPAEHKBuQ9/RLzhQz7w7fuh3vJXVdrbHwUzeb6op4y2qAocR4K0Y1ji6nBQwIENvcQ5xo5ZgMPJ1WXEJSIEA3MffaNkwwcPzIeC2gY+QSJJU62trVMZvfG0ZEJV4EFiZhLr1xUt9sUTBR4YF0nMZp4hH8aQDMx982lP9x0kigN/lg8FNQzceIUU2VxqAp8neQEG7jpAy5hCiAbmnsVPL1/7lt/zwHwoqHlgnCBlDWoCjyQFFRibSdnCo6EbmHvb80QbPnhgPhTUOrDlNCk6oiYwSoILjBpSYptDaAeW3J3OY/d5A/OhoPaB4ZwiJT2qAjt7gwscW0ry4gcQ2oG5F/JB4nPWw+PWLXCaB0Znqp3kTagKDGsZ+bLXNAQSmDthJhkOK0I+MPeSlz4FEloH5qw9MomPJm44rC4wjIdIZKHUCCStJjAKssrIz43NsVgLgbmXvRzaKzjLFMLHZMf+aWJsR4fa50zgmt1MBcQ63II2+Bk5MWSnJUnjA93wiJS8BmMU44SUc0N7Au9iztlktUDkmJuJgdicW3ACYi1uwSxECtxM8p0MzL3ila/CHVVwJvl8VFRE85nD0MC25Nmo8815CIIhb2eEh/X/7di1VUUBFADBh7u7S4K7d/C7QFOawC3FSXDKog+8A9zumWlhsz1I/pWp7LeqratP/h2mst+uobE3IW7gF90JoQMvJgiMwAiMwAiMwAILLDACIzACIzACCyywwAiMwAiMwAj8dQRGYARGYATm/iR2YHa6i2MHZm8/eGAW8mMH5jj3JHZgMktSsQNzdh48MLNTsQNT31YbOzADLVWxA3N9EzswvY1bsQPTUzcSOzBF1cEDs3AbOzB55Z2xA7NTkoodmIeZ4IGZnYsdmPbc+diBGcioih2Yx7HYgekdmgof2L2MHZjllqrYgVnfiB2YtManJDaJk3gAAAAAAAAAAAAAAAAAAAAAngEzLWx85mlRzgAAAABJRU5ErkJggg==;" parent="50" vertex="1">
                    <mxGeometry x="1309" y="789" width="174" height="87" as="geometry"/>
                </mxCell>
                <mxCell id="18" value="&lt;font color=&quot;#000000&quot; style=&quot;font-size: 20px;&quot;&gt;VPC&lt;/font&gt;" style="points=[[0,0],[0.25,0],[0.5,0],[0.75,0],[1,0],[1,0.25],[1,0.5],[1,0.75],[1,1],[0.75,1],[0.5,1],[0.25,1],[0,1],[0,0.75],[0,0.5],[0,0.25]];outlineConnect=0;gradientColor=none;html=1;whiteSpace=wrap;fontSize=12;fontStyle=0;container=0;pointerEvents=0;collapsible=0;recursiveResize=0;shape=mxgraph.aws4.group;grIcon=mxgraph.aws4.group_vpc;strokeColor=#248814;fillColor=none;verticalAlign=top;align=left;spacingLeft=30;fontColor=#AAB7B8;dashed=0;strokeWidth=2;" parent="50" vertex="1">
                    <mxGeometry x="278" y="166" width="1134" height="616" as="geometry"/>
                </mxCell>
                <mxCell id="21" value="&lt;font style=&quot;font-size: 20px;&quot;&gt;Private subnet 1a&lt;/font&gt;" style="points=[[0,0],[0.25,0],[0.5,0],[0.75,0],[1,0],[1,0.25],[1,0.5],[1,0.75],[1,1],[0.75,1],[0.5,1],[0.25,1],[0,1],[0,0.75],[0,0.5],[0,0.25]];outlineConnect=0;gradientColor=none;html=1;whiteSpace=wrap;fontSize=12;fontStyle=0;container=1;pointerEvents=0;collapsible=0;recursiveResize=0;shape=mxgraph.aws4.group;grIcon=mxgraph.aws4.group_security_group;grStroke=0;strokeColor=#147EBA;fillColor=#E6F2F8;verticalAlign=top;align=left;spacingLeft=30;fontColor=#147EBA;dashed=0;strokeWidth=2;" parent="50" vertex="1">
                    <mxGeometry x="1109" y="303.66" width="255" height="189" as="geometry"/>
                </mxCell>
                <mxCell id="41" value="&lt;font style=&quot;font-size: 20px;&quot;&gt;RDS (MySQL)&lt;/font&gt;" style="sketch=0;points=[[0,0,0],[0.25,0,0],[0.5,0,0],[0.75,0,0],[1,0,0],[0,1,0],[0.25,1,0],[0.5,1,0],[0.75,1,0],[1,1,0],[0,0.25,0],[0,0.5,0],[0,0.75,0],[1,0.25,0],[1,0.5,0],[1,0.75,0]];outlineConnect=0;fontColor=#232F3E;gradientColor=#4D72F3;gradientDirection=north;fillColor=#3334B9;strokeColor=#ffffff;dashed=0;verticalLabelPosition=bottom;verticalAlign=top;align=center;html=1;fontSize=12;fontStyle=0;aspect=fixed;shape=mxgraph.aws4.resourceIcon;resIcon=mxgraph.aws4.rds;strokeWidth=1;" parent="21" vertex="1">
                    <mxGeometry x="92" y="55.5" width="78" height="78" as="geometry"/>
                </mxCell>
                <mxCell id="92" value="" style="group" parent="50" vertex="1" connectable="0">
                    <mxGeometry x="316" y="498" width="524" height="271" as="geometry"/>
                </mxCell>
                <mxCell id="93" value="" style="rounded=0;whiteSpace=wrap;html=1;strokeColor=#000000;strokeWidth=1;fontSize=16;fontColor=#000000;fillColor=none;movable=1;resizable=1;rotatable=1;deletable=1;editable=1;connectable=1;container=0;" parent="92" vertex="1">
                    <mxGeometry x="92.78" y="140" width="338.42" height="61" as="geometry"/>
                </mxCell>
                <mxCell id="94" value="&lt;font style=&quot;font-size: 20px;&quot;&gt;Public subnet 1c&lt;/font&gt;" style="points=[[0,0],[0.25,0],[0.5,0],[0.75,0],[1,0],[1,0.25],[1,0.5],[1,0.75],[1,1],[0.75,1],[0.5,1],[0.25,1],[0,1],[0,0.75],[0,0.5],[0,0.25]];outlineConnect=0;gradientColor=none;html=1;whiteSpace=wrap;fontSize=12;fontStyle=0;container=0;pointerEvents=0;collapsible=0;recursiveResize=0;shape=mxgraph.aws4.group;grIcon=mxgraph.aws4.group_security_group;grStroke=0;strokeColor=#248814;fillColor=#E9F3E6;verticalAlign=top;align=left;spacingLeft=30;fontColor=#248814;dashed=0;strokeWidth=2;" parent="92" vertex="1">
                    <mxGeometry width="524" height="271" as="geometry"/>
                </mxCell>
                <mxCell id="95" value="" style="rounded=0;whiteSpace=wrap;html=1;strokeColor=#d86515;strokeWidth=2;fontSize=16;fontColor=#000000;fillColor=none;container=0;" parent="92" vertex="1">
                    <mxGeometry x="38.81" y="45.51" width="448.19" height="217.49" as="geometry"/>
                </mxCell>
                <mxCell id="96" value="" style="rounded=0;whiteSpace=wrap;html=1;strokeColor=none;strokeWidth=1;fontSize=13;fontColor=#000000;fillColor=#FFFFFF;container=0;" parent="92" vertex="1">
                    <mxGeometry x="70.63" y="88.33999999999992" width="382.73" height="165.66" as="geometry"/>
                </mxCell>
                <mxCell id="97" value="タスク" style="text;html=1;strokeColor=none;fillColor=none;align=center;verticalAlign=middle;whiteSpace=wrap;rounded=0;strokeWidth=1;fontSize=20;fontColor=#000000;container=0;" parent="92" vertex="1">
                    <mxGeometry x="220.75925925925924" y="76.29571984435802" width="72.77777777777779" height="40.15564202334631" as="geometry"/>
                </mxCell>
                <mxCell id="98" value="" style="rounded=0;whiteSpace=wrap;html=1;labelBackgroundColor=none;strokeColor=#0d0c0c;strokeWidth=1;fontSize=20;fontColor=#FFFFFF;fillColor=none;" parent="92" vertex="1">
                    <mxGeometry x="88.5" y="130.30999999999995" width="347" height="115.69" as="geometry"/>
                </mxCell>
                <mxCell id="99" value="" style="sketch=0;aspect=fixed;html=1;points=[];align=center;image;fontSize=12;image=img/lib/mscae/Docker.svg;strokeColor=#d86515;strokeWidth=2;fontColor=#000000;fillColor=none;container=0;" parent="92" vertex="1">
                    <mxGeometry x="405.1008496732029" y="214.43028349082823" width="48.25982955404385" height="39.569249862107014" as="geometry"/>
                </mxCell>
                <mxCell id="100" value="" style="group" parent="92" vertex="1" connectable="0">
                    <mxGeometry x="38.81481481481478" y="43.82906719949506" width="173.46817901234567" height="36" as="geometry"/>
                </mxCell>
                <mxCell id="101" value="&lt;font style=&quot;font-size: 20px;&quot;&gt;ECS (Fargate)&lt;/font&gt;" style="text;html=1;align=center;verticalAlign=middle;resizable=0;points=[];autosize=1;strokeColor=none;fillColor=none;fontSize=16;fontColor=#000000;container=0;" parent="100" vertex="1">
                    <mxGeometry x="26.468179012345672" width="147" height="36" as="geometry"/>
                </mxCell>
                <mxCell id="102" value="" style="sketch=0;points=[[0,0,0],[0.25,0,0],[0.5,0,0],[0.75,0,0],[1,0,0],[0,1,0],[0.25,1,0],[0.5,1,0],[0.75,1,0],[1,1,0],[0,0.25,0],[0,0.5,0],[0,0.75,0],[1,0.25,0],[1,0.5,0],[1,0.75,0]];outlineConnect=0;fontColor=#232F3E;gradientColor=#F78E04;gradientDirection=north;fillColor=#D05C17;strokeColor=#ffffff;dashed=0;verticalLabelPosition=bottom;verticalAlign=top;align=center;html=1;fontSize=12;fontStyle=0;aspect=fixed;shape=mxgraph.aws4.resourceIcon;resIcon=mxgraph.aws4.fargate;strokeWidth=2;container=0;" parent="100" vertex="1">
                    <mxGeometry y="1.6806604269640957" width="30.60790790790791" height="30.60790790790791" as="geometry"/>
                </mxCell>
                <mxCell id="103" value="" style="group" parent="92" vertex="1" connectable="0">
                    <mxGeometry x="125.84849673202618" y="147.01563964107052" width="268.29430220736924" height="67.41427754284905" as="geometry"/>
                </mxCell>
                <mxCell id="104" value="" style="shape=image;verticalLabelPosition=bottom;labelBackgroundColor=default;verticalAlign=top;aspect=fixed;imageAspect=0;image=data:image/png,iVBORw0KGgoAAAANSUhEUgAABQAAAAHjCAYAAAB8e7LIAAAABmJLR0QA/wD/AP+gvaeTAAAgAElEQVR4nOzdd5zcVb3/8deZ2U2DFAmIVCkSgVCS3dkkIC1cmogoUgQV9IrYQL1e0atiQVSwoVe9onIRf6KIAiIqxcI1iIBJdmYDxIC00FGkBQgJye7O+f3xXTRgymannCmv5+ORxya7s+fzTjIz+53PnAKSJEmSJEmSJEmSJEmSJEmSJEmSJEmSJEmSJEmSJEmSJEmSJEmSJEmSJEmSJEmSJEmSJEmSJEmSJEmSJEmSJEmSJEmSJEmSJEmSJEmSJEmSJEmSJEmSJEmSJEmSJEmSJEmSJEmSJEmSJEmSJEmSJEmSJEmSJEmSJEmSJEmSJEmSJEmSJEmSJEmSJEmSJEmSJEmSJEmSJEmSJEmSJEmSJEmSJEmSJEmSJEmSJEmSJEmSJEmSJEmSJEmSJEmSJEmSJEmS9GIhdQBJUmO6EcbmYPIomDwImwAb52BChPHAOGCDAJOGfj8OmLjKt3dG2HCVP/+wAF+vX3pJkiRJ0vM6UgeQJNVXESaWYcscbBFg8whbD33cAtiMrNk3GdgAoMw/3y2KLxrrxX9ei3HYAJQkSZKkJJwBKEltpATHRPhpitpl2GUGLEpRW5IkSZLaWS51AElS/YyBq4DnUtTOw1Ep6kqSJElSu7MBKEltZCosBa5JUTvCkSnqSpIkSVK7swEoSW0mwGWJSu9ahB0T1ZYkSZKktmUDUJLazAD8MvtQf84ClCRJkqT6swEoSW1mJjwe4Q8pagcbgJIkSZJUdzYAJakNJVwGPL0I2yeqLUmSJEltyQagJLWhctYALKeo7TJgSZIkSaovG4CS1IZmwN8CzE1R22XAkiRJklRfNgAlqU3FdMuAe/rg5YlqS5IkSVLbsQEoSW0qDz8DYoLSoewsQEmSJEmqGxuAktSmpsO9wIIUtV0GLEmSJEn1YwNQktpYqmXAEfaYD1ulqC1JkiRJ7cYGoCS1sTJckqh0yMERiWpLkiRJUluxAShJbWwm3AHclqJ2dBmwJEmSJNWFDUBJanMh0TLgAHv1weYpakuSJElSO7EBKEltLtU+gECuDK9PVFtVUoJZRdgsdQ5JkiRJaxZSB5AkpVeExcC2L/p0P/Do0K+nn/8V4OkIS4CnIjyXg2fLMBiyrxPhyecHiPBUHsprqhvgsS64r9p/H9VPEX5O1si9NcIlOfhVF/QFiKmzSZIkScrYAJQkUYL9gY0D/C3CowPw95nweOpcanxF+D0w+0Wfvi/Cb3JwxRj4zVRYmSKbJEmSpIwNQEmSNGJF6AOmr+UmzwJzIlzSAb+cns0elSRJklRHNgAlSdKIFeEuYPth3rw/wnUBLh2ES5xlKkmSJNWHDUBJkjRixayJt9EIvnUwwJwy/HAcXDYVllY7myRJkqSMDUBJkjQiEUIp29+vo8KhlgNXBPhhhF8XsgNoJEmSJFWJDUBJkjQii2DD5fBMlYd9BPhpGc6dAYuqPLYkSZLUlmwASpKkEZkLW3bAAzUsUYrwjQAXOStQkiRJGrlc6gCSJKk55WBijUt0B/gBcG8JPl2EzWpcT5IkSWpJNgAlSdKIBJhUp1KbRzgduLcXvnsTbFGnupIkSVJLsAEoSZJGqtYzAF9sVIB3DsBdvfD2OteWJEmSmpYNQEkVKcFhvfDK1Dkk1V8dZwC+2JgcbJeotiRJktR0OlIHkNScSjArwlkR9gsw92LY6xgYTJ1L9XUj7JiH7TthqzJsXobNcjA5wqgIHfmhBlEZNgjQGbI3njYY+txzYQ0HO0SIOXhq6I9PlKEMPBFhRQ6W5OGRfnigE26fBguD971UJqQqXIanU9WWJEmSmo0NQEnrpQ92LsPpEY5e5dOztoOTgW+kyqXK3QHbPQn752EnYNsIWwWYTNbkGUu2/DIfV3OCfHno4/PTysPQr7jKn1nlz6t+bnVW/d5Vb/v8x8GhWoNACSj+8+sxZnEGhpqFS8vwBPBoHh7oh1vHwi15mDc1+7wqk2oGIPyzQSxJkiRpHWwAShqWImwd4bQynAjkV3OTs4pwZQHurnc2rdsc2HAivKEMewA7AlsDLyGbjdcJhKd54X/s6hp0cTWfayRDzck8kA8wOsKEAJtD1hXMAyuHblsEApTLsDLAUuDRMtyfg4X98MdZ8Ovwz5tr9eq9B+CqbABKkiRJw2QDUNJaFWFj4FTgAwHGrOWm44BzIxwQGr9P1LKKMHEQDu2A10WYFmCLmP3f5Mrr/O72EyE3dL8eA2ycy2Y/HtwJp5aAUnZfHijDswEeiXBXgHkT4MIpsDhp+MaQbAZgDp5MVVuSJElqNmtbgSWpjS2CDZdny3o/znrs8xXhxB44v3bJ9LwbYdfRcEqE2UPLdUfj83rdDC037o/weMhmvv4xBz/qgltTZ6uXIvwYOC5F7Rzs2QV/SlFbkiRJaja+UJT0Aotg1DI4OWSNv41HMMSSHEztgoerna2dzYUtO+H9ZTgkZKefjsPn8IYVssbgExFuC3AFcF6hBZesFuFK4NAUtYeeZ9qm2SpJkiRVwhePkv6hBK+N8DVg+wqHuqIAr61GpnZ1G0xZBp8C9o+wKf88X0NNKkA5wtIA95XhumXw9X3hztS5KlGCGyLsmaJ2B2w5DR5KUVuSJElqNjYAJVGCncrw1QCHVGvMAMd2w0+rNV6rGzpk5dQAryE7oMM9WtvA0H6Zz8ZsP8FrBuBLs+CR1LmGqwiLgJ0Tld+gAMsS1ZYkSZKaig1AqY3Ng8n5bJbZyaz+ZN9KPNYJU3eHv1d53JYQoaMEHwPeDmxF9f/91bwGgScD9HbCN3eDq1MHWpM+2KcMJwBHUt8DQQYK2enVkiRJkobBBqDUhorZC+f3Ap8BJtaw1I8L8OYajt9Uhvbx+2wZXhtgcuo8ah4RlodsufCl3fDFACtTZ1rVnTD6aTgIODrCG4ANalzysQJsUuMakiRJUsuwASi1mSru8zcsEV7fA7+oR61G1Asn5OBDEXbCGUuqnpUR7oxwYQ+c3UgNwbkwoRPeEOFNwP7UZnbr4kKdnsMkSZKkVmADUGoTvTA9B1+LsG+dSz+ch6nTYUmd6yYzD96Ug08GmIKHd6gOhk4dXgxc2A1nhmwZcXLzYHIHHBmzZcJ7Ur3rjr4CdFdpLEmSJKnl2QCUWtwi2PA5+HqEt5GoGRXh3B54V4ra9bIA3jQInw7wimjTT+k9G6G3H07fE/6QOgxAKXtsvAk4DtixwuHmFLLZhZIkSZKGwQag1OIi5IowJ8A+KWNEOLgHfpcwQ9XNg6Pz2T6Kr8SmnxpUyB5/j0a4fAKc9kp4LHWmInQFeEuE44GNRzDE5QU4otq5JEmSpFZlA1BqA/NgSh5uAsYmjHHvWNh1KixNmKFic2GHDjg/wh7Bk3vVhAKsKMPNo+H01CcML4JRz8HrI5wIHMDwG+k/KGSzmiVJkiQNgzNWpDYwE+4I8OnEMbZ5Ds5InGFEhmZRnlWCJzrgDmAvm39qVhFGB5ixEq4qQrkEDxXh7JjgPj0VVnbDxQU4uAO2Bj4K3DOMb22bPUUlSZKkanAGoNQmIuT64I8x24g/lXKEfXrghoQZhq0IRwNfBLbB50u1gQhLAlw1AP85Cx5JkeFiyG8LB+XgxAiHs/rTs88opH9TQ5IkSWoavqCV2kgx23h/ATAmYYy/PAPTZ8NzCTOs0e9g4iT4MXBQgI7UeaRUIiwLcO0EeN+U7IThursZXtqfnSB8Ii88OOTUApydIpMkSZLUjFwCLLWRAvwFODNxjB3Hw2mJM/yLEhxchLtfks2AOtTmn9pdgHHAoU/D3SVYWYSbb4K96plhd/h7Ab5SgJ0CFCKcCyyN8GQ9c0iSJEnNzhmAUpuZAx3jYS7QnTDGADCzAH0JMxAhtwC+Xs5mF6U8IEVqJisDzI1wSgEW1rt4ESYC4wrw13rXliRJkpqVDUCpDfXC9ADzWP3eWnURoViAmQHK9a69ELZaARcE2Cc6E1qqxIoIf1oG79wX7kwdRpIkSdLq+cJXakM92T6AX0xVP8A1Ed5b7+ZfCY4owSMr4H5gP5t/UsVGB9hvA7ijCM8W4bJFsFHqUJIkSZJeyBmAUptaBKOWQwnYpY5l5wY4rRt+X8ealOCDET4FTKpnXaldDZ0mfH4BPpQ6iyRJkiQbgFJb64UZAW4E8jUu9WfgjAJcUuM6/xAhV4Jvke3vl2yps9TmYoT7O+AD0+EXqcNIkiRJ7coGoNTmivBl4NQaDX8/8LFuuChArFGNF7gbJj4JPw5wiEt8pcYRoL8MN0Q4YQY8kDqPJEmS1E5sAEpt7k4Y/VS2J+BOVRz22Qhf6Ycv7gnLqzjuGt0MW66Eq0N9lzRLGoEITwT4ViFbmi9JkiSpxmwASqIP9ijD9VQ+Y64c4MJB+MgM+Fs1sq1LETaLcHmAGfWoJ6mqYoT7c/Cf3XBZ6jCSJElSq7IBKAmAEnwzwikVDHFtgA90wy1VC7UWN8D2o+EKYMd61JNUcyuBS7vh30P2e0mSJElVYgNQEgBFGEfWvNt+Pb/1bxH+qwA/rMc+f33w8jL8Etit1rUk1d/Qk8h9nfCWadnMZEmSJEkVsgEo6R+KMBv4P4b33DAAnDMAn5wFT9c2GdwEUwbgSuAVta4lqWE8OwjnzISPpA4iSZIkNTMbgJJeoAjnAiet42Z/BE4uwMJa57kHJj0GvwqwV61rSWpYEVg4AY6YAotTh5EkSZKajQ1ASS8wFyZ0wJ+BrVbz5bot910Eo5bBRTk4IvpcJWlIhCUBPleAs1NnkSRJkpqFL6ol/YteeHWAq1b5VDnCeQE+UoCnalk7Qq4E3wlwYqz8VGJJrascoLcfXjcLHkkdRpIkSWpkNgAlrVYRfgCcEKB3EE6eAb21rlmCr5XhfQHyta4lqXUEuGsZHLs3lFJnkSRJkhqRDUBJq3UjbDQaDu2CC2u93LcEH4zwBWBULetIanmPD8L7ZsJFqYNIkiRJjcQGoKRkFsH05XA1sGnqLJJaygrgmwX4cOogkiRJUiOwASip7u6GiU/C/wHdqbNIamnlCNfdA4ceA8tTh5EkSZJSsQEoqW6GDvj4YYDjPNlXUr0EiBEW5uF10+He1HkkSZKkevMFuKS6KMI7gP8BRqfOIqmtPTYKTtgt235AkiRJags2ACXV1A2wx2i4AtgodRZJWsWSAKd0w4Wpg0iSJEm1ZgNQUk0UoZOs8XdQ6iyStCYRlufhP7vgO6mzSJIkSbWSSx1AUutZAKfGbMN9m3+SGlqAsWX4dhGeK8HHU+eRJEmSasEZgJKqpg92LsPvgU1TZ5GkEVoxCF+YCaenDiJJkiRViw1ASRWbAx3j4Uqc8SepRQToj/CVgrMCJUmS1AJsAEqqyAJ4xyCcQ7bnnyS1msEyfH8GnJQ6iCRJkjRSNgAljUgRNss+sHnqLJJUaxEGIvw/G4GSJElqRh4CImm9FeELwEPY/JPUJgJ05OAdvTBQgm+lziNJkiStD2cAShq2eTClA66PsEnqLJKUUoD+AJ/rgjNSZ5EkSZLWxQagpHWKEEpwPvC21FkkqcGsAE4rwNmpg0iSJElrYgNQ0loVoSvA7yNMTJ1FkhpVhOU5OKkbLkydRZIkSXoxG4CSVitCbgFcNgiv84lCkoYnwpJOeOM0+G3qLJIkSdLzfF0v6V/0wn4Bfg2MTp1FkppRgIeXweF7Qyl1FkmSJMkGoKR/iBD64PIIh6fOIkktYvEEOHAKLE4dRJIkSe3LBqAkAHphF+CGABNSZ5GkFnTLYph1DCxPHUSSJEntJ5c6gKT05sM5wEKbf5JUM7ttB8/2whWpg0iSJKn9OANQamPzYasc9AKbps4iSe0iQH8OPj4dvpI6iyRJktqDDUCpTRXhM8An8XlAkpIIsLQMR/TANamzSJIkqbX5wl9qM0WYCCwEtkqdRZIEwD152H863Js6iCRJklqTewBKbaQPjorwODb/JKmRbDsI95Rg7sUwNnUYSZIktR5nAEptIEKuCFcEeHXqLJKktSqX4fwZcFLqIJIkSWodNgClFjd00MdNwEaps0iShm1FGd46A36aOogkSZKanw1AqYWV4IMRzsbHuiQ1pQAPj4e9p8Di1FkkSZLUvGwKSC2oCJ1luC4Hs1JnkSRVLsK1PTA7dQ5JkiQ1Jw8BkVrMXNgrwDM2/ySpdQTYrwQrF8B7U2eRJElS83EGoNRCivBZ4BOpc0iSauqxHOzbBbemDiJJkqTmYANQagF3wuglUAywS+oskqS6uaUbegKsTB1EkiRJjc0lwFKTmw/TnoIlNv8kqe3sVoJlffCp1EEkSZLU2JwBKDWxIpwa4EvRx7IktbUASwdh/xnQmzqLJEmSGo9NA6kJXQz5bWBODvZOnUWS1Dg8LViSJEmrYwNQajLzYas8LIwwMXUWSVJDGhiE98yE81IHkSRJUmOwASg1kRK8M8J38LErSVqHAHeNgZlT4YnUWSRJkpSWh4BITaIIP4rwXWz+SZKGIcIrlsNjpexnhyRJktqYjQSpwc2BMeNhEbBd6iySGkeAGKEcoAwMRChH6A+wAhgAlgLPBXiuDI8NZ8wcjAbGAxOAscCoMozLQUeEfICOMuRyEKJvIjaVAE8NwoEeEiJJktSebABKDawXXpmDBTF7IS6pxUUgwCBZE+8Z4IkIjwR4CLh9EPo2gvk7wKNJg66iCLsG2CMHOw/CDhE2DzA5wIQIY4AOIJ86pzIB/tAF/zZ0P5MkSVKbsAEoNagivBX4Pj5OpVYTgRUBni7Dwzn4ywDcGODyGfBA6nC1Mhc2DXDM0OnlOwGbhWy2YSc+z9VVhIEynDATLkqdRZIkSfXhBbfUgHrhggDHp84haeSGluiuBB4HFuXht6PgfA9k+FcXw9hXwmsG4MAyTAuwPdlJ5x2ps7WyCH++B2YcA8tTZ5EkSVJt2QCUGsidMPopuAnYMXUWSeslBni2DHcFuHoCnDcFFqcO1QrmwxsDHBWgC9iMbFmx1y/VM5iH90+Hc1IHkSRJUu14AS01iD/BNp3wZ2CD1FkkrdOKCA8C1wb4egEWpg7UTu6A7ZbBSf2wfy7bd3ASXtNUJMLiAF0FeCp1FkmSJFWfF8tSA5gH++fht7hRvtRwYvZheYA7gUu74UwPUGg8d8B2T8PJwGuAbchONNb6iYNwxkw4PXUQSZIkVZcNQCmxInw0wlk+GKXGMNTwWwYsysF53XBu0kAakTmw4QR4fxmODjAFGJc6U7MI8HA/dM2CR1JnkSRJUnXYc5AS6oVLAhyVOockygHuH4AfzMhm+K1MHUjV9yc4vANODjCT7JARrVkEvlaAD6UOIkmSpMrZAJQSKEJngJsi7Jw6i9TGlkWY1wGfmA43pg6j+uuDd0d4L/DKCKNS52lQj5WhawY8kDqIJEmSRs4GoFRnt8HkpXB7gMmps0jtJsBS4Mox8N6p8ETqPGocc2DD8fCZAMdGeBmQS52pUQSIOfjGdPiP1FkkSZI0MjYApToqQTfwpwidqbNI7SACAR6LcNE98F/HwPLUmdQceuGAHHwyZs/bns6eeWgiTN8BHk0dRJIkSevHBqBUJ/PhbXk4P/q4k+rhSeD73fAx9/NTpS6GsdvD5yO8CXgp7f08HgfhYzPhi6mDSJIkafja+QJWqpte+FKAD6fOIbW45RGuHAfvcnlvfZRgJ+BtER4N8BjweIDH+uHxQXhszxb9f+iFDwKnBNiGNl0qHGHxUth9drasXpIkSQ3OBqBUYyW4NMKRqXNILWowwrw8nNQFt6YO025KcESEy9Zyk5XAw8CDwP0BHozwUIT78vDQc7C42ZuEN8NRA3AG2UEi7dYMLAd4TzecmzqIJEmS1s4GoFQjEUIpO1l0VuosUquJsKQDPj8dvpI6SzvrhRMDnFfhME8Ci5//FeHWHCxaDnfsBc9UnrJ+FsDrBrNm4FQgnzpPHd2+GKa7x6YkSVLjsgEo1cAcGDMe7gC2Sp1FaiH9Aa6ZAG/1EILGUIQPUdsm7F+BUoRSgEVluLUHbg3Z+S4NrRdOCHA62TLhdrjeGgjwxu61zwiVJElSIu1wQSrV1W0weSncHWBi6ixSKwiwNMJpBfhG6ix6oWI22+2TdS77JLAgwHe74eI61x6RefC+DvhohM1TZ6mD3xfg31KHkCRJ0gu12141Uk31wiuXwcM2/6SquH05FLphvM2/xhTgJQnKvgTYP8IuCWqPyEz4Zjds8QyMBy4ElqXOVEP7F+GZG2HH1EEkSZL0TzYApSq5BfYNcGuEUamzSE2sHOFaYFIBdtwbSqkDac3KMClh+SUJa4/IbFhagLcUYIMcTA0wDxhMnasGNuyE2xbAf6cOIkmSpIwNQKkK5sLb+2EOPqakkVqag08XIN8DswvwVOpAi2zmD0ey2c6xCRuAq+qCW7thVgE6yvBx4PHUmaopAIPwgSLcNwc2TJ1HkiSp3dmskCrUBx/tgO9F99SURuLBCAcWYHxXtp9cUjfCRkU4ugQXLIe/F2Gz1JkaWaIlwADksr0AW8IMOKsAGw/Ay4DfAQOpM1XR1uNhSQnenDqIJElSO7MBqKopQXcRzmmnWTNF+HIZzkqdQ2o2Ee4DdivAVj1wTcos82DbEvxHEeaMgr8DF0c4nmx22+tTZmsCKZcAJ58lWm2z4JECHFSAzkE4KcDDqTNVST7Cj4pwc+ogkiRJ7coZS6qKXpgR4DdkLwbn5OEN05t8eda6lOCHEd6SOofULGL2YUEeDutK3NiYB9t2wHERjgamreWmcwqwf71yNZsiPABsmaJ2hK4eWJCidj0tgG0G4McBZtICb9xGWB5gZgEWps4iSZLUTmwAqmJ9UCjDb3nhUrBbc3BoVzbLp+WU4OoIh6TOITWJGOCPEQ5PubffPJjcAUdGOAHYk+H9DCwDWxbgr7VN15yKsBTYIEXtPGw7He5NUTuVEnwuwn+Q6N+8WkL2fsCZ3fCJ1FkkSZLahQ1AVaQIewFXAeNX8+W/AocVoK++qWonQijCvAA9qbNIjS5AuQxXFuCoACtTZJgLEzrhSOBNEWYD+REM894CfLvK0ZreHOgYn/2/JrmWGAUb7dZC+wCuj5vgoAE4L8JWzXwhF+C2Ltg1tOZJyJIkSQ2lma8bldg6mn/PezbAsd1wRZ1i1czFkN8eFkbYKXUWqcHFCFcV4HWpXtiXoLsM7wzwJio/gdRlwKvRB5uUsz0TUyh3Q2fIZmi2rUWw0TK4IGQz0kfS3G4E/REOTb0XqCRJUquzAagR6YN9ynAlw3thPQi8vwDn1DhWzcyBMePhbmDz1FmkBlYGflJIdNrnfHhZDt4InAjsWsWhXQa8Ggtgh0G4I1H5JwuwUaLaDakX/ifASTTvQVzfKcB7UoeQJElqVU2/mbTqrxcOLMPVDH9WTR74VhHOjE3YdL4ZNhifHVhg809ajQiDObigAPl6N/+GluUfVIJf5LIDKf6b6jb/IPtZ6WnALxKzU5JTaelDpkaiB04pwOg8nBya84Tkdxfh/jmVz9iVJEnSatgA1HopwcEBfgGMG8G3f6wEF8+BMdXOVSvXw/j+rPn3knXeWGozITvc4//1QEcXvLWeta+H8SV4Zyk7SfQ3EQ4HOmpY8ugajt2Uymln4LXl3n/DMR3O6YZJEQ4k8WnbI7DVeHjyT9njWZIkSVVkA1DDVoTXxKz5N7aCYY6aAL++pQkaakWYOAYeAiakziI1oJufhgnd8O/1LNoL2/XC/4yBhyJ8F5hap9L7zIVN61SrKcS0z43NOMOtrnrgmgJs8SxMibAodZ710NEJv+iFC1IHkSRJaiU2ADUsvXAocCkwutKxIuy7EuaX4BWVJ6uNRbBRyJp/azvgRGo7AZZ2wN4FmDYblta7fg52D3Ay9X9s5jvgDXWu2dByCWcABngiVe1msy/c2QO7jIXJEa4FYupMwxHg+CI86pJgSZKk6rABqHUqwWEBLqO6S3dfEeGPfVCo4phVcRtMXg4PRNggdRapgQzk4cPdMH4aXJ8qxNPZ/qNPJyrvMuBVlGFSqtrRPQDX21R4ogdmd8OYmB3i1QyNwI3Hw5O9cEDqIJIkSc2u6Q5kUH0Vsxe8FwKdNSrxbIBju+GKGo2/XhbCpivgXppon0KpDq4qwGtSh3heEX4MHJeg9OAAbDELHklQu+HMgTFjYWIHbBhgUhnG52B8GTbMZTM0N47ZsunNyA5R2mzoVyXbSDzv7AKcWoVx2laEUUW4NJdt79Hwbwjn4evT4T9S55AkSWpWNgC1RiV4Q4SfUtuN9QEGgfcV4Ns1rrNWi+Bly+EebP5JQLbcdxnstzeUUmdZVQmOiNms5BTem/q5qtktyA6o2HwQXh5ghwA7lOEVAXYAXs7wfuZ8sgCfq3HUtjEf/jcHb6fBG4ER7ivAlAArU2eRJElqNjYAtVolOCzCz4BR9aoZ4Etd8NGQYFnSfNgqD3fFOv59pQYWA3y7O9trr+HcCGNHZbPwUuzROacA+yeo2xaK0DkI23bAFGC3CNOA6cD2rHLNEuF9PfA/qXK2ogj5PrgwZjP/G7kRuGI5vKrR3piQJElqdDYA9S9KcPDQab8VH/ixviL8dBK8dQdYUa+a82DbPNxO7ZY5S83knrFQmNrghyy4DLi9zIUJnbB7hGkBppXhJz3wu9S5WlGEUSX4eYBXxwa9TgwQI3y6AJ9NnUWSJKlZNOSFndIpwd4x22Q/2QEYEf6Uh9d1waO1rrUQtloBd2PzT20uwkAZ3jMTzkudZThcBizV1tAegb/KwYEN3Ai8rhv2TZ1DkiSpGTTkBZ3SmA975uA3wIapswB35eHQ6XBnrQoshE1Xwn0xwUxHqcHc3g27NdO+WnNgzPhsFt6EFOVdBqx2MdQIvCzAoTTgdWOEJeNg+0aftSxJkpRaI+/xojoqwawc/JrGaP4BvGIQ/jgfemox+CLYaAXcY/NPbS4CpxZgx2Zq/gHMhueAKxOV3+dmeGmi2lJdBVjZA91hb2UAACAASURBVIeNhY0DzKv7Jr3rEGDScnh0AbwudRZJkqRGZgNQFGHXmL2QTrGh/tpsmoNre+Hwag5ahInL4X5gbDXHlZpJgIfHwsYFODt1lpEKcEmi0vl+eEOi2lISU+GJbpg1MTuQ5fbUeV4kNwiXF12aL0mStEY2ANvcAtgB+C2wUeosazAuwCV98PJqDFaEicBDJNzjUEosDsJnumGLZl8ytyKbtfxMgtJ3hzoeVCQ1kimwuAA7roT9YuM9h7y7CDelDiFJktSIGm4vF9XPTbDFAFwPbJM6y1pE4J2FKhxMcD2MH5M1/xptpqNUFxGeyMOuXfBw6izVUsfTgO8HLgcu6YYbQvbcJLW9efCOPHwTGJM6yyqeLcNOM+CB1EEkSZIahQ3ANtUHm5ThOmDH1FnW4UMF+GqlgxRhHFnzb1LlkaTmU4bfzIBDUueothqfBvxAhJ/k4eIuKNaohtQSinAm8BEgnzrLkHInvHF3uDR1EEmSpEZgA7ANzYUJHfB7oDt1lnX4bAE+VekgN8LYUdksgMlVyCQ1lQDlAXjLTLgodZZaqMFpwCuA3wEXPAM/nw0DVRpXankR8kW4KsCBNM415lcL8KHUISRJklJrlIsz1VEvfCnAh1PnWJsI3+qBUyodpwidwH3AZpWnkprOo2Nhx2bf629dqrQM+Cbg/JVw4Z4t/u8l1dqdsMlT8Adgp9RZAALM64ZZqXNIkiSlZAOwDS2CUcvgOwH+PXWW1YnwowK8NUC5wnFCCW6l8Zc5S1UX4coeOCx1jnqoYBnwMrLm4bcL0FflWFLbmw89ObgK2Dh1lghLAmxTgKdSZ5EkSUrBBmAb64XTAnyWxrofXPkMvL4ay+6KMBeYWYVMUjOJg/DmVl3yuzpDy/z/Dmw4zG+5N8A5K+B7zvaTam8+fCzAGQE6UuaIMNgP/7ZnNjtRkiSprTRS40cJ9MJRAS4AxqbOApTGwn5TYWnFA8HVsQUPPJDWJsKyDpg6He5NnaXeSnBRhGPXcbMbgK+7t59UfxHyffCrCK9OH4UPF+DsxDkkSZLqygagmA975uByYJOEMRYPwJ6zss38K1KE84ATq5BJaia3d8PUAIOpg6RQgjdE+NlqvtQP/LgMX54Bi+qdS9IL9cHm5ewgslemzBHgp93rftNAkiSpZdgAFADzYNs8XEmaDbsfj/CqHri90oH64KwyfLQaoaRmEeH7PfD21DlSWs1pwEuB84GzC3B/umSSVucWeHU/XByHv3S/Fm4vuE+wJElqEzYA9Q+3wEtWZjNoZtex7HMRDujJluZVpBc+EuCL1QglNYkY4PhuuDB1kEYwtAz4gAjfKsM3Z8LjqTNJWrteuCDAW0h0TRrh8aWwzewqbD8iSZLUyGwA6gUWwajl8F3gbXUoV45wTM/ql+2tlz44vpztZSi1hQD9AaZ1ZSddC+iDl5fh0UJ2uq+kJlGEicB1wG6JIvTnfD6VJEktzgagVqseJwRH+M8e+Fql48yHQ/JwVfT+rPax5BnYyhkrklrJPDguD98HRicoHwMc1Q2XJagtSZJUczZMtEa1PCE4wPndVTioYz5MzcMtEXLVyCU1gTsKiTfPl6RaKsFPIhxDguvUAJ/vhk/Uu64kSVKt2QDUWpVgVoRfAC+t1pgRrhsHB06FlZWM0webRHgwwqhqZZMa3O8KcFDqEJJUa32w+SDcGODl9a4d4JpuOLDedSVJkmrJWVNaq26YG2EP4LYqDbk4wJGVNv+KMG4Q7rb5pzbyVZt/ktpFFzzcA9sMwkeBcj1rRzigN7vGyNezriRJUi05A1DDUqUTgp8uw54zYFElWS6G/HawGNi6knGkZlGt/TIlqRlFGNUH10WYWee6ywZhu1nwSD3rSpIk1YIzADUsu8GTz8BBITsheCQGIhxZafMPYDuYj80/tYdYhmNt/klqZwFWdsOsQTgMeK6Odcd1wIPzoadeNSVJkmrFGYBaLxFCCU4DzmD97j/vLcC3K61fzE7nO6LScaQmECMc1APXpA4iSY2kN1uR8IY6XsTGTjhmd7i0fiUlSZKqyxmAWi8BYgE+N3Q63/LhfE+Ec6vR/CvB57D5pzYQoFyGmTb/JOlf9cCReZgKPFankqEfLpkPH6tTPUmSpKpzBqBGbJgnBM+dCPvtACsqqbUAThqEcysZQ2oS/XmYMh3uTR1EkhpdKdua5KRYv2va7xTgPXWqJUmSVDU2AFWRXtguwBXATqv58iMDUJgFD1ZSYz7sk4dr63hxL6WycgC2dsN5SRq+BdlpwfOBTepRL8Jve+DgetSSJEmqFhsqqtgaTgjuL8OBM+APlYzdB5uX4T6go6KQUuPrH4CtbP5J0sjcBGcNwH9Rh+vbCPf1wDa1riNJklQtNgBVFYtg1PJsie5bAQKc0g3fqmTMG2HsaPh7hA2rElJqXDb/JKkK7oRNlkBfgC3rUO6RbtgiwGAdakmSJFXEBqCqqggfALoKQ43AkRo6bfg24JXVSSY1rP4cbNMFD6cOIkmtoggfCvClWOMD7wIs74dtfQNHkiQ1OhuAqroIIUCsZIwSXB3hkGplkhqUzT9JqpG5sGkebgrwshqX6n8Wpu4Ld9a4jiRJ0ojV9F1RtadKm3+98Hmbf2oDA2XY3uafJNXGLHikBzYDvkKF1ybr0LkB/OWP0F3DGpIkSRVxBqAayjx4fQ5+7h1TLS7moWs63FSNwebBlDzsXoBLqjGeJLWaPtg8Qm+EzWtYJnbAIdPgtzWsIUmSNCL2WdQw5sIOHfAXnJmq1hYH4YCZ8PtqDFaCnSJcQ3ZYzq4FuL8a40pSKyrC2cAHqdE1cIA4AG+eCRfVYnxJkqSRstGihlCEiR2wEO+TanGdcEwVm3/dEa4jm9EyIcD3om/sSNIaFeBDK2HnCE/XYvwIIQ8/7oW312J8SZKkkbLZouQuhjzZzL/RqbNItZSHk3eHS6sxVhH2ilkjcePnPxfhgD54WzXGl6RWtSf8pQcmRvhlrWoE+F5vNtNQkiSpIdgAVHLbZXvl1PqEPim1z06Hc6oxUC/sB1wNTHjx1yJ8bS5sWY06ktTKeuB1HXAw0F+L8QN8tQhn1GJsSZKk9eVSMSVVgk9HOD11DqmWAvy0G46txlglOCTC5ax9xuwVBXhtNepJUquLkC9BCdi9FuM/C1P2hTtrMbYkSdJwOQNQyQwtYTw9dQ6pxm6uVvOvF14VsyXE61ouf1gvHF+NmpLU6gIMFmBaDt4DlKs4dDkP/27zT5IkNQJnACqJYrZv2V+BjtRZpBp6rACbVGOgEsyK2XL58cP8liUdsMs0eKga9SWpHSyCjZbDn4HNKhzq7xNhlx3g0WrkkiRJqpQzAFV3c7Km31+w+afWtnIxbF2NgebDtAhXMfzmH8Ckfvh2NepLUruYCk8UYPMI34ojHCPCrwqwqc0/SZLUSGwAqu4mwBxgcuocUg2VJ8BOx8DySgcqwq45uAZ4yfp+b4DX9sJxlWaQpHbTA6eMglnAiuF+T4A4CO/vgcNrGE2SJGlEXAKsupoPZ+Xgo6lzSLU0Cg7dLTultyIleEWE64FNKxjmsU6Yujv8vdI8ktRuhntASITnlsFu7vcnSZIalTMAVTd98G82/9Tq8vD1ajT/irBxhCuprPkHsHE/nFtpHklqR88fEDII7wdWuyo4wMMFmGjzT5IkNTJnAKouitlm2g8A+dRZpFqJML8HZlY6zo0wthP+L8Ae1cg15JgCXFLF8SSprSyAbcpwU4SJz38uwvd74O0pc0mSJA2HDUDV3MWQ3y478bcqp6FKjSjCkp4R7NP3YkOPl0uB11ch1qpcCixJVVCCqyIc2AnH7Z49X0uSJDU8T2FVzW0Pl0ebf2phEQYnwZRqjLUtfJ3qN/8ANh7IxvZQEEmqQDccmjqDJEnS+nIPQNVUEd4R4bDUOaQaO2QHeLTSQXrhtAAnVyPQ6kQ4tgRH1Gp8SZIkSVJjcgmwauZm2HYA7oo2mtXCApzbDe+qdJxiNuvvZ9T+8fJoDqZ2VaFhKUmSJElqDjYAVRNF6AQeAyakziLV0D0F2K7SQUqwU4S51OnxEuFHPXB8PWpJkiRJktJzZpZqZQ42/9TaBhbD1EoHuRE2ivAr6vh4CfAWlwJLkiRJUvuwAaiqK8LHgFelziHVSgQ64DXHwPJKxrkY8p1wIbB9dZINX4Rv3VKFU4slSZIkSY3PBqCqqhd2CfD51DmkGvveNPhtpYNsB18NcEg1Ao3AZivhq4lqS5IkSZLqyD0AVTVFGEe279/Y1FmkWonwYA9sVYVxciUoAdOqEGukngW2KWSPW0mSJElSi3IGoKrpRmz+qbWVA+xSjYFCNtZbgZXVGG8E+iMcbfNPkiRJklqfDUBVRR/8F7B76hxSjX2wAE9Va7BuuCXAmdUabz0MBji+B65OUFuSJEmSVGcuAVbFboHtVsJdeH9SC4uwoAe6qj3uHOgYD3OB7mqPvQYxwLu64X/rVE+SJEmSlJgNG1VkqHnxGDAxdRaphvq7YWyAwVoM3ge7l2E+MKoW468qwEe64cu1riNJkiRJahwuAVZFNoRfYPNPLa4fjqpV8w+gC26ux1LgCGfa/JMkSZKk9uMMQI1YEd4EXJg6h1RjvyvAQbUuUoelwBd1w5sDxBqNL0mSJElqUDYANSJ9sMkg/DVAPnUWqYZWFmB0vYrVcCnwtRPhkB1gRZXHlSRJkiQ1AZcAa71FCGXos/mnVtcPR9ezXhfcHOGsKg97ax6OsPknSZIkSe3LBqDW2wI4F9gydQ6pliL07gG/rHfdpfA5oFSl4R4GXj0dllRpPEmSJElSE3IJsNbLfNgnwB+846jFDXTDBgFWpihepaXAz5RhnxlwU7VySZIkSZKakzMANWx3wugc/Nrmn1pdDt6XqvkHVVkKXI5wrM0/SZIkSRLYANR6eAquBsamziHV2OIu+E7qEBUuBf5ED1xVzTySJEmSpOZlA1DD0geHA7NT55BqLA7AnqlDAMyGgRycyPrPRPx5N3yhFpkkSZIkSc3JBqDWaS5MGISfpc4h1cGPZ8EjqUM8bwRLgW8bgLcFiDULJUmSJElqOm7npnUqws3AbqlzSLUU4bmeBlziPgc6xsNcoHsdN30ywIxuuKseuSRJkiRJzcMZgFqrEpyMzT+1gVFwfOoMqzMbBiKcBPSv5WaDwLE2/yRJkiRJq2MDUGvUB5sA30idQ6q1AHfuDpemzrEmPbAgwplruclZBfht3QJJkiRJkpqKDUCtURl6o/cRtbgAcQK8KnWOdVnTqcABeoEz6p9IkiRJktQsOlIHUGOaD58FXp46h1RrZfjVDvBo6hzrMhsG+uDEctbw6xz69NIcvHn62pcHN51eOCB1BtVGgAfHwuKp63+6tSRJkqQKeAiI/sUC2GYQFuP9Q61vsBtGh2wPvaZQhM8AnwII8JZuuDBxpKqKEEpQTp1DNTUI3AfcApQi9JVh3kx4PHEuSZIkqWXZ4NG/KMLDwGapc0i1NghfngkfSZ1jfQydCjwvwKJuOCF1nmqzAdi2ysCfgWuBOaPgD7vBk2kjqZEUoXMQtu2AbcvwUmDjHLysDJMAcjAhQj5xzFQGIjwDLAvwN+AB4P4BuHcWPJg4W1MaerNt19Q5Ugjwo264rNZ1SvDhCHvUuk6D+ngB/pI6hFrXKj8zpwCviDAe2CDCSwJsyD9XEymNuwrw8RSFXQKsFyjB6dHmn9rDs83W/INsKfB8OKGcvcCTWkWO7MT53YD3r4SBIlwH/HIQfjkT7kkbT/U0DybnYEYOZkQoADsC2+ShI/LPd69f/Pt2trp39DuAIiyJcEsObinDTWX440y4o975mtA+wH6pQ6QQs61Gaq4MswIcUY9aDeirqQOodRShsww9AfbKwasi7MwqPzNX5eyvhjE/VWEbgPqH+fCyOLS0UGp1Ad6VOsNIzYBFqTNINdYB7A/sn4f/LmbLhX+Wgx90ZcuH1UJuhLGjs4bLwREOAqaCTb0qmRRgnwj7BLIpkkX4K3BthD8EuLoA9yfOKElaD32wcxmOJLtWmpGDceDPTa2bDUD9Qw7+hG8MqD080mp750ktbjdgtzJ8ugh/CnBBB1y4OzybOphG5mLIbwuzc3BChNcPLU9SfWwGHBfgOIAi3Brhkjxc3AW3Js4mSVqNebBtHg4Hji7Dq1LnUXOyASgAinAqsE3qHFI9dMBRqTNIGpEc2fKWV/XDF4vwkxx806ZF8+iF7YB3B3g7MNnZCg1h5wCfHmqwLwLOH4QfeDCPJKU1B8ZsCG8KcAowPXUeNb9c6gBKbx5MDvDF1Dmkeohw3zS4PnUOSRWbBLy7DAtL8Iv5sGfqQFqzIszshV8GuDPAh4HJqTNptaYCZ+fhwSL8qAR7pw4kSe1mPmxVhDPHwwMBvofNP1WJDUCRh+uj9wW1iQCvTZ1BUlXlIhyegxuKcF0JDotuZ9EwSjCrCL8G5g49/3q90RzGAG+OcF0RbinBG71WlKTa6oXtivCjHCwGPgZsnDqTWos/yNtcEd5Bdrqe1PIC3FaAhalzSKqZvSP8qgS3FOH1qcO0syJsXYKLItwIHJw6jyqya4SflGBhLxxrI1CSqutmeGkRvhHgNuDNuFWbasQf4G1sLkwAvp06h1Qvg74IldrFLsDPS3BDrxtl11UROnvhNOAvEY7F2ZitZOcAF5Xgz73upStJFbsZNijBp/vhLuB9wKjUmdTabAC2sU64Bt9dUJuIcNMMeCB1Dkn1E2HPANcX4VdF2Dp1nlZXgt0i3Bjgc8DY1HlUMzsFuKQIvy+6ikSSRqQP9umHBRFOB8anzqP2YAOwTfXCARF6UueQ6iUPr0mdQVIyhwF/LsKH5vjGV9VFCEU4NUIxQCF1HtXNbGBBET51J4xOHUaSmsECmFSE88r8//buO8zOsk74+Pc5MwmEFjpKlSoIAsmcCV1BUZEiKmVXXWVtuL4iqO/6guu6ylpZKxYUXdTFggawV0AiKyXJnEkANyhFUFEUAQUCpM653z/OxI0hCTOn/Z7y/VyXF3sBz/N8w8LkzG+e+775KbBndI+qxQFgBc2BwRp8K7pD6pcMfjET7onukBRqU+BDm8LckdYSYXXBPNhqFL4LfBCYEt2jvtsQOPchuHkBPCM6RpLybAReMAaLgFfjFhkK4ACwgjaDCxJsHN0h9csjcGJ0g6TcGMpgdATe7tuAnRmFfQZgHr5hLdirCVePwnv870qS/tYcGByFj2TwbWD76B5VlwPAilkAu6TWyb9SVdz5TLg9OkJSrkzN4D2bwpz5sFN0TBGNwHMS3ADsHt2i3BhI8PbN4JoFfoMrSUDrhN9N4coEb45ukRwAVsz4XgO+bqzKGICTohsk5dbhNVg42tojUBPUgBdmrWW/06NblD8JDm3CjY3WHoGSVFkNmLmi9ab8kdEtEjgArJT58FrgKdEdUh/dMwNujI6QlGtbJfjOKLwn+QOyJzTa+ixxGR76oPXbBvhRA14aHSJJEUbg74Hr8Ptv5YgDwIpowEY1+FR0h9RPY3B6dIOkQsgSvH0UvjsXNouOyasGnJbgM8BAdIsKYSrw5RF4V3SIJPXTKLw2g6/QOihJyg0HgNVxKZ7Op2p5+CD4fnSEpEI5bhCumQs7RofkzfibDBfhZ0dNTpbBO0fhPdEhktQPDTgrwYX4+6VyyH8pK+AGmAkcG90h9dMAvDu6QVIhHTgI182DvaJD8mI+HJrBF/HNP7UpwdtH4D+iOySplxpwNvAx3FJEOeUAsOQSZINwZXSH1GcrZsCHoiMkFdbOA/Df8+HA6JBoDdi5Bt/APf/UoQzeOgJvj+6QpF5owDuAD0R3SOvjALDkRuHsDLaM7pD6KcHF0Q2SCm+7GsxpwEHRIVFugo2BbwPbRbeoHDJ49yi8MrpDkrppBF4OnBvdIT0RB4Altgg2wWWQqp5Uh9dFR0gqhc2BHy6AA6JD+i1BtqK17Lfyb0Gqq7IEnx2Bo6NDJKkb5sMzM/hPXParAnAAWGJLWwd/DEZ3SP2UoJHBWHSHpNLYoglXjMBTo0P6aQH8M3BydIdKaTCDry2AXaJDJKkTI/DU8W0ypka3SBPhALCkboS9mnBMdIfUbyvgFdENkkpn2wyuqsrpwCOwX3IFgXprqyZ8Yw5sGB0iSe2YB1tl8H3cbksF4gCwpFbC1b6DrAq6/1D4ZXSEpFLacRC+M74vXmnNaa0c+AIe+qHem7kJvD86QpImK0E2ABcBu0e3SJPhALCEFrTegNohukMK4Bsrknppxgr4Uirx56dN4R0Z1KM7VA0ZnDkKz4rukKTJGIW3ACdGd0iTVdoPsFW1CKYm+Gx0hxRgZR0+Hh0hqfReNArviY7ohVEYAv4lukOVUkvwhfGD6yQp9xrwdOB90R1SOxwAlsxSuCi5bEcVlODH0Q2SKuOcUTghOqKbUuv0wk/j4WHqv52XwL9GR0jSE5nTOsToIjz0QwXlALBE5sOTErwsukOKsDm8MrpBUmVkCf6zAU+ODumWBvx9guHoDlXWW0Zhn+gISVqfTeAt/l6pInMAWCIZzGn9Qaqce/eE+6IjJFXKtsCXy7Af4BzYMHM5k2JNacJHoiMkaV1uhB0yeEd0h9SJwn9oVctCODKDvaM7pCAfjA6QVEnPGoU3R0d0ahM4E3hKdIeqLYNjRuCw6A5JWpuVcB7uV6qCcwBYEk34RnSDFGSsDh+OjpBUWefOg12jI9o1D7bKPPhDOZHBu6MbJGlN81vLfl8a3SF1ygFgCYzCmxNsEd0hRchgJLpBUqVtPNA6PKOQBuEMYHp0hzTuqAYcHh0hSasbgHNxqy2VgAPAglsEUxN8ILpDirLMwz8kxXveaAEP4boepiV4Q3SHtIazogMkaZUFcEiC50d3SN3gALDglsJn8BhyVdcjh8IvoyMkKcFHroVNozsmYyr8I7BNdIe0hhcVeVm9pHIZg7dFN0jd4gCwwBqwdWp9eJcqqebel5LyY9sNC/Tm0vjpxYU/wESlNFCD10RHSNI82CuD46I7pG5xAFhs38K9CFRhD7l0TVK+vHVBQd6oa8AJwJ7RHdLaZPCy5GdcScEG4E04M1GJ+C9zQV0H+wGHRXdIge4/Ch6JjpCk1WzWhHdER0xE5v6pyrddRv2cKynQ9TANeEl0h9RNDgALagP4YXSDFCmDC6MbJGktXrcAto+OWJ95sBVuaK78K9zBOpLKYwM4Cdg8ukPqJgeABXRT64vRjtEdUqA0E94ZHSFJazG1CWdGR6zPIPw9HiCm/Ds+OkBSpZ0WHSB1mwPAgkmQrYAvRHdIwX6fwVh0hCStw+sbMD06Yl0SvDy6QZqAHUdaW95IUl/Ng60SHBndIXWbA8CCGYW3AJtGd0iRBuD86AZJWo/NgFdHR6zNCOwGHBTdIU3QsdEBkqqnBicCg9EdUrc5ACyQBkwB3hfdIQVLM+BD0RGS9ATOmg0D0RFrqrn3nwokg2dFN0iqnvEBoFQ6DgALpAkfxD17pHuiAyRpAnbeNYfDi+QbVSqWg5Lfr0jqozkw6PJflZW/oRbEItikBmdEd0g54Om/kgohy9kG4nNgQ/ymRsWyeQP2jI6QVB2bwhCtrTyk0nEAWBDL4PPkcCmR1GdpqM1l8A3YqAFvS5B1O0qS1uHFeToMZDN4JrBRdIc0Se5ZKamfjowOkHrFAWABLIBtEpwc3SHlwJ/aPf03tfa9et8ofO9m2KLLXZK0NtOAU6IjVkmtAaBUNJ4ELKmf/KGDSssBYAE04XLfWpJgAL7W7rUZnDT+fx67HOaP+A2FpP54SXTAaurRAVIb9o4OkFQpM6MDpF5xAJhzN8NuCY6I7pDy4EH413auux02AI5b7U/tkcENjRy9mSOptI5YCJtHR4z/INEBoAong72iGyRVQwO2BnaJ7pB6xQFgzi2H7/vqnwTAo0fBI+1c+CA8j8dv5rsJMHsELpwDgx3XSdLaTWm2vgaFuhH2wO0PVEy7+fu0pH7IYJ/oBqmXHADm2HVwIC57kADI4L87uPak9fy10zeDq26Cbdu9vyStTxOOz0GDS5pUVFO2gO2iIyRVwu7RAVIvOQDMsQ3gm9ENUl4kOLud6xowBTjhCe79zBXQGIFZbcVJ0npkcGz0G0zN1huAUiGtdAAoqT/8vVKl5gAwp+bDocBTojuknFhZh5+3c2GCo5nYsredMrhmBF7VznMkaT223CT4DbzMzxQqsMy39CX1QdP9/1Ry7qeRUwMwO0VHSPlxe7sXZvDiSfztG2Zw0SjMSPCWOqxo97mStLpa6wd78wMTdgt8dt79OsG1GSwE7szgzhVw70aw/OnwYAY9+UjWgI3GYNoU2G4M9qzBXqn178mR5ODgmDxJvgEoqQ8y2Ca6QeolB4A5NB+emWCH6A4pRy5q56IE2Sgc28Z1ZwAzGnBKHf7QzrOlCfoDcHF0RAcGaQ3Zd40OybsEhwAfC0zYOfDZefQL4EsDcMkM+HVEQB0eo/W/B4BbVv352TCwGzw7g9MTnIif1+HxB3lJUi84AFSp+YEih3z7T/pbQ21+0zwCB9Rg+zYfexjQmA+nzILr27yH9ETursM50RGdWAT/8hi8IYN3AxtH9+TYIcHPnx78/Ly4GXjnEHy7V2/2depUGAOuAK6YD/vW4MPk4CTpYBtEB0iqhK2jA6Recg/AnJkPxyT3OZFWtzhrfTM0aTV4fofP3r4G1zTaPIBEqoJ9YfkwfDTBELAguifHdpoLOwY+f5PAZ+fBSuDfFsNQHb6V1+HfmmbBonrrs+EbgeXRPVGSA0BJ/bFRdIDUS7l/A3AEnvoI/OYoWBrd0g81+HJ0g5QnCW5o99oMnteF7/AGgQ+Mwl4Pwxuq8rVImqxhuPV2OPQh+BJwSnRPHg3AwcBl/X7ubBgApvX7uTmyGDi53nqrrpCG4ZMjrf0JLwc2jO7pt6yCv2ZJIaZGB/TIUN0fz12UGAAAIABJREFU0oqcvwGYoJbBDzaFP47CxSNwdIIsuqtXboRTga2iO6Q8mdJaVjhpc2Gz8c3UuyLBqzaF6xd6kqa0TnvCsjvhJckfZq1VDfaNeO5Tqz08WQ6cWOTh3yrD8IPUOqm+EG8vdtmU6ABJleDbxiq1XA8AG3ACrVPrpid4eQZXjsJvG/CBebBXdF+3rYTPRjdIOdM8EK5t58IpcDTd/4ZhxhiMjLTuLWktToWxOpxGsQ836ZW9Ix46WOIfnk7AW+swJzqiW4bhEuCr0R2SVFL+sEGllusBIK39Tta0I3D2ANzagEYDzrqpBHvmjcLf4Qbd0prua/fCBMd0M2Q1W2fwowacXeY3kqVOZNCcBq8FrotuyZMUNACssHlD8InoiG5rwttonR4sSZI0YbkdAC6Ap2XwrCf424aAj62Ae0bhyhF4RaOgG3cm+HR0g5Q3WWdvbfTyxMQB4AMNuOQmTz2V1mpfWF5rbW3xl+iWHNkr5fizVwm9uyiHfUzGLLg7uWpEkiRNUm4/hCY4k4m/XTOQ4OgM/gu4uwEXLIBDepjXVQvgJGCL6A4pbxK8r53rFsDTgJ27nPM4GfzdCri+Abv3+llSEc2EexKcFd2RIxvd2IevTQLg3sXw4+iIXhmAr0Q3SJKkYsnlAHAhbJ7gH9q8fEvg9c3WN+W/abRO79yjm33dluDC6AYph5p1+Hk7FyY4qtsx67F/Bs/u4/OkQhlunQrc1l6eZZT8gUFfJPjBUbAyuqNXZkID+EN0hyRJKo5cDgCbrX2DurGsbmda+3Tdvmq/wAZs3YX7ds08eF7y5F/pcRL8qYNrn9nNlgn4WZ+fJxVKBm+lhEsx25HgSdENVZDBTdENvZbBjdENkiSpOHI3AJzdWs77+h7cegj4GPC7Bny3Aac0cnDKz0DrzQhJa6jBNe1cN34wxzO6nLM+98+EX/bxeVLhDMFc4KrojjxIsF10Q0U8GB3Qa014ILpBkiQVR+4GgLvDicCuPXzEBsDxwGzg3hG4sAGH9/B56zQCRwPbRDxbyrtB+Gg71zVgX/r7Dfa1ZdxkXuqB86MD8iBzAKguqfl7jyRJmoTcDQATvLGPj9sig9OBnzXgFyPwrhHYrV8Pz3z7T1qXdADMa/PaI7sZMgEu/5UmYAh+CPw2uiOabwBKkiQpQq4GgCOwH/3fu2uVvTN4Z9baL/DaUTh9LmzWq4eNwhG4D5C0Lo+2e2HW568hTQeA0oRk0EzwjeiOHPD3fkmSJPVdrgaAGZzV+kOoGnBYggsH4d4GzB6FE7q9X2CCr3bzflKZJLijzev6vf/fozU3YZcmLIPLoxuiefCXJEmSIuRmADiv9YH4pdEda9gQOCXBd4DfNODD3ThFeC7sD+zYcZ1UUgPwzXauG9//b9su56xTBjfUYUW/nicV3Z1wA/BIdEekrPXZQpIkSeqr3AwAB+C1wEbRHevxZOBVU2BJpzcahK93oUcqrQ3gk+1cl/X37T+Sy3+lSTkVxoD50R3BHABKkiSp73IxAJwDg8Drozsm4KIDOtibDGA+7ATs3aUeqYzG9oU/t3NhgkO6HfME5vb5eVLhZa23AKvMAaAkSZL6LhcDwE3ghcDO0R1PoJnggk5vMgCzuxEjldj97V6YweHdDJmABX1+nlR4CW6Jbgi2QXSAJEmSqicXA8AMzoxumIDvDsOdndxgHmyV4KBuBUklNdrORQtge+Ap3U1Zr9/UOxhWSlVVg7uiG4L5BqAkSZL6LnwAOB8OBI6I7ngiNfhEF+7xBeJPOZZybQA+2851Y3Bot1vWJ7U5qJSqbqUDQAeAkiRJ6rvwAWBB3v67ZQZc3ckNboKNa3Bct4KkspoB327nulqfB4C4/FdqyzDcCzSjOwKNRQdIkiSpekIHgA3YOoOXRDZM0CcySJ3cYAWcn3IwcJXyLMHSDq49rJstT6TmG4BSW8Z/P30suiPQsugASZIkVU/0QOo15H8pzIPT4Mud3GARTAVO61KPVFoZ3NPOddfDNFrbCfTNCljYz+dJJfNodECg5dEBkiRJqp6wAeD423CnRz1/ojL4wr7wSCf3WAbnAINdSpJKq9199TaCLYHFXc5Zn98d3FrGKKk9VX4D0AGgJEn5tDI6QOqlsAFgA44Bdo16/gSllfCZTm/ShLO7ESOVXYLL27nuQPh9E2YA87uctC4u/5U6MyU6IJBLgCVJyid/SKdSi1wC/E+Bz56o7x8Et3Vyg/lwKrBRl3qkUhuGy9q9dhbcvRyOBC7uXtE63dSHZ0hltnF0QCC/uZAkKZ/8IZ1KLWQA2ICdMzg24tmTkeDjnd6j1oV7SBUxlnV4OuahsKQOp2XwOnr4TXaCX/Tq3lJFVPkHY1Xe/1CSpDyr8hYlqoCQfekSvC6DgYhnT8JtdbiqkxtcD08HtutSj1R2XdvDbwg+OwKLMrgUeHK37rtKDW7p9j2lqpjTOvxrg+iOQA9EB0iSpLW6H9gpOqIHvtwoz3BzKa1fy4O0fqi6JMGfgF8NwB3AHTPhvsjAPOv7ALDR2vfnH/v93Dacn0Hq5AZT4ZJuxUhll+DX3bzfMFy3AA5owteBo7p46+YyuL2L95MqZVN4SnRDMAeAkiTlU1kHR/tEB/RSNv7H5vgfG/AQcCtwQ4JrE1w7C/4YU5cvfV8CnMGLge37/dxJWrwSvtzJDW6CbYF9u9QjVcF13b7hTLhvMTwXOK+Lt73rUFjSxftJlZJgt+iGSJkDQEmScmn8TTIV33RgFnBWBpfW4A8NuH0EPj8CJ46vRqmkiD0AXx/wzElJcNHB8HAn91gJ/9WtHqkKBuGrvbjvUbCyDudk8A9059V39/+TOpDB7tENkZoOACVJyqvfRgeoZ/bI4JUZfGtTuLcBX67iMLCvA8BR2CfBM/r5zDY0B+GCTm7QaG1u/twu9UiVMAOu7+X9h+ArwBHAbzq5jweASJ3JYDi6IZJvAEqSlFu/ig5QX2wGvGzVMHAUPrEQ9oyO6oe+DgATvJr/XaKdVz+c0fn+XuemoBOWpYJa0Y+H1GHBGAwBV7R7j5oDQKkjCQ6NbgjmHjSSJOVQcgBYRZslOGMMftmA743A0Sn/M6u29W1ItQimAi/v1/PalcEnu3CbN3ThHlKV/LlfDzoIHrgTjqW1L2A7B/04AJTatKC1B3CllwDX4K7oBkmS9Hgb+Dm/ymrAcRlcOQo3j8KLooN6oW8DwKVwPK2DMfLsjpkdvBkEMP4vyrQu9UiVkMFt/XzeqTBWh3MSnAosnsy1y/rcKpVJE06Mboi2FO6MbpAkSY93QOsQkN9Fdyjcfgm+0YC5C/K/hd2k9HOZ6mv6+Kx2fSb739Oj25LgE92KkaoiwUjEc4fhstTaj+yWCV6y+NA+vq0olU0GL45uCPaQX0MkScq10egA5cZBTbhmBC6fB3tFx3RDXwaAN8IOKf+HYiwZgy92coMFsAuwQ3dypOpI8MOoZw/DrUvh4Awun8Df3tEBIlKVjX8WODK6I5jLfyVJyrGoFxOUXxm8eABubsDZs2EguqcTfRkAroRXkvN/UAm+dlCHJ/M14Uvd6pGqpA5zIp9/OCyeCacA5wBj6/lbHQBKbVrZ2h93MLojmANASZLy7afRAcqlDYAP7AbXjsBTo2Pa1fMB4PgJKv/Y6+d0KsGnO7n+epiWwWHd6pEqJGXrH7r1RQapDudlrf1K17VEzwGg1IZFsAlwenRHDiyKDpAkSeuWwXzgkegO5dbBGSwcgTen/m6p1xV9CU7wT8DF5PQ/pASNWR2+6jsN3lXEfwGkHFgWHbC6IfgRMAu4eS1/+bd9zpFK4TH4Z2Cr6I5oCW6KbpAkSetWhxXAf0d3KNemZfCRUfhuA6ZHx0xGzwdWGaRhuKoOpy2GbWiduvk9YGWvnz1RNbig03uMwRu70SJV0EPRAWuqw68Ww0GssS9oBr8OCZIKbAFsn7UGgJVXgxujGyRJ0vpl8K3oBhXCscANC2HP6JCJ6usba0fB0jpcWocTaq0DM94ELOhnw1o8mODrndxgFE4ApnWpR6qUDH4X3bA241+vXpnB62j9JBBcAixNWhM+CWwc3ZEDi2fCndERkiRp/Qbh2+RgiyIVwj5jMG8EnhMdMhFhS1Znwj11OL8OQ03YDzgP+ENAykV1eKzDe3y8KyVSBTXXvtQ2N4bgsxk8G/hjcgAoTcoovBZ4UXRHTtycQTM6QpIkrd8B8CfgZ9EdKowtMvhBo7X1Xa7lYs+6WbCoDufcCTul1muUXwWW9OHRaQAu7OQGC2CbJjylSz1S5dTgJ9ENT2QIfrYShofg3ugWqShGYFbyB2R/lTrca1iSJPXVF6MDVCiDwAWNnG8Nl4sB4Cqnwtgw/LAOL1ve2ix81X6BvXr99qcz4PYO7/HprCspUjWl1n/juXcw/M63d6SJmQ/7Zq3lMxtGt+RFBtdEN0iSpImZApcBi6M7VCgZcH4DzowOWZdcDQBXdygsWbVf4OD/7hfY1c2zE3yuw+trCV7QrR6pajJI9RweAiKpffPhwBrMAZ4U3ZIjzTGXEkmSVBgHwKPAV6I7VDgZ8LEGnBUdsja5HQCu7kD4/fh+gTNW2y+w06V4DzwC3+zkBvPhVQmmdNghVVbK0Wngkjo3CkfU4Gpgm+iWnPn5QfBAdIQkSZq4BB/DFUCavAz4aB73BCzEAHB1q+0XuEOC52TwJdo4xCPBl46CpZ20DMB7O7leqrqs8wN4JOVAgqwBZ6XWnp5bRPfk0E+jAyRJ0uQMw60Jvh/doULKgE8saB0mmRuFGwCuMr5f4FVD8Apg+wSnZXAVkCZyfYL/7OT5C1sHf2zbyT2kqksu/5UKbwRmNeA6Wj8l9634tRj/fCJJkgqmBu+LblBhDTbh6yOwW3TIKoPRAd0wvofYxcDF82GnGrwUeDWw5zouuW4WLOrkmU1PBZI6luBP0Q1SsD0aMDs6ogNbAUfR+imn1u6Rhx0ASpJUSEMwt9E6tPD46BYV0lYZfPtaOPTwHBwqU4oB4Opmwd209gg8bxSGUusNwZfwt/sRdXT4xxwYTHB4J/eQBMBd0QFSsC2BU6Ij1DsZ/LjTLUckSVKcJryjBsdS4BWUCrXfhvClBC/KJrhitVdK/S/wEIzW4azpsFPWOq33UuC+8T+2bTN4HTDQjUapygbgf6IbJKnHOjpwTJIkxZoFNwJfiO5QoZ3YgNOjI0o9AFxlT1g2BN+tw6nTYad65wcP/FtXwqSKq8Hc6AZJ6qEVU+AH0RGSJKkzNXgb8GB0h4orgw82YOfIhkoMAFe3Jyzr5PobW6cPe/iH1AW3wc+iGySph36wP/wlOkKSJHVmZmsl4duiO1RomwKfS4F7Z1duANiplXBhdINUBgk4FZZEd0hSryT4fHSDJEnqjqHWLOCK6A4V2nMb8KqohzsAnITxSe1zozukMqhBM7pBknro3gx+GB0hSZK6I4M0Bv9EDk5zVXFl8OEGPDni2Q4AJ2G0dZrwlOgOqQwSrIhukKReSXBx3a9zkiSVykFwVwavie5QoU0H/j3iwQ4AJ+f90QFSWSR4NLpBknqkOQifi46QJEndNwSzgf+M7lChvXIE9uv3Qx0ATtA82CoFn9gilUnmKVqSyuvbM+D26AhJktQbi+GNwHXRHSqsgQze3e+HOgCcoBq8N+yoFqmEEjwQ3SBJvdCED0U3SJKk3jkKlo7BicCt0S0qrBNHYf9+PtAB4ARl8LLoBqlMMrgvukGSui3BDbPg+ugOSZLUWwe1Xmg4Dr+vUXuyJvxLPx/oAHACboKnAptEd0hlkuAP0Q2S1G0ZvDe6QZIk9UcdfpXBC4Al0S0qngxOmg879et5DgAnYCVcEN0glU0Gv4lukKQu+1kdvh8dIUmS+mcI5mZwKrA0ukWFMzgAr+vbw/r1oKJKkI3CM6I7pLJpwm3RDZLUTTU4O7pBf/WpBnw0OqKXEmwc3SBJahmC743CcQm+jasHNQkJXtOAc+uwotfPcgD4BBbCCfjPSeq6Qfh5dIMkddG3ZsIN0RH6q41xQCZJ6qMhuLoBRwM/ALaM7lFhbAc8lz6sInEJ8BNownnRDVIZzfDELEnlsQT45+gISZIUqw7zanAE8PvoFhVKXw6ddQC4HnNgQ1oHgEjqsgzGohskqRsSvLcOv4rukCRJ8WbCLWOtIeDC6BYVxokN2KjXD3EAuB6bwZlAFt0hlU0GKbpBkrrkts3hQ9ERkiQpPw6CuxbDocDHo1tUCBtl8OxeP8QB4Pr93+gAqYwSNKMbJKkLmhm8Zk9YFh0iSZLy5ShYWoezErwaTwjWE2jC8b1+hgPAdZgHWyXYNrpDKimX/0oqg/OG4GfREZIkKb+G4fOp9TbgL6NblF8ZHNPrZzgAXIcp8OHoBqnEen7EuST12Og0eFd0hCRJyr/h1n6A+wPn4MoBrd3OC+EpvXyAA8B1aMIp0Q1Sia2MDpCkDjw8Bi/dF5ZHh0iSpGKow4o6nNeEoQQ3RPcof8bgmb28vwPAtRiB/ejDCSxShflNs6SiaiZ4+UFwW3SIJEkqnlmwqA6HZ3AGcF90j/Ijg0N6eX8HgGtRgwuiG6SScwAoqajeNQzfiY6QJEnFlUFzCD41BXaltSz4wegmxUtwYC/v7wBwDQmy1OOpq1R1yX0vJBXTpUPwnugISZJUDgfAo3U4byrsBrwfeDS6SaGePhsGenVzB4BraMAJwGB0h1RyS6IDJGkyEvxkOrw8gxTdIkmSymV/+Esd/oXWIRDnAL8ODVKUjfZsDYN7wgHgGjJ/si/1w2PRAZI0UQkay+BFe/r2siRJ6qE63F+H84Zg9wTPAS4FxqK71D9NB4D9kSADnhbdIVXAI9EBkjRBCzN4/uGwODpEkiRVQwbNYbiqDqcOwB7AWzO4HmhGt6m3kgPA/hhf/tuz9daS/spvpCXlXgYjU+HZdbg/ukWSJFXTDPh1HT40BIcBOwL/B/gxfk9VSllrGXhPuNfdajL49+gGqSIeig6QpCfwswQn7O/XK0mSlBN1+APwaeDTs2FgV9gfOCyDQ2kdZrozvuhVaE3Yplf3dgA4LkE2CvtFd0gV4TH3kvLskunwSvf8kyRJeXVqa2/AheP/+yTA7bDBw60lpHs0YY8Mdk2wSQabANOBjYEN13HLaev5a+tTG7/3Ko+x7s9QS+n8QMi9af06ymrrXt3YAeC4+XDcgMt/pb5owp+jGyRpLVIG75sJ7/C0X0mSVDTjP7z8xfj/SmkU5icYju7olRps1at7OwAcNwDvjm6QKqTTn/pIUrctTvCqOlwWHSJJkqRqSj18u9G14bSW/yZ4enSHVBU1WB7dIEmruXkM6sMO/yRJkhRrg17d2AEgMB+OzVz+K/XNoPtqScqHBHx8Osw6CG6LjpEkSVLlTe3VjV0CjMt/pX5b7huAkuL9EnhtHa6NDpEkSZLGTenVjX0DsGX/6ACpSlwCLCnQCuC86XCgwz9JkiRVReXfALwRnrfS5b9SXyWXAEvqvyZwOfC2OvwqOkaSJEnqp8oPAMfgfdENUtVMgaXRDZKqI4OrxuCts+DG6BZJkiQpQuUHgE04IIuOkCpmwCXAknovAVfU4NyZcEN0jCRJkhSp0gPAm+Ho5S7/lfpuWWsPLknqhcUJLgE+MQz/Ex0jSZIk5UGlB4DL4N99+0/qv0F4LLpBUumMJvjiGFx8MDwcHSNJkiTlSaUHgBnMjG6QqqgGY9ENkkrhlgSXApcMw63RMZIkSVJeVXYAuAh2XgIbRHdIVZRgSnSDpEK6L8HVGVw1AFfNgF9HB0mSJElFUNkB4BJ4f3SDVFUrYMPoBkm598cE12dwe2qd3jt/GO6MjpIkSZKKqLIDQODY6ACpqlbCRtENknJvWgb/UYd50SGSJElS0dWiAyJcD9OAzaM7pKraCKZGN0jKvenAj0dgVnSIJEmSVHSVHABOhbOiG6QqW+n+m5ImZnoGV8yH4egQSZIkqcgqOQBMcHp0g1RlK1tv4UrSREyvwRULoB4dIkmSJBVV5QaACbIa7BLdIVXZVJcAS5qczZtwpUNASZIkqT2VGwA24JhUwV+3lCdjvgEoafI2b8IVozAUHSJJkiQVTeUGYRn8W3SDVHVN3wCU1J4tEvyoAU+PDpEkSZKKpHIDQGBGdIBUdanDQ0AaMDNB1q0eSYWyNfATh4CSJEnSxFVqANiAnfH0USncIGzW4S1mj8JvGnD+AjigK1GSimQb4CcjsF90iCRJklQElRoAAh+IDpAEwBYdXv8wsBNwZhNubMCiBpw9F7brQpukYtgmg5/Mh32jQyRJkqS8q9QAMMHzohskQYLpHV6/eI0/9TTgA4Pw+1G4cgResQg26eQZkgph2xpcvaD1NUCSJEnSOlRmADgbBrLO3zqS1AUZbNrh9Q+v4y8NJDg6g/9aAn9qtJYKnzAHBjt5nqRc27bpEFCSJElar8p8U7w7nOyhAVI+NGHjDm+x5huAazMNOCXBKZvCPQ24LIOLh2C0w2dLyp/tmnD1KBw1BL+IjpEkaV0y2Pwm2Da6o0xWwF/qsCK6Q+qSpb26cWUGgAneEt0gqSWDjTq8/uE0uUu2B85McGYDbklw6SB8cQb8upMOSbmyXYIrxoeAd0THSJK0Ngm+66Sq654FzOnmDRvweiZ/cGFPVhymHt23Vyske3XfVf8cEuzdi/vnyLpWu3WsMgNA4OnRAZL+alonF69lD8DJeFoG7xyDdzTghgwuXgKXHN7ZPSXlw44J5jTgyDr8KjpGkiQV1tnALtERULxljJN8UUOP91CvblyJPQCvbe031tHAQVJXbdDh9d0Y1tWAwxJcuGFrv8DvNuCUBkzpwr0lxdkRuHoe7BodIkmSJE1Sz94ArMQAcFprei8pJ1KHA8D1HALSrg2B44HZwB9H4MIGHO6+oeqD3wL3RkeU0M4DMGchPCU6RJIkSZqoBH/q1b0rMQBM8JLoBkn/K4OpnVzf7O1y3S0zOB342SjcMgLvasDuPXyequ2PCZ6JQ8Be2GUMrvFNQEmSJBVFBnf36t6VGACSk7X7kv4qb28ArsveGbwTuKMBjQac1YCt+/RsVcQw3FqD5wF/jm4pId8ElCRJUmFk8Lte3bv0A8AF8DRgILpD0t/odJ+9nm2Muh5DwMeA343CZSNwdECDSmom3JTBcXgYTS/sMgZXzW3tDShJkiTlVhN+36t7l34A2IR3RTdIepyOhvIJ7utWSBs2SHBS1hoGSl0zBHObcAzwSHRLCe0+CHNuhB2iQyRJkqR1SfDLXt279ANA4FnRAZIep6OvPVN6uDHqJOyRqvE1VH00C65P8CJgaXRLCe2x0iGgJEmS8uvhYZcAt2f8m/MtozskPU5Hp+tOab0BmLrU0q4NRl1SqB4YhqsyeCGwLLqlhPZcCXMWwPbRIZIkSdIabsl6+H1uqQeA8+EFdDhokJQ/+8JyYvYB/Bs12DO6QeU0BD9O8DJgZXRLCe3ZhJ/MhydFh0iSJEmr+Xkvb17qAWANzohukLR2c2CTDm8RuQ8gAE0HgOqhYbg8wUuAseiWEtq7Bj9twJOjQyRJkiSADG7o5f1LPQDMWqd2SsqhQXhqh7fIwz6ADgDVU8NwGfBqoBndUkJPBa72TUBJkiTlQXIA2J7UWvo7PbpD0tpNhb06vEX4G4DJAaD6oA7/BbyR+H0vy2jvGly5ALaJDpEkSVKl/WUIbu3lA0o7ABxpnf7r/n9STg3APp1cn3LwBmDmAFB9UocLgDdHd5TUfk24qgFbR4dIkiSpsq7q5QEgUOIBYM1vlKS8272Ti7McDACB3WbDQHSEqqEO5wPviO4oqf1xCChJkqQgCX7U62eUdgAIHBwdIGndMtixw1uELwEGpu4CO0dHqDrq8J4M3hvdUVIHAFfNg62iQyRJklQpaQr8uNcPKfMAcMvoAEnr1dGeWwnu6VZIJwY738tQmpQh+NcM/iO6o6QOGHAIKEmSpP6afyD8vtcPGez1AyLcBAetcP8/KdeasHmHt/htV0I6lGA/+vDTGml1M+GcUdgE+D/RLSV04ABceT0cfSj8OTpG7UnwjWE4Kbqjl0bgpKx1UrgkSSq2S/rxkFK+AbgS3hrdIGn9Mti4w+vv7lZLh54eHaDqySANwRnA56JbSmrG1NYQ0NUEkiRJ6qXmYJ9+oFfKAWCCI6IbJD2hDTu5eAj+CCzrUksnHAAqRAbpTng9ffqJYQXNnAo/aMD06BBJkiSV1pX9WP4LJR0A4il+UhF0tAXB+BHpv+tSSyee5knAinIqjN0JLwdmR7eU1EHAj+bCZtEhkiRJKp8EF/TrWaUbAI7CHpTw1yWVUDf+O83DMuANd2193ZFCnApj01pDwO9Ft5TUwQPwo2th0+gQSZIklcrdd8H3+/WwMg7KzooOkDQxs2Fah7fIxUEguAxYwfaF5YvhlAQ/iW4powwO2RB+sKh18IokSZLUsQw+cSqM9et5pRsAJnhudIOkidmr8/06czEAzBwAKgeOgqUZvCCDa6JbSurwJb4JKEmSpO748xL4TD8fWLoBILBzdICkiRmDZ3RyvScBS3+rDo+tgBcA86NbSuow3wSUJElSpxJ84nBY3M9nlmoAOBsGUocni0rqn2aHg7Mm3NWtlg7tFx0grXIwPDwVjgEWRreU1OFL4DsN2Cg6RJIkSYV0/yB8rN8PLdUAcFd4YRYdIWnCMnhKJ9cPwG1dSunU7g4DlCf7w19obYnxP9EtJXUU8KObYOPoEEmSJBVLgnNnwIP9fm6pBoAZvDa6QdLEJdimk+tntJYAL+lSTidqNTggOkJaXR3ub8JzyM+gvGyOWAHfvL7zw4wkSZJUHbdmcGHEg8s2AJwR3SBp4jKY3uH1TeBXXcrpyBgMRTdIa5oFf1wJzwbujG4pqedMhW87BJQkSdIEpARn1GFFxMNLNQBswtbRDZImLsEGXbhHLt5uyhwAKqcOht9phTmkAAAHn0lEQVTRWrL66+CUsnrOVPjWHPcgliRJ0npk8IVhuCrq+aUZAF4H22Yl+vVIVdCN/2YzuLUbLV1Qjw6Q1qUOvx2D5wF/jG4pqeduCpff3oUfakiSJKmU7lkGb40MKM3AbBq8IbpB0qRlCaZ2dAO4vVsxHdrHAwGUZwfBbQmOBO6NbimpYx/0TUBJkiQ9XjPBaYfCnyMjSjMATPD86AZJkzcfDu/k+gS3tP4QbmCZB4Eo54bh1iYcQ+uUYHVZBsdsBl9f1OEPNiRJklQeGXwocunvKmUaAO4Z3SBp8qZ0OACsw7wm7AK8CbixO1XtqbkMWAUwC25MrYNBHoxuKaMEL1gC33Q5sCRJkoBrE/xrdASUaAAIbBYdIGnyxrrw1twsuLsO59dhRhP2A84D/tB53aR5EIgKYRgWNuE44JHolpI69iG4pAFTokMkSZIU5rc1eHHUqb9rKsUA8PbW8K8Uvxapgnbr5s1mwaI6nDMEOwJHJPgssLibz1gPB4AqjFlwfQ1eCCyNbimpFwFfnQOD0SGSJEnqu4cyOGEm3BcdskophmaL4bXRDZLak8EOPbpvsw7XDsPrgCcBLwO+D6zsxfPG7e1BICqSmfAT4ERgWXRLSZ28GXzNIaAkSVKlLE9w8hDcHB2yulIMAJutb14kFVAG03v9jDo8Voev1uH45bBd1hoKXkf3Dw8ZWOY+gCqYOlyRwUvo7XC8shKctAl8eTYMRLdIkiSp51Zk8Pd5OPRjTaUYAAL7RAdIak/q8x5Zh8Kfh+CzdTi8BrsC5wC3dev+NTikW/eS+mUIvpkcAvZMBn+3G1zim4CSJEmlNpbgFUPwzeiQtSnLAHDz6ABJbcsafXgLcG1mwm/qcF4dnrra4SH3dnLPzAGgCmoYLstaW2o0o1tK6pRN4Au+CShJklRKjwEnD8PXokPWpfADwNT6NfgTdanABlqb5YdadXjInbBDgudk8CXaOCE1wcE9yJP6Ygi+mFpDwG4vjxeQwT/sCl9xCChJklQqDyR4bh2+FR2yPoUfADbg+OgGSZ0Zg+dEN6xyKowNw1VD8IrlsG3rT/E9Jr40ctsG7N67Qqm3huHzwJuiO8pqfDnwRakEn8EkSZLEHQNwyHBrj/lcK8OHz5OjAyR1JoOnRzeszaGwpA6X1uGEMXjSaoeHrJfLgFV0dfh4Bm+P7iix0xbA5xwCSpIkFdpPp8KsGXB7dMhEFP6DZ+aJm1LhNWGH6IYnchA8sOrwEGCfBOcCd6zt700OAFUCQ/A+4D3RHWWV4FUOASVJkgqpCXx8Gjxvf/hLdMxEleFD547RAZI6k8Gm0Q2TUYdfDsO76rDn+A8hPg7ct9rf4gBQpVCHd9A6HEc9kOBVo/BZh4CSJEmF8ZsaHFWHs/aF5dExk1GGD5wbRwdI6lhhD/IZgtE6nHUnPHm1w0N2XwSbRLdJ3TAEb0vwqeiOEnv1KFzoEFCSJCn3Lp0KM2bCf0eHtKOw33QDLIKpS/zALJVBNhe2OxjujQ5p16kwBlwFXNWA6Utar4VLhZdBSvDGBTAtwauie0rqNQ1YluCNmScwS5Ik5c2vErxlGL4THdKJQg/PlsCJ0Q2SumMKvDq6oVvq8FAdHovukLolgzQTXpvgy9EtZZXBGxrwmQRZdIskSZIAeDTBuYthv6IP/6DgA8AEz49ukNQ1z40OkLRuGTQfgVdmcHl0S1llcPoofDS6Q5IkqeKawMU12GsY3nUULI0O6oZCDwAzmBHdIKk7Euwd3SBp/Y6ClQlekuC70S0ldtaIQ0BJkqQIKzL4Ugb71eG0mXBPdFA3FXoAmGCn6AZJXbNldICkJ1aHFRvByRn8MLqlrDJ40yh8JLpDkiSpIh4FPt6E3YfgFUPwi+igXij0ADCDzaIbJHXNlOgASROzLyxPcHIq6AloRZDgzaNwXnSHJElSWSVoZHDGVNipDmfNgrujm3qp6APAQp9iLOlvLYRDoxskTUwdHlsGxwNzo1vKKsH/a8D7ozskSZJK5N6std3K/sMwPASf2h/+Eh3VD4UdACaY6kl5UrmMwcujGyRN3OGwGDgmQSO6pcTOacAHoyMkSZIK7BZaKyuOGILth+Atdfh5dFS/FfYNuoXw7OgGSd2VwTOjGyRNTh0easDzgTnAftE9JfXPDVhSh3+LDpEkScq5RzIYTTACzJ8C1xwAf4qOyoPCDgCbcEh0g6Su2z46QLlQiVfwAVLrDbrCq8P9c+HoQfgxsHN0T0md0YAH6nD+ZC9cCYkK/XcFUGtt5l1qtdZenJX4/2sGS/r8yEeAh/v8zFxIsLQfz6nBo6mi/4zVfRms7MFtH6IiX2MLpknr/zePAEsyuDfBXcBdCe4agDvugFtPhbHYTEmSJEmSJEmSJEmSJEmSJEmSJEmSJEmSJEmSJEmSJEmSJEmSJEmSJEmSJEmSJEmSJEmSJEmSJEmSJEmSJEmSJEmSJEmSJEmSJEmSJEmSJEmSJEmSJEmSJEmSJEmSJEmSJEmSJEmSJEmSJEmSJEmSJEmSJEmSJEmSJEmSJEmSJEmSJEmSJEmSJEmSJEmSJEmSJEmSJEmSJEmSJEmSJEmSJEmSJEmSJEmSJEmSJK3H/weBFBvY0QWXJAAAAABJRU5ErkJggg==;container=0;" parent="103" vertex="1">
                    <mxGeometry x="198.3886274509802" y="20.518515842134775" width="69.90567475638906" height="26.379499908071338" as="geometry"/>
                </mxCell>
                <mxCell id="105" value="" style="shape=image;verticalLabelPosition=bottom;labelBackgroundColor=default;verticalAlign=top;aspect=fixed;imageAspect=0;image=data:image/png,iVBORw0KGgoAAAANSUhEUgAAAgAAAAIACAMAAADDpiTIAAAC9FBMVEUAAAAAmAAAmQAAmAAAmQAAmQAAmQAAmgAAmQAAlwAAmQAAmQAAmgAAmQAAmQAAmQAAmQAAmQAAmAAAmQAAogAAmgAAmgAAmAAAmQAAmAAAmQAAkgAAmQAAmQAAmgAAmQAAmgAAmAAAqgAAmQAAmgAAmQAAmQAAmgAAlgAAmgAAmgAAmAAAmAAAmwAAgAAAmQAAmQAAmAAAmwAAmQAAmQAAmQAAmQAAmQAAmQAAkgAAlQAAmAAAmQAAmwAAmAAAmQAAmQAAmgAAgAAAmQAAmQAAmgAAmQAAjgAAmQAAmQAAmQAAmgAAqgAA/wAAmgAAmgAAmQAAmQAAmwAAlgAAmQAAlwAAmQAAnwAAmQAAmAAAmQAAmQAAmAAAmgAAmQAAmgAAmQAAmAAAmQAAmQAAmQAAmwAAmAAAmQAAmQAAmQAAmAAAmQAAmQAAlwAAmQAAmQAAlwAAlgAAmQAAmgAAmQAAmQAAmQAAmQAAmQAAmgAAmwAAmQAAmQAAmQAAnAAAmgAAlQAAmQAAngAAmQAAmwAAmAAAmgAAmAAAmQAAmQAAmAAAnAAAmQAAmQAAmAAAmQAAmQAAmQAAmAAAlAAAmQAAmQAAmQAAmQAAmQAAmQAAnQAAmAAAmQAAmQAAmQAAmgAAnwAAmQAAmgAAmAAAmQAAlQAAmAAAmQAAmAAAmQAAmQAAmQAAmQAAmAAAlwAAmQAAmQAAmQAAmAAAmQAAmQAAnAAAmQAAmgAAmQAAmQAAmQAAmgAAmwAAmQAAmQAAmgAAmAAAmgAAmQAAmwAAmQAAmQAAmAAAmQAAmAAAmQAAmQAAmQAAmQAAmgAAmAAAmAAAmQAAmQAAmAAAmQAAmgAAmgAAmQAAmAAAlwAAmQAAmgAAmgAAmAAAmQAAmgAAmQAAmQAAmAAAnQAAmQAAmgAAmQAAmQAAmQAAmgAAmQAAmQAAmgAAmQAAmgAAmAAAlwAAmQAAmAAAmAAAmAAAmQAAmgAAmQAAmgAAmQAAmgAAmQAAmQCf0VilAAAA+3RSTlMAJXu95Pn8v4IxClqr1/Ty1aVNBQtWplRGco4OS3aSloNhBoehqpNvIiZ0lZ9CBKz9xz3i0zx16+kHDIbuM6n60VsC7cU/yAlk9f6NAwGIYNz4LicZIKAI3i+JgFd52FH3RTfx2xwq5hSoPu8eG/OeOxHhsMrdrfajWCG0tuoSOh3wFb4XuESQUG45JGu7pKdfha4T++PladLGDcKKhOhTEHrJY9YYi85ey53UlJoWKNmZd5tsH8xlVbznNSmPwCuzMK847EE0jGhwI32yfllIcdBKf0xq4HwsLU5iQ2a1onhtGpHEw9rNl89nXQ+6XEDBUoFPc5yYR99Jt5TnVHoAABQMSURBVHja7d13nFbVncfxByOj0qUoig0UOzCKowygoyMJ+jBjiSAoSrCibEDBEhElaOwSJEhWRWNLNrFFAyaIxgi6xlBcosnGxLhEQyyxrtnqev9ZaXrLKb/fOXdmyOv1ef/7nHLv+X3nzlPPrVQAAAAAAAAAAAAAAAAAAAAAAAAAAAAAAAAAAAAAAAAAAAAAAAAAAAAAAAAAAAAAAAAAAAAAAAAAAAAAAAAAAAAAAAAAAAAAAAAAAAAAAAAAAAAAAAAAAAAAAAAAAAAAAAAAAAAAAAAAAAAAAAAAAAAAAAAAAAAAAAAAAAAAAAAAAAAAAAAAAAAAAAAAAAAAAAAAAAAAAADw96fdVl/aun3N1ttsu11ZI3bo2Klzl67dtu/eo63PzaZnrx26df3sCHfsYG3So/dOO++8U+8yT6HPLrvutvsefds5mvTrvede/ffeZ98SZ91v/wM6HbjtgIGWh/cdVJtsdtDBpczYa/DmAQ+pK/FEytPh0MM2H+GQfeqNTYYOG76xwfBhQ0ua9fAjGjZNeuRRjeYm9YcevanJiC+XNGvdVzaNeNiuI02PH3NsklId1RQ9Y/NxqQFrjtd0rT8hiXGi8BL21c7pXkeeZGiy3dZfNNi6lCtj06ia1KRfGm1qM6ZbqsnJY0uYtXHn1IjjTik2ODW/iIOiL3njM+NVT1N0PT2q/kkyoadklq9NzPbqekahyZlnpRucdWZ8JXr0z0569jnFNudOyjQ56Lz4Wc/PjNhlF8GKxyZgck12vH/4urjrlKmRAUguEMzSvX2+V5cLc02mTc82mD4tthL9LspPenG/fJvzLsk1OTI2AT0uzY34jdyZ1tUkRf0HBk222Yj8eJeJu14WW/8kmeGd5PKuxV5Dcit9QL7BAZGVqJ9ZnHSrfKMrCk0iE1Cof5JcOSvdoLFbYnJETAK+WRiuYba0azU+AFdd7ZvlW6Zu2ZBeMzH/+MRroiox8lrTofbJNrrO0CYqAYb6J8n16RY3WFbx/IgEDCsOd6OsZ+PF8fVPkvGeWW4y9qrenG4zp9hgTkQhKh2+bZw09/zYmMyIBBjrn0xMv6aZa1vFW8JfC4wojnaRrOe8MuqfHNbBPcsF5m7fSbeZX3x8fvCCVCo9tzHPeUSm1a0LjI2CE2Cuf5LsmGozzrqM2wcn4LvFwc4WdRz6j6UEILnNPc3t5l53pNucHXoORgvvtBxpdkzb5TgwAbb6J3elGk1MrOaGJuDE4lhXiTp+r5z6J2e7j7yLudfd6TZXhZ6DSZ8RtiOdmmk3x9YsKAHW+idzU61c63hZYAJMY0n6jflGSQFI7lEf32eqZZyDyb1fsR9ppuF91mYBCbDXP9lBGIDQ5wGhi9c/KcvFIQFIfG1C63+/40gzLb9vb/eDf9LWf759sB9KA5Cc3KicNmbxDi7hJeBmddrja7kA3Poj14Fmmn7Z0VB5DXD8/SfJA+IAJAeGJCBs8RofLK/+7lcdrRqAq490Hmim7cCjHS1V1wDX339Sk86SbyUfCkhA2OL1LbH+Se1JyuNrqQBc87D7QLOtH3E1VVwDnH//SX/JYsQkIGjxFk7yHorGj7eMAPjqnxvz0atcbcXXAOfff7LgMVUAkh83t0oA9iy1/s43blsvAFN+4jvOXIejnM+DjvS+yb2x/s6//2RX0WKkLNImIGTxLp8oOBKNPbaAAHzd/92GfJfFztaiBHjqn/tgTrKWjyv/C4Qs3qWSA9E4eqjq+FoiAIL6F8d0J0DwX8B9/U8uzX3UL1rMx3XXgIDFu7DEl4Cb/LStA/Az+9vsrjEjE6CsvywAyucB+sVrXFJq7TcYN1BzfPlj1J9DXrvvJgKGjlEJ0NZfGABdAvSL94Rt3qWS+Z409+3VpgE4aetEwtQ1IgHq+ksDoHomqF68hU9ZZl0imvXn5v8fD7ZlAB4TfrBp7BycAH39xQFIrpcnQL14d9kmPUM24UXm3rZvVbdCAJ6Wvqth7h6YgID6ywOQ/KLFArDviZYpnxFOuKzW2H15mwXg2cMSIcsAQQkIqb8iAPIEaBfvOduM/yyd0fxV0uqyNgrAds+LF9U2REACguqvCUCyc8sE4Je2+QaJV3xMe+MAD7VNAA53faYjHVOdgLD6qwKQjGqJADTZPi6rOVccgMruxhFONP72pqUD8MJwxZLah1EmILD+ugAkv2qBAKywTfaQaLKNRh9rHGJYGwTgwrMSBcdAqgSE1l8ZAFkCVCfax/YScKL850QVw+/bNhi+sNUDcHDXRMM1lCIBwfXXBiDzbaJSAjDKNpPw/80m08zX3ZWtHYDJyp+2OQcTJyC8/uoAZL5SXEIAVtleAk59VBWAymrjKIM1L31LCEBv7fda3cMJExBRf30AklNLDcCLtmn+RVf/ytC7jcOsadUA/Fr9obZnQFECYuofEIDkuBIDMMA2yZULfbPkvWQc52XDG5gtFoDf6L/U4BtSkICo+ocEIPltaQFout02h/DHhCljpxsHGtB6AfhX27+ziAD4ExBX/6AA+C7P8hP9nW2GV+orascYR7qi1QKwY0Oi5z8tTwJmx9Xfuhjub+j8vpwA3Gt9y3yevv6VgRNMI1X/0EoBWLMgcbsyLAC57VbyjnU+6q2/dTGatg9PgPhEf2Eb/pD4bYoiqYs1w1v/VwMD4LkGxNXf/tcQkQDpid7c3jb6H9uw9Lpz2Oy12sRtyKvhby6FJkBQf8flsGmuc/CtdGOa2s20jX2/+pvopVMW6xhf/e9eFvP2clgCJPV3/T9scu/Xc1/s4v2bdehftmHldeewyVpv/c9Vj5kRkgBR/Z1PiDwJOD1u8QYeYhv4T21Xd+U5bLLC953mp85Vj5mjT4Cs/u5nxE2vO6d4I2rx/mwbtlradrURNMXayVeLwTerxyzQJkBYf89Loqa9QhIgOtFp1peAO1S2AIpiHeqrxfRV6jENdAmQ1t/3mrjpZOc0i8MXbzfbmA03V7YA8mJ5CzN9X/WYYROF1N/7pkijMwHVG6Vj5ts8Zn3bbHfBUY+cNm3dvssOr7vuuu5LH1i7dp/F44877i+LXu/ff/m331zS7ZJLJg0vvit7ivP48scoLpa3LK9crg9VbALk9fcvhicBfw4MwBW2EY9dZz7Qny2e+9aS9aV1/oLa7knFOSuK9R3fvCfM1ofKZrzwXBX1FyxG4wWuuapzZGPmmpxhHXBP42Fe/lzsjwd30ZyzuFh3JR5vn6MeMzoBmvpLFqPxIdds1d8FBKD5Hdtww417Ms+L3j9sQrPqnGXFat458ZiwTjtmfAJU9RctRuPjrvmqK/QBmGEdzfi08o343w7fpjxnSbGad0s8Oo/WjhmfAF39RYtRaT7ANWPhGuAdr4f1h/OTTLu8dtRWu+jonspzFhSreW/frJ2zz2cEY/r5ngkq6y8LQKV5kWvO6hPKAPzUOtQKwyG2K2H/yGHac/avifu6uN4hua81+scU6PED55y259CRAag0/9U1a+0xuhO1Pql42xTfQYFFT2mYUnoAmg70TVrYz0Wwzv76z/fMertsHyFtACrNu7tmrX1NdaJjbN+dMn3hdFkJm4fMVZ+z7/Em750t3i3s6iZZ59j6qxMgWYyNCXA+46m+pzpR2zdBTK8Btg2peM7Pyw6AoP63ita69Pprd5WVLMamBDif89Qe7x4zO9Z5tp9Pfa8470H6eufdqT9n9+M9OvmmfNAQZdk6x9ZfvJucNgCV5utds9bO05zo7y2jdCmm96kk2g0lB6CftxDvzKoUCdc5tv66a4BkMWQJqHlfcaI9bTuoPFKYNeC71jmXNOnP2fV4/XLfjAd9IF3rlqi/6hogWYwvOLfz/DwBkvFsOwM3rMq3fEVTa6P8J1aSc3Y8Xv9i4jGiT8VEvs6R9ddcAySLkTLKNWtNR/mJNto2UZ+bb/lkEumq/I+MJOdsf3zkh74J37L8qkmxzpH1V1wDJIuR5vz0q+Yj+Yn+u2WM2vz3gfZRnbhB4SftknO2Pm65/VeKrf5RAVDWX34NkCxGhvPzr5oZ8hO1bO2VzMy1Wxf5JGDBmDIDMPRj33zbWO9dq1rnyPqLrwGSxcg6zjXrgl7iE93P9pWQ/O3LvR+5ud0SdM6Wx/u86ZvuSfs963TrHFl/aQIki5HjfCa4YKn4RG2vKd7MtZsl2nPVplq8XbbknM2Pf+B9U+JD4/3ZIwMQVH9hAiSLked8b65mjfREp9k2U+uea7hdzKdBL4ads/Fx1+2/NrrWUf/gAATWX/Y8QLIYBc77+zX8TTreSssIt+e3p/9NlyTYTeUF4NZ3Eo8/jdWudUvWX3QNkCxGkfMa0CAdr9/blhHez7d84e0k0LcCz9n0+Mu+yZa7f9SuX2dB/Ts7H/UnQLIYBv+hLYRxFNutUsf1y7esvy/wrrLXlRgAn4v6VZwC1tlb//k9xjsf9yZAVbCU3yoXxzyK5ZbKieG7xk0DVl4/d+Zbtw9WbcN3f+g5K09vQy089Q8KgLf+vm+J+RKgK1iK8qdK5kGetfyo0r1D0Mh1y+q6P7B2n/F/eX35m90muTbm+c/WC0CnoL0Y4uo/s95fCs8zweAAWD/QU41n+1rNav/8qUCMftWyO9/Dxt+Zt0gAjhjoPU79Ogv+/tcb72zlvgaEB8D/mzjBeOssz++VuwTuaJn1qOBzboH66wMg+vtfL+IaEBGAyv7xAbA+l9DtE2p5f/4Sc1VaIAC3COqvDoC4/jEJiAlA5b/iAzDSvLmbbqfgVZanEmvDz1lX/x0k9dcGQFH/iAREBUCRAOsQ8ywdNHuF/9A8xFOWt2VKD4Dw9rq6dVbVPzwBcQHw743gHc9203DF3QL6XWkeYqeIc9bU/7+FN9ZUrYuy/sEJiAyAZYNWzXjftHzt+1JxAI4yD/C87d6hJQdAfGNVzbqo6x+agNgAVFbKvrbvGMF2qjdJD+FOc3/rS8lyA7BIfGNdxboE7f8alIDoAPh3SPKNZ7tp2MfCA3jafABdp9k6lBqA/2mJ2+kF7v8bkoD4AFTekyTANcAoS5/esvktv1ixb2peZgD+2hI31Aze/zkgASUEoLJWkABXf9uWwS+LLq4jzfcKmTja2qPEAKjerpCuS8T+3/oElBEASQKc/W+0dDpNMvlr5r576woRFgDZTbSUAYja/12dgFICUHnCt1Ome7yB3cyd3pb81v1+Y9eGMfYepQVAcPscfQAi9//XJqCcAPj3ynV3/6Ol13v+mU8x97xAWYiQAHhvnRISgMj6qxNQUgC8CfB0t/zYYlIH78TmrStqXW8jlRQAbf1FAYiuvzYBZQWg8n13Ajy9T6kRrLhCf20h9AHw3TgnLADOrViE+7+4E7BkqPegggLguQb4ejt3IlNzbzdcSgDuq6gJ1sX9M6j5wv1/xjtHmdnsO6iwALjvmeDrfI3qm14+7v3GywiA+6Y5oQEY7fz6s3z/J/c1oFcLBaDS15EAb+fVZQagrqUDsH/I+vjX5ZFy6u+5BpzQ7Dmo0ABU1tj/k3v72r4YEOJjfSFUAaiurITwrkvTYY5Jdfu/Oa8BL7RUACrzasLH+6i8APxvywagqr+poSwAdaXV330N2MpzUOEBsN87y9+1+eKy6v+u5/35yAAYN8guJQCvlVd/5zVgUaqZ5d92beA5Vj6qCR7v4LICcI9nIstlqkYWgOqKSiBvAE4vsf6ua8CgVCvLL28Hh55kpZfxGvC8pKt36y2Zzr7PkAab+41Lt7Hej9GwObaU4Sn+1EwD22ciQfV3XAPSt2S409zkzpAJNzI+E5wg6bkqfj+o9R7wzWPZdObadJtPLINnt8TUMYz5SabBPaXW334N2DXVZld/Ey3T84C3RD0tX+7U+cS7WivMHeel2/Q3t6mZ5xvcwfB+94eZBo+a/zmF1t+agPSWCeuMv+Vt0G45nHFaMQGPiDre63oZJHWbf5qupn5DMj/tP95c//e9gzu8URzwjWyLZ8qtvyUBP8k0GWZqMixsus2WFhJwg6zjnPj6PzXWP43xpuVLM006HG2qf8eoZdmv8Iy7dr9siwEl19+cgBmZFmMfLrZ4WLCITvk7qQ/x/XB2E/MNwFUk79E3Xlvsl/8dgmFL+wWiL6g4FPY9H5RvcUTJ9Tcl4OPcq+Qphbs3nDAlbK6Ue7IJED9z7hhb//bXSKbpOSLfr3/+fuVNhf/YDUslQ7vcnPvf07Vwh7wO+U1oYutfTMD0ws8uZ9+RbXHH7Ng5P/N/6Zt7PSf+5nST+3YIfrfI5ll4fqZX9dTib7tm5TaEOfZr8asyI/NPoHZGscWt2acBj0fXv1J5KfPU8oSniy0Grk4ls+tq0e/cvJ7+4qtaD9XLu3WMDMBk6UR9U1uOPHyGqcUHmZ0MO/+hjFXplXqle2IvU4sev2r/eYvhwe85ZfT+4vVntdMsY5NZq9/d8L3O6rurZylHt2pe+uT654K1n9ZpekVeAg6RzzTyxhEb/h4bPuxou0DN+HwDns59hc9ifB77dPOQnz5mabJq0ZANDc7eo6xa1N+4ZEN5p3Zy/Nhm3eSOHSdHvformla3Zs05yj5xl4A5qrmurlsz48IPHA2atzv09bc+3OulZSUuSrvFlz3zzGWL2zmaND3bfd6v24lHlJgy4P2/nRn73L5VRF0CpvaJPwAAAAAAAAAAAAAAAAAAAAAAAAAAAAAAAAAAAAAAAAAAAAAAAAAAAAAAAAAAAAAAAAAAAAAAAAAAAAAAAAAAAAAAAAAAAAAAAAAAAAAAAAAAAAAAAAAAAAAAAAAAAAAAAAAAAAAAAAAAAAAAAAAAAAAAAAAAAAAAAAAAAAAAAAAAAAAAAAAAAAAAAAAAAAAAAAAAAAAAAAAAALYc/w9B2vy5e/yGwQAAAABJRU5ErkJggg==;container=0;" parent="103" vertex="1">
                    <mxGeometry width="67.41427754284896" height="67.41427754284896" as="geometry"/>
                </mxCell>
                <mxCell id="106" style="edgeStyle=none;html=1;exitX=1;exitY=0.5;exitDx=0;exitDy=0;entryX=0;entryY=0.5;entryDx=0;entryDy=0;fontSize=16;fontColor=#000000;strokeColor=#000000;" parent="103" source="105" target="104" edge="1">
                    <mxGeometry relative="1" as="geometry"/>
                </mxCell>
                <mxCell id="107" value="&lt;span style=&quot;&quot;&gt;&lt;span style=&quot;color: rgb(0, 0, 0); font-size: 13px;&quot;&gt;Upstream&lt;/span&gt;&lt;br style=&quot;color: rgb(0, 0, 0); font-size: 13px;&quot;&gt;&lt;span style=&quot;color: rgb(0, 0, 0); font-size: 13px;&quot;&gt;puma-socket&lt;/span&gt;&lt;/span&gt;" style="edgeLabel;html=1;align=center;verticalAlign=middle;resizable=0;points=[];fontSize=20;fontColor=#FFFFFF;labelBackgroundColor=none;" parent="106" vertex="1" connectable="0">
                    <mxGeometry x="0.0116" y="-1" relative="1" as="geometry">
                        <mxPoint as="offset"/>
                    </mxGeometry>
                </mxCell>
                <mxCell id="116" style="edgeStyle=orthogonalEdgeStyle;rounded=0;html=1;entryX=0.5;entryY=1;entryDx=0;entryDy=0;entryPerimeter=0;strokeColor=#000000;fontSize=20;fontColor=#000000;" parent="50" source="17" target="14" edge="1">
                    <mxGeometry relative="1" as="geometry"/>
                </mxCell>
                <mxCell id="17" value="&lt;font style=&quot;font-size: 20px;&quot;&gt;ACM&lt;/font&gt;" style="sketch=0;points=[[0,0,0],[0.25,0,0],[0.5,0,0],[0.75,0,0],[1,0,0],[0,1,0],[0.25,1,0],[0.5,1,0],[0.75,1,0],[1,1,0],[0,0.25,0],[0,0.5,0],[0,0.75,0],[1,0.25,0],[1,0.5,0],[1,0.75,0]];outlineConnect=0;fontColor=#232F3E;gradientColor=#F54749;gradientDirection=north;fillColor=#C7131F;strokeColor=#ffffff;dashed=0;verticalLabelPosition=bottom;verticalAlign=top;align=center;html=1;fontSize=12;fontStyle=0;aspect=fixed;shape=mxgraph.aws4.resourceIcon;resIcon=mxgraph.aws4.certificate_manager_3;strokeWidth=2;" parent="50" vertex="1">
                    <mxGeometry x="114" y="653" width="78" height="78" as="geometry"/>
                </mxCell>
                <mxCell id="117" style="edgeStyle=orthogonalEdgeStyle;rounded=0;html=1;strokeColor=#000000;fontSize=20;fontColor=#000000;" parent="50" source="14" target="94" edge="1">
                    <mxGeometry relative="1" as="geometry"/>
                </mxCell>
                <mxCell id="14" value="ALB" style="outlineConnect=0;dashed=0;verticalLabelPosition=bottom;verticalAlign=top;align=center;html=1;shape=mxgraph.aws3.application_load_balancer;fillColor=#F58534;gradientColor=none;strokeColor=#000000;strokeWidth=2;fontSize=20;fontColor=#000000;" parent="50" vertex="1">
                    <mxGeometry x="118.5" y="439" width="69" height="72" as="geometry"/>
                </mxCell>
                <mxCell id="112" style="edgeStyle=orthogonalEdgeStyle;html=1;exitX=1;exitY=0.5;exitDx=0;exitDy=0;exitPerimeter=0;strokeColor=#000000;fontSize=20;fontColor=#000000;rounded=0;" parent="50" source="14" target="19" edge="1">
                    <mxGeometry relative="1" as="geometry"/>
                </mxCell>
                <mxCell id="138" style="edgeStyle=orthogonalEdgeStyle;rounded=0;html=1;strokeColor=#BD7000;fontSize=20;fontColor=#000000;startArrow=classic;startFill=1;endArrow=none;endFill=0;fillColor=#f0a30a;" parent="50" source="24" target="57" edge="1">
                    <mxGeometry relative="1" as="geometry">
                        <Array as="points">
                            <mxPoint x="1037" y="364"/>
                        </Array>
                    </mxGeometry>
                </mxCell>
                <mxCell id="139" style="edgeStyle=orthogonalEdgeStyle;rounded=0;html=1;exitX=1;exitY=0.5;exitDx=0;exitDy=0;entryX=0.5;entryY=1;entryDx=0;entryDy=0;entryPerimeter=0;strokeColor=#BD7000;fontSize=20;fontColor=#000000;startArrow=classic;startFill=1;endArrow=none;endFill=0;fillColor=#f0a30a;" parent="50" source="95" target="57" edge="1">
                    <mxGeometry relative="1" as="geometry">
                        <Array as="points">
                            <mxPoint x="1038" y="652"/>
                            <mxPoint x="1038" y="192"/>
                        </Array>
                    </mxGeometry>
                </mxCell>
                <mxCell id="141" style="edgeStyle=orthogonalEdgeStyle;rounded=0;html=1;entryX=0;entryY=0.5;entryDx=0;entryDy=0;strokeColor=#10739e;fontSize=20;fontColor=#000000;startArrow=classic;startFill=1;endArrow=classic;endFill=1;fillColor=#b1ddf0;" parent="50" source="86" target="21" edge="1">
                    <mxGeometry relative="1" as="geometry">
                        <Array as="points">
                            <mxPoint x="1109" y="398"/>
                        </Array>
                    </mxGeometry>
                </mxCell>
                <mxCell id="142" style="edgeStyle=orthogonalEdgeStyle;rounded=0;html=1;exitX=1;exitY=0.5;exitDx=0;exitDy=0;strokeColor=#10739e;fontSize=20;fontColor=#000000;startArrow=classic;startFill=1;endArrow=classic;endFill=1;fillColor=#b1ddf0;" parent="50" source="98" target="21" edge="1">
                    <mxGeometry relative="1" as="geometry">
                        <Array as="points">
                            <mxPoint x="960" y="686"/>
                            <mxPoint x="960" y="398"/>
                        </Array>
                    </mxGeometry>
                </mxCell>
                <mxCell id="187" value="&lt;font style=&quot;font-size: 20px;&quot;&gt;Private subnet 1a&lt;/font&gt;" style="points=[[0,0],[0.25,0],[0.5,0],[0.75,0],[1,0],[1,0.25],[1,0.5],[1,0.75],[1,1],[0.75,1],[0.5,1],[0.25,1],[0,1],[0,0.75],[0,0.5],[0,0.25]];outlineConnect=0;gradientColor=none;html=1;whiteSpace=wrap;fontSize=12;fontStyle=0;container=1;pointerEvents=0;collapsible=0;recursiveResize=0;shape=mxgraph.aws4.group;grIcon=mxgraph.aws4.group_security_group;grStroke=0;strokeColor=#147EBA;fillColor=#E6F2F8;verticalAlign=top;align=left;spacingLeft=30;fontColor=#147EBA;dashed=0;strokeWidth=2;" vertex="1" parent="50">
                    <mxGeometry x="1109" y="515" width="255" height="189" as="geometry"/>
                </mxCell>
                <mxCell id="189" value="" style="whiteSpace=wrap;html=1;fillColor=none;dashed=1;strokeColor=#0000CC;strokeWidth=2;" vertex="1" parent="187">
                    <mxGeometry x="34.5" y="-174.69000000000005" width="193" height="335" as="geometry"/>
                </mxCell>
                <mxCell id="143" style="edgeStyle=orthogonalEdgeStyle;rounded=0;html=1;entryX=1;entryY=0.5;entryDx=0;entryDy=0;strokeColor=#000000;fontSize=20;fontColor=#000000;startArrow=none;startFill=0;endArrow=classic;endFill=1;" parent="1" source="55" target="56" edge="1">
                    <mxGeometry relative="1" as="geometry"/>
                </mxCell>
                <mxCell id="179" value="Github Actionsを起動" style="edgeLabel;html=1;align=center;verticalAlign=middle;resizable=0;points=[];fontSize=19;fontColor=#000000;labelBackgroundColor=#FFFFFF;" parent="143" vertex="1" connectable="0">
                    <mxGeometry x="-0.102" y="-2" relative="1" as="geometry">
                        <mxPoint x="-4" y="2" as="offset"/>
                    </mxGeometry>
                </mxCell>
                <mxCell id="55" value="&lt;font style=&quot;font-size: 20px;&quot;&gt;Github&lt;/font&gt;" style="dashed=0;outlineConnect=0;html=1;align=center;labelPosition=center;verticalLabelPosition=bottom;verticalAlign=top;shape=mxgraph.weblogos.github;labelBackgroundColor=#FFFFFF;strokeColor=#000000;strokeWidth=1;fontSize=16;fontColor=#000000;fillColor=#FFFFFF;" parent="1" vertex="1">
                    <mxGeometry x="1334" y="106" width="75" height="75" as="geometry"/>
                </mxCell>
                <mxCell id="122" style="edgeStyle=orthogonalEdgeStyle;rounded=0;html=1;entryX=0.5;entryY=0;entryDx=0;entryDy=0;entryPerimeter=0;strokeColor=#000000;fontSize=20;fontColor=#000000;" parent="1" source="56" target="57" edge="1">
                    <mxGeometry relative="1" as="geometry">
                        <Array as="points">
                            <mxPoint x="1233" y="168"/>
                        </Array>
                    </mxGeometry>
                </mxCell>
                <mxCell id="181" value="Dockerイメージ&lt;br&gt;をプッシュ" style="edgeLabel;html=1;align=center;verticalAlign=middle;resizable=0;points=[];fontSize=19;fontColor=#000000;labelBackgroundColor=#FFFFFF;" parent="122" vertex="1" connectable="0">
                    <mxGeometry x="0.2452" y="-1" relative="1" as="geometry">
                        <mxPoint x="1" y="31" as="offset"/>
                    </mxGeometry>
                </mxCell>
                <mxCell id="136" style="edgeStyle=orthogonalEdgeStyle;rounded=0;html=1;entryX=1;entryY=0.5;entryDx=0;entryDy=0;strokeColor=#000000;fontSize=20;fontColor=#000000;fillColor=#e3c800;" parent="1" source="56" target="38" edge="1">
                    <mxGeometry relative="1" as="geometry">
                        <Array as="points">
                            <mxPoint x="975" y="144"/>
                            <mxPoint x="975" y="705"/>
                        </Array>
                    </mxGeometry>
                </mxCell>
                <mxCell id="137" style="edgeStyle=orthogonalEdgeStyle;rounded=0;html=1;entryX=1;entryY=0.5;entryDx=0;entryDy=0;strokeColor=#000000;fontSize=20;fontColor=#000000;fillColor=#e3c800;" parent="1" source="56" target="96" edge="1">
                    <mxGeometry relative="1" as="geometry">
                        <Array as="points">
                            <mxPoint x="975" y="144"/>
                            <mxPoint x="975" y="993"/>
                        </Array>
                    </mxGeometry>
                </mxCell>
                <mxCell id="180" value="ECSのタスク定義と&lt;br&gt;サービスを更新" style="edgeLabel;html=1;align=center;verticalAlign=middle;resizable=0;points=[];fontSize=19;fontColor=#000000;labelBackgroundColor=#FFFFFF;" parent="137" vertex="1" connectable="0">
                    <mxGeometry x="-0.4382" y="4" relative="1" as="geometry">
                        <mxPoint y="24" as="offset"/>
                    </mxGeometry>
                </mxCell>
                <mxCell id="186" style="edgeStyle=orthogonalEdgeStyle;rounded=0;html=1;exitX=0.5;exitY=0;exitDx=0;exitDy=0;entryX=0.5;entryY=0;entryDx=0;entryDy=0;strokeColor=#000000;" parent="1" source="56" target="6" edge="1">
                    <mxGeometry relative="1" as="geometry">
                        <Array as="points">
                            <mxPoint x="1050" y="22"/>
                            <mxPoint x="343" y="22"/>
                        </Array>
                    </mxGeometry>
                </mxCell>
                <mxCell id="56" value="Github Actions" style="shape=image;verticalLabelPosition=bottom;labelBackgroundColor=none;verticalAlign=top;aspect=fixed;imageAspect=0;image=data:image/png,iVBORw0KGgoAAAANSUhEUgAAARgAAAEYCAYAAACHjumMAAAydklEQVR4nOydDYgdV3bnT82IpRIEWwKz8wxGLtUYRmaGdos4WGJadDWuME9kBrUYZ2WPO0hiJm2JJFgGx6omztZ9xLNd9jpIZj1Y7jhYYtuxRBzUghn0ZrdCV6c1SCYe1O51kMKa55IwzAsYpnZXJJVFUMvtvs9qtfrj3Vv31sd75wdNHM2rW7f7X+/Uueeee84W6AFMPzUAYDf7+QYA1Og/s5+1SADgKvvvGwDwzwDQjFztao7TRpCeRyt6AjwYjrcTAB7TLXtQt2z634+wH13ibT4HgE8BIEpa4adJK/wEAD6Og0Yk8R4I0heU3sBQo2I45AQA2Bt4JHmwAACnIlc7W+AcEKRSlM7A6NbwVt2yn9Qt26Y/APAtACjTUi6my6qkFQZJK/xZ0go/Slpzd4qeFIKUkVIZGNNPDwPAJIuhVAXq2bwQuVpY9EQQpGwUamB0a3iLbtlDhkMOAcDTkmMpeXM1Dsg5AJiLg8ZC0ZNBkDJQmIFhOz/vA0C9qDko5EzkakeKngSCFM1Xirip4Xi7AeCzHjUulMOmn84ajldkUBpBCic3D4Yth75vOKTeA8uhbvkCAN5pT9k/SVpznxc9GQTJm9wMjOmn7zPD0o+0AWBf5GoYm0H6CuVLpNr47PdNP/2sj40LsF2xa2zZ9O2iJ4MgeaHUgzH99CQAHFd5jw1YeRxgNTsL3Aqn83omcrWZgu6PILmhxMAYjmcaDnlLcRA3BoBP6E8ckPaKM0VRt2n9huMZzNDQn68bDnmEGZ9B1VnDSSt8M2mFfxIHjUTlfRCkSKQbGJYs967scVewAACNPDwA00+fZx6YKmMTxQHZEweNtqLxEaRQpBoYw/G+YzikKXPMFVDDMhG5mqrx18X000MAQBQZmtORqx1TMC6CFI4UA7NiC/qUxNgGXTo0k1b406QV/m0cNGJJ4wpjON6w4ZBRVhbicYlnpGbigDQwAxjpNaQYGLaUOCVjLAZdOhwo8xfO9NM6y0Q2ZI0ZB2RXmX9nBOHlq1kupp7LQyeiPwaAVwDg32WcC/VYgjggL7anRo4lrblSxyXioPEpALxBjeGWbeZ2GZ4bOz3+i7L/7gjSLZk8GMPxDhrO0gG/rNC39kjkaoUvg0Qx/XQSAFwZY6Eng/QKwh4MC+ieBoCtGe7/OQD85/aU/cdf/M2RyhoXWPZo/g4A5nTLTthWt7BHxzyZv01ac7flzhJB8kXIg5G0FR2zLdobGccpHZJ20+jf51HcwkaqDPdRAXZCOKtxoV+aHb1oXGDZm/k5ABxgcSVRDMMhByVOC0FyR8DALGXoZmGmPWXbVY63dEPkajNJK6yzDGNRXjYcz5Y4LQTJFa4lUsazRX17Bsf002vs+IEoI1iSE6kiXXswtfHZ72cxLkkrHOtH40JpT9nfo55bhiEuGY73mMQpIUgudO3BsJILIqny1HPZg7VQMgfHZyJXOyB5SgiilE09GN0a3mL66QVR48I8l743LrAclzmTtELRXJnvmn76nOQpIYhSujAwNl0ajQqO/0x7auRvBa/tSdpTI68CwBmBS7cAwGnW3RJBKsGmSyTTT6lLf1hgbOkuPTv/89yKei0xywKeiwNypkrtXTMsOd3I1V5VMCUEkc6GHgyr/i9S6rLdnrKlpM0bjvckXaKZfvorALjEvKnOF9NgLWU9wyH/y/TT2dr47CEZ91VN0gp/JJgnc5QVykKQ0rOuB8P6Fn0mcFqYehU7ZOS5mH5KqPEQuHSBncYutUeTIeiLfZeQSrCmB6Nbw1sESxF8HgdkjwzjUhufPSloXCiDhkPmTT89UeaYReRqZwBgWuDSw1g8HKkC6xgYe0iwnu6bMtL/TT89qVt21mLhDwGAbzjkepl3X+KA/JnIdYZDfiR/NggilzUNDOsVzctCe8p+O+uEDMf7joJOBG+afnrJcLxhyeNmhi3jRgXiMXWMxSBlZ80YjOmn/8rZeZF+OR6UFHe5kGFbvBsacUD8slXzF4zHYCwGKTX3eTDsQedt6xpKPLyo+nCfZzhkUvE9uGHxGN6g9CgLxiNIKbnHwOjW8FYA4P7yxcFS4anMmH76tMwatxtw3PTT66afero1/FAO9+uKpBW+w3kJ/VtlPd2OIMpYZWDsJwVqy0Zx0LgoaT55BmN3AgCpjYfzpp8qbbLWLUkr/InAZU+zGj0IUjpWGxje5UkSB0Rmtu5uiWN1C/1yflYbn32r6C8qa81yVODSJxVMB0Eyc0+QV6BuidTjAKafprLGysDTkaudL3ICAscIzkWu9ozCKSGIEF96MCwh7Vs8Fyet8KdKZtUdYdIKxzJWjFuLadNP3zcc75BuDfMGu6WQtMIPOC8ZUjQVBMnECgNDTvB2KkxaYaEnpdtTI+9FrvYoAIywIwoy2LIc1yBnauPhBUljcpG0wp9xXvKQ6acqt/YRRIiVMRje+MtCGdq5wvIWbyh44nsz6nTZaDierHa43SJSP6d0SYQIsmRg2PKIN8A5oWZKYkSudjEOyINJKzyVsZr/agYNh/yD6acndGv4AYnjrgsz3Lw1Yw4XtaRDkPXoeDC89V4XIlfL2vdHOnHQaLenRl4AgEclx2aWzjXlvKXd4Py8oVt2aQ92Iv3JkoHRLZu34j3vw58rkatF7Sl7LwAQALgqcWj6Bb7OzjUpPc1MfwcA+ITzsm8qmg6CCNExMDxvvrgK3QGS1twXkas1IlfbQ70PiUPrywcNyWXTT4nheCqXJR9xfv4RRfNAECE6SySeB5P3rVo4katNxAEZAQDZ2+qe4ZBZw/EOsho6UokDwhXsNRzClWaAIKrpCwMDy/GZMHK17wHAEclB4N2GQ87VxsP/JnHMDh9zfr4056oQhPIVdhq3azc/Dkilm7GzU8sqtrSfZrWDZR7W5P1b572djiAb8hWB8z+Vb1gfudr5OCA74oAcFyiRsBGjAHC9Nj4rJQCctELeuaGBQUqFiIH5Z0VzyZU4aERx0HgjDsgeAJDZ97mmW/abMgZKWnMJ59x000+z9MBGEKlQA/MNzmtKXamflzhotCNXG5F8rmnQ9NO3JAV+eeeEXgxSGr7C+0CWvRWIKCvONZ2SNORR3bIflzDOP3F+voiSFwiyJl/hPCJQqjq2KmhP2X8SB6QOAKcB4HaWsXTL/l0JU8K+3khl4TUwMrNiS0nSmrsTB42fR652LA7I72Q5pc3av+TNwwXcE0HWZNPm9/1MHDSoQd2VIe4k49wSrweD5TOR0oAGZhPYuabfZueaPue8PHPAVWK3BgTJHTQwXdA518SWTDxg+QSkr5F+fqYX0a3hrbplf99wyIucl95RNCUEqQRoYDaBpf5fEGwIx7ukWuv+GFNBKssWtvXcrSvfNwWNDMczdMv+QwB4MUMzOBmJe7wGpud3+pDqsIU9kN2+nfsiS9T00+MA4GXtMhkHRMYRBN45/JuEeyKIFLiDvPTNrmYq5cD0U2pYTkpqYSsjSQ7PFiGV5St41mWZ2vjsftNPr7DtaBk0k1Y4J2Ec3sQ5mQc3ESQTWwROR9d6oWRDB+qRGQ4RDeKuRztytX2SxuL1YPBoAVIaqIFpsnhDt3y9F96SrA/1d9jWs8xatknSCkX6S9+Hbg1v5TQwtzExDykTWyJXu2r63beENhzySByUuqnApph+ehAAzikYmnoPR9pTI1K8CN2yeQ3fFzLuiyCy6AR5efI1KrtVbTjeE6af0uXQtOSh20krfDEOyJ7I1WQuUXhr9fTM0hXpDTqJdp9yFIyu5K6G6aeEcynYLU2J8ZZ7MBzC+7fuyVo9SHXpGBieB7NymaWmn54EgOMKhg7jgDyjYNwOXH/rqhdkR3qPpSVS0go/5bnI9NPnlc1IEro1/JDpp57pp9cVGJerSSscjVxthPWRVgVvdTrcQUJKxZIHk7TCT3SLa5eWfmHfUDarjLDC1xcUeFvUQ9gnOc6yJux34J0/bx8lBFFKJ8j7S87rTNNPDymYTyYMx9tp+um7AHBNsnH5AgBIe8r+7TyMC2OS8/NRr9ZLRqrLkgcTB43PDWepTSlPUJEAwFl1U+PD9NPnWB1d2URxQEby/PKyHJ0652Wl9SiR/mXlWSTeavqm4XjDkufDhW4NG4bjPWf66SUAkNKLaAVR0gr/KA7Io3l7BgLFwpM4ICryehAkE9rK/8f0019zHvI7FbnaC7ImY/pp9xl/ywHNREGbDjrmMdZithCYweTxYK5GrrZH4ZQQRIjVBaducH5hi+zBoyof53DkaucVjd0tuHuE9AT3lGtIWmHAef3jpp/yxgo2orBzNEkrPB0HZEfRxoUFqblKRUiqO4Mg0lltYH7GeT31gN43HE9WcesivigRAOxoT40cK3oXxnA86pUdFrj05wqmgyCZWW1gPhJwtw3dsp+VNJ+3JY3TDVdXbD2XYntXt2yRrX9fcbIfggijrf4H009tAJjlHGchcrVdMiZk+ulnORxH8CNXm1B8Dy5YcfFfcbY6iSJX26FwWgiSiftKZkauFgoUjh40/ZQ3MWxNklaocrt1hp14LpVxMRyvxjKPeYzLHQA4onBaCJKZr67z71t1y+YN3g4BwFzSmsu03NiyzfxH3bJ5+w9tBl1CPBO5WiNpzWVuJSKb2ng4L7Bz9Pf091E0JQSRwnpFv4VqyRoOOZhtOktZxW0Fb+bDkavNSB5TCobj2YJb7rhzhJSeNQ1MHDQWAEAk0WzMcLzvZJ1U5GpnklboZxzmRhyQw3FAHoxc7WLWOanAcDzdcIhIjZokDsh7CqaEIFK5L8i7EtNPZwWLYR+Q4TGYfjoKAO8L9HieiQPyTBw0kqxzUAnLeRHZlm5Eriar+wGCKGO9GEyHOd2yxwDgNznHHdUt+/LtX569mWFu1JO6QY2Fbtn/jxmZBzZY1n0BAP89Dsjx9tTIj5PWXKn7QtfGZ3+4ZZv5nwQu/ShyNVlpAQiilA09GFh+y04CgCsw9o3I1R4Vm9baGI5nGg6hb/zHWLYr9VA+BICFOCDNsnssHVi/6esCnhksL/sapTnFjiAbsamB0a3hh2rj4T8INlxbaE/Z3yvjzk1R1MZnv61b9geCf8+wPWXvS1pzlTCkCLKpgYG71dWuCd5jJnK1A4LX9hwZEgnbkas9qGBKCKKMrnpTsypuotuio6afigQyew4W1BXNUi7lNjuCbMRmQd6VfKpb9g/WKPHQDaO6ZSe3f3n2FwLXVh66LHrg9878fYb2tFF7yj5y59c3/4/kqSGIUrpaInVg28YXMtzvTORqfZXezgK6VwRjLsCykHdgS1ikinS1ROoQudpM0gqzlKY8bPrpZ7Xx2SczjFEZauOzP2S7RaLG5dM4ILvQuCBVhcvAwPJhxD/J2EHQ1C37p70clzEcTzf99F3dst8R2YruEAfkxaJr1CBIFnhiMEuwBLbzumVvBYDHBe+7BQBGDYc8AgDXktZcz7yhDcezDYf8Jf39MgxzGwBeak+NYL4LUmm4YjCrYY3ks3yROoyW9bxQtxiOVzMccklSreDS1atBEBG4l0griQMiq1zAuSovmUw/NQyHvC/JuMRxQLDHEdITcC+RVpK05toAcFG3bJudExKls2Q6rFu2vmWb+Y9VyFY1HG/QcMiJLdvMcwDwiIQhL8cBGWYlKxCk8mRaInVgXzTRTN/1OBq5Wp41ernIcBJ6PWLW5A2NC9IzSDEwcNfI0GXCTlljsu6KH7BuBwtFFrc2HM/ULft3dcv+Lqs+x9VaZANuA8CbdFmExgXpNaQZGLgb6Lwu8cu3mjOsFkpuW7fsHNakQK/objkeuRrGXJCeRKqBgbtG5iAAvJwxLrMRnwDAR3Gw1LD/YwBoJ60wyhK30a3hrbplPwIA3zAcMsjODO1W2OHgU5bnUundMwTZCOkGpgPLB+Ftf5KVkLW//acV/Z0WVmbCstR9k3lZ1JA8zP6vqla0axHHAdmFSXRIr6PMwMDdHkuXsmSz9iDUqJQi/Z/pY68o4LV7Ha2osW6z4l4Ra7Z/o4Ap9x1V10ipgYFlT+YxwyEEAL4reBK7V6Diz7Sn7B/nXYCL9V36tuGQx5mntlPC0i9mS9VP4oBcpQ82K3GKCNCrGik3MB1MP30OAE7ndb+SEUauNpL3Tdly8KSkbOtuoA80waB19/S6RrkZGFi20jsNh+wHgKM5tIctAx/FAXkzaYXn80ocNBxvULfsZ3XLfqrAvzF9iD+IA/JB0grnqpA0mSf9pFGuBqaD4XiG4ZCTkhPVygQV69W8W4soSP6TAXXN95Uh5lQG+k2jQgxMB8Px6JrzRyzHRLRmSlm4AwCX6XIoDsh7cdD4NI+bUmOtW/bzumUfV5h/lBVqcK8mrfD19tTIz4qeTN70s0aFGpgOKzya0RILsBERAByJXC3Xdq6mn9IH1qvY36wSTfFk0e8alcLAdDD9lIrwFgA8XfRcOCiktILpp88DwKm87yuJviidihqVzMB0MBzPBIAnDYc4ADAEAA8VPSdGwvINFuKAUG/l53mfj9Kt4a/XxsNXAOCpim/7X40DcjwOGh8WPRHZoEZ3KaWBWQ0rNj7MgmNFuJp0CfRGHJBzRR5IZB7etR7agaMGew9ri9MToEb3UgkD00G3hnXdsncCwDeZdyMzGn+b9be+QQ1KHJA281Y+LkNKf218dr9u2ad7IBi+GvoAN9tT9jFWX6iyoEb3UykDsxKWQs171ulqJ1oOAP/G/i1cfV6pbLAT3VdyOHIRrVHQvSa5BMd6VLoDKGq0Nn1lYOKA1OOg8XN1s5KLbg1vrY2Hf84SE2U9uJ04UsTSx5dOo2+WQs5S2elD/DXdsgfpD4uPbZU0L2BHKSrlyaBGG9NvBsaNg8ar6mYlF9NPTwCAL2k4+tCeiwPSkLXkY+kFxwHgeYmxsUp5MqjRxvSVgQGA05GrHVM0JamwYGGWpm0rocu/ZyJXa0oY6z7YEZC3MrTGXUllAr+o0eYaZeoqUEGcoifQDbo1nLXdbIerSSs8HAfkQVUPLix5ho0bkauNxAHZkbRCnz2AotBlxhXD8Z6QOEXpoEbdadRvHgxlJO+MW14knFdps7MlhXgB7M1+idUuEeVq5Gp7JE5LKqjREptq1G8eDOWkbg2XtgCW6aeHAGBM8PI7AHCmPWUXusSIXC1uT9nfAwDCtv9F2E2/xIbjlU4r1OhLNtWoHw3MoG7Z3yl6EmtB18mssLlo9ufLkasdSVpzheftJK25LyJXa8QBEf0iUg6zThWlATW6jw016kcDA4ZDynZcfgnDIX8qeOkXAHC8PWX/heQpZSYOGhfjgFA3ekZwiNHa+Ox+ydMSBjVak3U16scYTIddZdqpYJXNPhO5Ng7I4TholL5RfoZe5oVUBFwNarQha2rUlx4M42TRE1jFu4LXUSN5XvJclBAHRDQHaTcLShYNarQ+a2rUzwbGptZat4ZlZjkKYfqpJ5CfcAcAfOraVqW2Shw0rsYBGRUIKurUWy0yOI8abcqaGvWzgYHltWP4wyInwEpTiJTW/GnkahNVeXA7sEZzrwtcOqhb9rCCKW0KatQ192nU7waG4hqOlyUXIBO6ZYsEMOM4IC8rmE4utKfsn7ADp1wYDnlKzYw2BjXqntUaoYEBqBkOuWI4Xp6dHb9Et2yRgNqROGj8o4Lp5ELSmvsCAPYJZJMWZWBQo+65R6N+3kVazQ1WhzS3nSV2PuQa5yncZuRq+xROq2tW1Od5mP3T/05a4UdJa66r9XttfHZSt2yX87bH8+y7hBpl06jK5fxk03mQduVlZAyHnOA94h8HpBTN69iOwewaPb0jADjQTQpA0grfFnh4CQDkaGBQoywa4RJpFYZDRLciRRBxvecUzIMLVnfk2hoPLrBSkbPdLDlZSQLec2EGy6bNC9Qog0ZoYO5n0PTTX5l+6unW8AOqbsJOovLmdhzPu8j4auiDazjkbzapOWsYDnmrm3NEcUCOsVIFPORy0ho1WiaLRmhg1oZaf1IbD+cVJnjxBpXbRfd8Nv100HDIdVYlbTN2Gw7ZtP0Mq9LG9XsZDslr1w81yqgRGpiNoW7er2rjs2/J3mUyHMI7XiDz/rzUxme/z+qf8Bhcr5sPxQE5xZnY9S2OzwqDGt1FVCM0MJuj65Z91HDINdNPL0j0aLjiCHFALku6Lzf0rahb9rRAzdmuWnewJQXP75eLgUGN7iKqERoYPkYB4Nemn16vjc/+V8PxDmYIOPJ+SQppULbirSiSpt918e6kFfLs3Bmmn+YR6EWNViCiEW5Ti7FTt2z680ew7EoDO+r+MTvY1k1AjCuAnGd+TgfWikPkrdjhXLcfpA+vbnEd9amzHlYqQY1WIKJRPxmYBgDsFwjcdcuo4JZmN+T+4LJtztmMrTh4AoP/zDn2SdNPy3QiHjW6H6OfDAy0p+yna+PhOYVGRhVd5yEYjrdbt+z9rCeOzrypG3FAprtNXV+xzSkcb0pa4en21AhP1TbV3ohqUKP7eaKfjgo0IlcjkK2oTlEciFxt02pjpp8+DwCn1vmfu2o1wVzu2Yw9dBZEShSYfppmuGfRoEZr3KMvg7ztKfv3WTpz4XVRu2TTmI7pp3UAeGWDjyy1mmABwTUR3OZczQcZ6p9U2YtBje5nsC8NTNKaux25GvVodmSoQ5obm7VZYdmYl7poEarrlj3N3oD3kGGbcyX0rfj7GeqfVKZl7GpQo7XpSwOzkvaU/UwcLBUB/6TouWTg2xyfXXpLmn56slPNL+M2J7AErONVqtxWAH2pUV8Fedciac0lSWvuLACcNxwySUUoek4CPMT5efqQHq+NL710z2bc5gTWiqPQFPkK0Jca9b0H04Fa9cjVXsjYrU8JCs9DHZWwzUld7rclzqmSoEZrgwZmFZGrnY0Dso0VPn5H4BSpCjbbVv9UcFy9wGDhWnSVtl5SUKM1QAOzBnHQiOOgcTFytT+IXG0b82qKNDSbifrLAuaXNVi4FlU2MKjR/YRoYLqAejXU0MQBGYwDQl1WHwB+yra57+QwhQ3rn9AHKA7Ivhx3YWS/FSHnIlIqQI3uJ+77IC8PcdD4GAA+joPGl/9mOJ7Oal8MMlf2sS5dWp5DHfUu5naVrtcNh6jedlfxVgRWg4eHKIc8JtToXng1+hgNTEaW30yNkLesoOmn/7eLnIgvP244Xi0OGhu+/Vg/m1HDWaoJy/swbMZtAHg5DsjbirY5H+P8/JHNck+yghrdB69GIRqY4vics94IdcEvbvYh9gCDgrek0m1O3ip1qo0LAzVagYhGGIMpDt61eNfBNfYAn+Gf0rrksc3JEzzM64gHanQv3BqhgSkIzuI99O3BVYgjcrUjbKs9a1BRerBwNaw1K88J91zOLKFGdxHVCA1MQfA+vN0EEVdD35Js10sUVcHCezAc4nEmkuVSewU1uouoRmhgioO3vKJu+ulbvDdhD7DIW1L5WxHunjDetLL9SuKAfKRuRveAGmXUCA1MQbBWELyxhKPMVeW9F+9b8kzkar+n/q24dML4fYE0+F8omtI9oEbZNUIDUyy8LTlBt+wfityoy7dkm34mcrUjIvfgRbfsgwJp8DObbQVLBjXKoBEamAKJXO08r1vcKTQuAnuAR9Z5K8dxQA50tlDzQLdskdjDCwqmsi6oUTaN0MAUz1XOzxumnxLRm1G3nxXaOgAAp1nBrWPLRyEavHMRhhVU4u3QGEWuVkQVQtSoe+7RCBPtCiZphTO6ZfPWB/Zq47Pz7amRvxO9L6sfW0g1P90aNll1Ny6SVviBmhltel/UqEtWa4QeTMEkrfC8yHW6Zb8ufzb5UBsPPZE0+aQVvqdmRpveFzXqktUaoYEpGLYLcJhVlOdh0PTTC6w3TiXQreEtpp+eAIAxgcvPFNHYDFAjHu7TCA1MCYhc7SwAvCpw6ajhkOtVeYBr4+EfslIXvEvzOK9dk/VAjTZlTY3QwJSEOCC+YOFxw3DI35T5AV4uaeEdEtnyhWW3e70+QrmCGq3PehphkLckMDf8dcMhIgfghuhbEgAezTlHZFNYvZwrGbppxkkrLEVBcdRoXdbVCD2YcnExQ1lF+pbkTlNXDTvDkqVVbyMOGmWoi9wBNbqfdTVCA1MilmsBL5VVFH2AR00/vVYbn31S8tS4MRzvm6xF74uCQ9wBgOORq5ViedQBNbqHTTVCA1MyWCJVli/VoG7ZQZZEr6yYfjpqOOQy6/8tugz/oKy9llCjL9lUIzQwJaQ9Zf+FhAQrz/TTX9fGZ/9c5PAdL4bjGYbj7Tf99BIAXMjYaiNqT9kvS5yedFCj7jTSMtygUEw/tVlDqm5pRK5W2BtDBOpKZ1wbr+R05GrHJI11D6afPp/xjb6SNgA8GrlameIu64IabQwamBKjW8PfqI2HocTi0AkANOOAhOww3YciOxqG49Ev1BOGQ4YAwJE5v6QVPt2eGsntMF9WUKONQQNTclhL0lmJb8nV0Ie4yYor0f9eWPlmMv10N3s4h1kbD1XzoF+sPZGrFZKtmwXUaH3QwFQA9gBfV9DmokycYr3BKwlqtDYY5K0A9G3VnrLtvGrR5gx1/0l7yv6zoieSBdRobdDAVISkNfdPkavtKur4viJusGBhI2nN3S56MllBje4HDUzFaE/Zv0/fJgU348/KHQA4056y91Vlt4gH1OguaGAqBn2L0LdJxmzSovlR5GpHktZcEdXplIMa3QUPO1YUlk26AwD2Gw55EQC+VfScumA6DsiPWbX+ngc1QgNTadgBs7MAcN5wiAsAJwTaS+RByJrV96THshH9rhFuU/cQpp8ektzvWAaELheKnkRZ6DeNMAbTQ0SudjYOyG8krfAw28koou5IAgBXk1b4YhyQHWhc7qXfNEIPpscx/fQgK4Go+jBdvNxwi7zaLzEWWfSyRhiD6XFY47DzhuPtBIAndMsepD8s4/QhANgqMOwXrHTkjTggC8sN2Bu8fZwRRi9rhB5Mn8Oaa+1kP/9+jXMsEQDcZP83ilwtLGiqfUuVNUIPps9hB9d6Mb29Z6iyRhjkRRBEGWhgEARRBhoYBEGUgQYGQRBloIFBEEQZaGAQBFEGGhgEQZSBBgZBEGWggUEQRBloYBAEUQYeFehzqnzOpV+YaPJpNFkvj0ZoYPoEWSd1TT+FspzU7TWGxpY12j5gDz48IK7RRPNejeanlzW6PI2nqbsGT1N3Ry/XGukVJpr5ajQ/TV69PJ2PRv1kYJQ1Fi8ThuPpumUf1C17FAB2F9BpsFMtbSZphRfjoNF3dXg3Y2jM07cP2AcfHihWo5uL4cytxfDi5Wl1GlXZwBgA8GuOS8LI1UYUTqlw+q3eaxWZaJZTo8m6Go0qa2Bg+QuVcnw8jlxtm8LpFAb1WvqxYn2VoF7L3rHyazRZl6vRV2UOljeGQ45yBMCoqD9JWnP/onhauWE4nkGXQ4ZD6BvxP5Y4aG8CwHHDIY8AwPWkNfdF0RPKi6Exz6DLob1j1dBo79iyRrcW5WhUdQ/m2hpbdusSB2QPa4ZVeQzH22045BL9z6LnIsDhyNXOFj0J1QyNebv3jlVXo8l6do2qnmjH6849pmgeuaFbw1tNP/UqbFwo75h++q5uDaveNSmE7QPDWyeaqVdh40J5Z6KZvrt9IJtGVfdgJgHA5bik8jtJpp9eAIDRouchiRsAsKfXGuBPNHtPo8m6mEaV9mDigPDu5e9WNBXl6NbwN9iSsFceXGCZqddNPz1BPbOiJ5OV7QPD35ho9qZGE830BPXMeC+utAdjON6g4ZBrnJftqNpuBtuSv15AvkSenIpc7YWiJyHKRLM/NJqs82lUaQ9GIAYDVXu7MOMyq/DBpX/D0wBwBABGAGBb5Gpa54f92wH6cClunXGUnYuqHMy45KrRZF3TOj95asTORXVNpT0YWP4CXgKAOsclcXvK3pG05kq/7qfLotp4GEp8cBMAaMYBCdlD+2EcNLh7I1PPEQCeMBwyBACOzPklrfDp9tTIRUnjKYcui559Tb5G89N3Nbo8za/R0NiyRnvH5Gt0czF8+q9f6k6jXjAw1CO5wHNNHJDDcdAo/TYp7zb8JigLcJt++jx7e8qAfpkerUrgl8VcpGk0WVej0URTvkbdBH6rvkSCyNVmAIArt8VwSKmXSWwr+oKEBzdOWuErcUB2qNw9i1ztjTgg2+Jg6e/azDgcfdNe063hr0uanhLYVrQUjW4uhq/MT5MdqowLZbKuvTE/TbbNT8vTaPvA5hpV3oOBuzVNeIO9u1hLztJh+qkHAFlPfhd2epx5le9mzAE5F7naMxKnJZWJphyNJuvFaDTRlKPRZH1jjSrvwcDd3r2fcF52wXC80iV6GY63GwCOZxhiIWmFTpGlKahXGQdLa3/qXd4RHOYptvQqHUNj2TW6uRg6RRkXWPZoZuans2vEll7r0hMeDIi/9aM4II/GQSNRNC0uDMczDId8luGtMhO52gHJ08qEQDLkal6IXE1W7CAzQ2OesXcsm0aT9XJpNNHMrtFkfW2NesKDgeXArchyh3owwwqmI8r+DA9uHAekdFnKcUAaGbdOPWp4JU4pK5k0mp8un0bz09k1ooZ3rf+h0qepV3Fz628d/i7vdpxu2Y8AwHtJa07UTZQCK7lwBgD+g8Dll+OADItsOauG/V3PJq3wU92yqUv+m5xD6HSY2788O6doil3DSi4IazQ/TYZFtpxVc2txWaNbi+GnDw+Ia/Q//8f9GvXMEgmW3XHqkXwmcGnhSwvTT+nyzhO4NGbLvNI9uKvJsJ1dilo+E01xjeanyaNlNC6rybCdHU/W79eoZ5ZIsBxcjFjQipfR2vhsYQFFVonuhMClM1UxLpT2lP0Tttbn9RYN00/fVTStrmCV6IQ0qopxobz3krhGE837NeopDwaWlxq24RCeWr0dEnayN9eta7Y0+leBSxciV9ulYErKYcbiMO91cUB2xUEj99QCtjQS0miyXk2NmLHg1mh+muy6PH1Xo57yYGBpzR9eZuc2eKHryCu18dnvK5jW+je17IMi1yWt8EX5s8mH9pTdYNmgXOiW/ayaGW3M9gExjW4uVlej914S02j7wL0a9aCBmbvDslZF2jLoumVP53nojlX/56XRnhr5OwXTyYWkNUeXsvt4r9Mt+yk1M9oYVv2fl8Zfv1RdjW4timn08MC9GvWcgVnBOcHrqCczm6OR4a1RE/dCfye2FOUtX2qyQH7ecGtUZBKdLCbrYhpNNO9q1LMGhgUURdfrBgBcq43P/qnkad0Da4rGta2etMI31c0oX5JWKLKUPalgKuvCmqJxaXRzsXc0urmYTaOeNTCscv1IlgQi3bJfMf10VmGil897QdIK/0rNVPInaYXnWbdBHkYNx8uzqBO3RrcWe0ejW4tiGg2NLWvUswYGlt3wOA7IvoxZiku7UobjHdStYWn9bFivaF53/3QvdUpkRzSeYTt4PHxb0ZTugfWK5tZIZafEvLk8nU2jnjYwsPwQtyWk0A8aDjlXGw+56s5swhOcn0+qXrB8LSJXa/LGywyHPK5uRvfArZHKkgtFMVnn12jv2LJGPW9gYNnIXGW1SrImO9VNP/216acXDMfbn2Ug3bJ5g8hZa3iUFnZeiecNmUsAfvsAatSBnVfi1qgvDAwsG5mLcUBkRPaN5TgAmTH99DNW+4QbXgPDylz2JGzZx7OM3alwOl/yMKeBYWUuexK27OPWqG8MDOOs5KLIdH1+gXo0pp/ybmXyBip7Zl2/Djy/X15b1ajRvXBr1FcGJg4aSRyQPYLboxtBvZgrpp9eN/30Um18dtJwvEOG4z2+QVGrhzjv8aGEeZaWOCBc+Ramn9rqZvMlqNEK5qf5NJpopnZZG3ErY3nnonHM9FNd5KzFJlC3cKdu2XXduvv8G87Syixa9QbgaWIViR5onGimdQB4ji3tYgB4mwXtMjM05g3uHSPPr/Ao5uanyWnBg30fc36e/oGFlyTsfNFuptlqT+Vr7N+5NKrKgcYMcGvUdwamQ+RqRwzHe8NwyF8CQB67EmYG157LIGwfGN6yfcD+4d4xcniNLNTRiWZ6dX6anLm1GP4VqwXCxfaB4a8/+1r4CvPcVm7d29Tg7B0jp997yf7xrcW52xzD8n45hfqMM6NIDe5TAPCAyBjr0LMB3hVwa9RXS6TVxEFjIQ7I7yhuViUDLtd7+4D9LP2Sb5Divpv+76sPpnXLs6+FrwPA06uMSwfqKbnPvhZyZUHHQYP37Bh38iMzLtcA4Khk4wK9vjyC5UAvt0Z9bWBg+cGOI1fblbTC4wIZi3nBFTzcO0a6Kkjd7edWwlLnv9vFR492sjk54Pk9uWMwe8fIf+G9hoNeD/B24NKo7w1Mh/bUyBsAsEPgcFcedO1hsdae3W6vDvK2AmWp890srY29Y+Qo59jKvqTsAJ6javwKeMGy4NIIDcwK2NGCA1mChyrg7HLI+2bn/TxPHKlMBdWVJud10+WwH0EDs4o4aLQjVxuJA7ILAN4ROINRNLyxia4/PzTmSTuLVQCVbKxfddDArEMcNBYiV/sDAHiwYjsEvN5X159nB9943tRlikv0yxKmVKCB2QS6PIlcbR/1aJJW6LMHNVevhiepjCVDfd7lxz/nTZ7iKF+QzE+TNzjHVlaGgaXxK1vGTDRzSfwrA1waoYHpEurRtKdGJlih7QdF6oRkoOtlDPMy3uny4++wz3fNZF17tctypDMriz93Cc8ZI66xL0834gxVDruhTM3hVMKlERoYAZhXMxEH5DfigAzFwdJ27xn20KvI5uQKlr73kv0XrLfNem9s+u+n2Oe4ubkY/mgDI3OHGpf3XrJf5hlToIgU99+ZFbIWaWvTDWUKaCtBIO2g3beZvDJgBZN+QX/ioPHlv9Mvi+EspaE/wZLdjIxBRi73+9bi3O3JuvYCALww0UzfYollHU5nrVny1y+N0N/50YlmeoL10Om8vSP6/0/WtfMCw/KekOZObLu1ONeerGsH2Nb8+5JPZffDEolbIzQwClguctWY2ehtafppyjGksHFixkRJESS2XHpV0nBf4/y8cDxlsq4tDI15u9hZJH2tmNpkXQsnmvloVCG4NUIDUxxf8KSrG443WETTsbzIuwDX5elGcnm6sdkOGpdGQ2PeoEDcqTKIFODCGExxfML5ed7yjZWC08DEkauJ9L3iBTVaAWcBrniyrt1AA1McXF8QwyFD6qZSLKxrA8/vx/vFF4VLo71jvavR0JiYRmhgCiIOCK8rrfIcTaEYztIuHE/tlVwMzPw0atSBHYzl1ggNTHHwPrw100+fVzSXwmDtW7h+L97qdxng1mii2XsasfYtXL9XJ4ETDUxBxEHjQ4GdkFMKm8AVguGQtwSS1HKpvXJ5WkwjtpzoGfaOiWuEBqZYRJK+eiahi9Ur5s0fiQWKU2WhrzUaGhPTqFOcCg1MgcQBeZX3XJPhcNdYKS26ZT8ncFmuTeXnp/k1EqiDU1q2D2TTSJM7HYQX00+vbFDacj0ORK6mKuU9F0w/pS73r9Ypu7keceRq2xROa00mmmIaTdarrdFEU0yjyfpdjdCDKZikFYocwHvXcLxvKphOLujW8AMAcInzwaV8oGhKG3JzUUyjobHqarR9QI5GaGAKJmmFFwUuMwyHvKJgOrlQGw//UMAjoEvKQgzMrUUxjfaOVVejZ18T02h+mqCBKROsbapIXOG7pp9OGk61qsyxnt4vCly6kLTCOQVT2hTWNlVIo4lmOlm1SoBDY+Ia3Vq8VyOMwZQE009nBU/kLsQB2cNOdpcaw/F2Gw65InAp/d0e5KxNLJ2JprhG89NkD2/tnSIYGvN27x0T12h1bWL0YMrDEcHrBgHgoOS5KMFwyAnBS68WbVwYPa/R3jFxjdYqfI4GpiRErkbd8GmRaw2HvG766fO6NVzK0/HUczH99ALrBMlN0gpPyZ8VP5N1cY32jpHXJ5rp89sHyqkR9VwmmuIa3VxcW6OvZp4ZIpPrumX/kcB1vwkA9a2/dfhf4qDxCwXzEsZwvP2GQ4IMxZ1mPn91R0PytLJw/eEBcY0Gfufwv1yeLpdGQ2Pe/r1j2TR669DaGqEHUyJYhuphVnZShFdMP31Xt4ZFe2BLQ7eGHzD91DMcIvTGZ5yJA/KMxGllhmWoZtJoopm+u32geI22Dww/MNFMvb1j2TSan15fIwzylhBqJNhDLEobAPZFrlZI8SOWRHdJZJtzBVcjV9sjcVpSoUZChkaT9WI0Ykl0mTWarG+sEXowJaQ9tVScOst5mxoAXDP99EptfPZQXlvZhuOZtfHZSZb9meXBTVgh9dLCCohn1miimV75wWuzh/Layh4a88wfvCZHo/npzTVCD6akMC/guqReQTEAPBO5mpIGcobj7WSnomUUvk4AYE9R3hcPzAuQqtFkXY1GQ2PeTnYqWppG3Xhf6MGUFLYtK2v3hH4RLtClFzvBLGdQxzNMPyUst0VWVf1mFYwL3O1HLVUjuvRiJ5ilMDTmGRPNlLDcFmkadbu0Qw+mxOjW8NbaePjnrO2ILBc6YYWUIla46WO6KtusBALrW7QTAL6mW/Ygq6E7xFnlbDNm2lP2saQ1p6K3lBK2DwxvffY1dRqxwk1LGnVKIKwH61u0pNH2AXuQ1dCVrtF7L9nHbi12pxEamApg+kt9fK5IfIDXI1qjn3RNcv+g9ZiJXO1ADvdRAuu11PMaTdb5NEIDUxFq47P7dcs+rbJ/c0HQt3Wzap7LWvzgtdn9Dw/0rkY8nksHNDAVggV+r9H/LHoukqhMQLdbWOC35zQS3U7HIG+FiFwtbk/ZDmviLproVRauxgGxe8m4AAv8vvdS72g0P03sLLk66MFUFNZhoBRndAQ4E7ma6MHBysA6DFRWo8l6do3Qg6kokau9AQAvZOnRXBAzcUCU9MouG5P16mo0Py1HIzzsWGHioHEVAN6m6+Qt28zBHHYwRKHr+MtJKzz++as7GklrrupLh665PH1XI+Nr5dfo5mJ4/K1DOxq3FuVohEukHkLCGSYV0PX7SEnquRSOhDNMKljSaK16LllBA9NjGI43qFv2s7plP1XgTgZ9UD+IA/JB0grnktZc6Su55cnQmDe4fcB+9uGB4jWanyYf3FoM524tqtEIDUwPY/opfXhPihYREoA+tITFh5AumGgWoxGLDykHDUwfwNL8v2045HFWvnGnhDdnzBqcf8KOHHyYc8fFnoKl+X9775gajdiRgw83O24gGzQwfYzppzY7APcYO2y33mG4BVa/pNOruRm5GhqTHJhoims0WS9eo/8fAAD//7BDnqfZ2hPbAAAAAElFTkSuQmCC;fontColor=#000000;fontSize=20;" parent="1" vertex="1">
                    <mxGeometry x="991" y="84.5" width="118" height="118" as="geometry"/>
                </mxCell>
                <mxCell id="144" style="edgeStyle=orthogonalEdgeStyle;rounded=0;html=1;exitX=1;exitY=0.5;exitDx=0;exitDy=0;entryX=0;entryY=0.5;entryDx=0;entryDy=0;strokeColor=#000000;fontSize=20;fontColor=#000000;startArrow=classic;startFill=1;endArrow=classic;endFill=1;" parent="1" source="7" target="69" edge="1">
                    <mxGeometry relative="1" as="geometry"/>
                </mxCell>
                <mxCell id="145" value="" style="group;fontColor=default;" parent="1" vertex="1" connectable="0">
                    <mxGeometry x="649" y="67.59" width="288" height="172" as="geometry"/>
                </mxCell>
                <mxCell id="69" value="" style="rounded=0;whiteSpace=wrap;html=1;labelBackgroundColor=#FFFFFF;strokeColor=#0d0c0c;strokeWidth=1;fontSize=28;fontColor=#181616;fillColor=none;" parent="145" vertex="1">
                    <mxGeometry width="288" height="172" as="geometry"/>
                </mxCell>
                <mxCell id="64" value="&lt;font style=&quot;font-size: 28px;&quot; color=&quot;#050505&quot;&gt;Firebase&lt;/font&gt;" style="sketch=0;dashed=0;connectable=1;html=1;fillColor=#5184F3;strokeColor=none;shape=mxgraph.gcp2.firebase;part=1;labelPosition=right;verticalLabelPosition=middle;align=left;verticalAlign=middle;spacingLeft=5;fontColor=#999999;fontSize=12;labelBackgroundColor=#FFFFFF;strokeWidth=1;movable=1;resizable=1;rotatable=1;deletable=1;editable=1;" parent="145" vertex="1">
                    <mxGeometry x="64" y="21" width="29" height="47" as="geometry">
                        <mxPoint x="5" y="7" as="offset"/>
                    </mxGeometry>
                </mxCell>
                <mxCell id="67" value="Storage" style="shape=image;verticalLabelPosition=bottom;labelBackgroundColor=none;verticalAlign=top;aspect=fixed;imageAspect=0;image=data:image/svg+xml,PHN2ZyB4bWxucz0iaHR0cDovL3d3dy53My5vcmcvMjAwMC9zdmciIGhlaWdodD0iMTkyIiB3aWR0aD0iMTkyIiB2aWV3Qm94PSIwIDAgMTkyIDE5MiI+CiAgPGRlZnM+CiAgICA8Y2xpcFBhdGggaWQ9ImEiPgogICAgICA8Y2lyY2xlIGZpbGw9Im5vbmUiIHI9Ijk2IiBjeT0iOTYiIGN4PSI5NiIvPgogICAgPC9jbGlwUGF0aD4KICA8L2RlZnM+CiAgPGcgZmlsbD0ibm9uZSIgY2xpcC1wYXRoPSJ1cmwoI2EpIj4KICAgIDxwYXRoIGQ9Ik0wIDBoMTkydjE5MkgweiIgZmlsbD0iI2ZmYzEwNyIvPgogICAgPHBhdGggZmlsbD0iI2ZmYjMwMCIgZD0iTTExNDIuNDc2IDExMjUuODc1bC0uNTQ2IDEuNzQ5LS44NjMgMS41ODUtMS4xNDIgMS4zODMtMS4zODMgMS4xNDItMS41ODUuODYzLTEuNzQ5LjU0Ni0xLjg3NS4xOWgtNzQuNjY2bC0xLjg3NS0uMTktMS43NS0uNTQ2LTEuNTg0LS44NjMtMS4zODMtMS4xNDItMTAwMC0xMDAwLTEuMTQyLTEuMzgzLS44NjMtMS41ODUtLjU0Ni0xLjc1LS4xOS0xLjg3NC4wNDYtNTYgLjE4OC0xLjg3NS41NDEtMS43NDkuODU2LTEuNTg1IDEuMTMzLTEuMzgzIDEuMzc0LTEuMTQyIDEuNTc4LS44NjMgMS43NDQtLjU0NiAxLjg3My0uMTloMjhMOTYgNjhoMzcuMzMzbDEuODc1LjE5IDEuNzUuNTQ2IDEuNTg0Ljg2NCAxLjM4MyAxLjE0MiAxMDAwIDEwMDAgMS4xNDIgMS4zODIuODYzIDEuNTg1LjU0NiAxLjc1LjE5IDEuODc0VjExMjR6Ii8+CiAgICA8cGF0aCBmaWxsPSIjZmZiMzAwIiBkPSJNNTIuMDc1IDEzMC41OTJsLTEuMTQyLTEuMzgzLS44NjMtMS41ODUtLjU0Ni0xLjc1LS4xOS0xLjg3NC4wNDYtNTYgLjE4OS0xLjg3NS41NC0xLjc0OS44NTYtMS41ODUgMS4xMzMtMS4zODMgMS4zNzQtMS4xNDIgMS41NzgtLjg2MyAxLjc0NC0uNTQ2IDEuODczLS4xOWgyOEw5NiA2OGgzNy4zMzNsMS44NzUuMTkgMS43NS41NDYgMS41ODQuODY0IDEuMzgzIDEuMTQyTDE5MiAxMjIuODE3VjE5MmgtNzguNTE3eiIvPgogICAgPHBhdGggZmlsbC1ydWxlPSJldmVub2RkIiBmaWxsPSIjZmZmIiBkPSJNODYuNjY3IDU4LjY2N2gtMjhjLTUuMTM0IDAtOS4yODcgNC4yLTkuMjg3IDkuMzMzbC0uMDQ3IDU2YzAgNS4xMzMgNC4yIDkuMzMzIDkuMzM0IDkuMzMzaDc0LjY2NmM1LjEzNCAwIDkuMzM0LTQuMiA5LjMzNC05LjMzM1Y3Ny4zMzNjMC01LjEzMy00LjItOS4zMzMtOS4zMzQtOS4zMzNIOTZ6bTYuNzY2IDU0LjY0NkwxMDguNDQxIDk2bDIwLjIyNiAyMy4zMzNINjhsMTUuMTY3LTE4LjY2NnoiLz4KICA8L2c+Cjwvc3ZnPg==;fontColor=#000000;fontSize=20;" parent="145" vertex="1">
                    <mxGeometry x="183" y="75.41" width="50" height="50" as="geometry"/>
                </mxCell>
                <mxCell id="68" value="Authentication" style="shape=image;verticalLabelPosition=bottom;labelBackgroundColor=none;verticalAlign=top;aspect=fixed;imageAspect=0;image=data:image/svg+xml,PHN2ZyB4bWxucz0iaHR0cDovL3d3dy53My5vcmcvMjAwMC9zdmciIGhlaWdodD0iMTkyIiB3aWR0aD0iMTkyIiB2aWV3Qm94PSIwIDAgMTkyIDE5MiI+CiAgPGRlZnM+CiAgICA8Y2xpcFBhdGggaWQ9ImEiPgogICAgICA8Y2lyY2xlIGZpbGw9Im5vbmUiIHI9Ijk2IiBjeT0iOTYiIGN4PSI5NiIvPgogICAgPC9jbGlwUGF0aD4KICA8L2RlZnM+CiAgPGcgZmlsbD0ibm9uZSIgY2xpcC1wYXRoPSJ1cmwoI2EpIj4KICAgIDxwYXRoIGQ9Ik0wIDBoMTkydjE5MkgweiIgZmlsbD0iI2ZmYzEwNyIvPgogICAgPHBhdGggZmlsbD0iI2ZmYjMwMCIgZD0iTTEwMS43NjUgNzEuODc4bDEuMjg5LTIuMzc5IDEuNzA4LTIuMDcgMi4wNy0xLjcwOSAyLjM3OS0xLjI4OSAyLjYzLS44MTQgMi44MjYtLjI4NCAyLjgyMy4yODQgMi42MjUuODE0IDIuMzcgMS4yOSAyLjA2MyAxLjcwNyAxMDAwIDEwMDAgMS43IDIuMDcxIDEuMjgxIDIuMzc5LjgxIDIuNjMuMjgxIDIuODI1LS4yODIgMi44MjYtLjgwOSAyLjYzLTEuMjgxIDIuMzc4LTEuNyAyLjA3MS0xLjg2NiAxLjU0NiAyMS4wNzYgMjEuMDc3IDEuNDkyIDEuNTk0IDEuMTI2IDEuNzIxLjcxIDEuODQ5LjI0NyAxLjk3NXYxMS42NjdoLTI4bC05LjMzMy05LjMzNHY5LjMzNGgtNjUuMzMzbC0xMDAwLTEwMDBWMTE3bC4yNDctMS45NzUuNzEtMS44NDkgMS4xMjYtMS43MjEgMS40OTItMS41OTQgMS44MTEtMS40NjcgMi4wODMtMS4zNCAyLjMwNS0xLjIxMyAyLjQ4Mi0xLjA4NSA1LjI5Ni0xLjc4OCA1LjQyMy0xLjI3OCA1LjE2Ni0uNzY3IDIuMzY3LS4xOTIgMi4xNTgtLjA2NCAyLjE2LjA2NCAxLjU1NC4xMjYtMTMuNjE5LTEzLjYxOS0xLjcwOC0yLjA3LTEuMjg5LTIuMzc5LS44MTQtMi42My0uMjg0LTIuODI2LjI4NC0yLjgyNS44MTQtMi42MyAxLjI5LTIuMzc5IDEuNzA3LTIuMDdMNjkuNSA2NS43MmwyLjM3OS0xLjI4OSAyLjYzLS44MTQgMi44MjUtLjI4NCAyLjgyNC4yODQgMi42MjUuODE0IDIuMzcgMS4yOSAyLjA2MyAxLjcwNyAxNC4xODYgMTQuMTg2LS40NS0xLjQ1NS0uMjg0LTIuODI2LjI4NC0yLjgyNXoiLz4KICAgIDxwYXRoIGZpbGw9IiNmZmIzMDAiIGQ9Ik0xMDEuNzY1IDcxLjg3OGwxLjI4OS0yLjM3OSAxLjcwOC0yLjA3IDIuMDctMS43MDkgMi4zNzktMS4yODkgMi42My0uODE0IDIuODI2LS4yODQgMi44MjMuMjg0IDIuNjI1LjgxNCAyLjM3IDEuMjkgMi4wNjMgMS43MDdMMTkyIDEzNC44OFYxOTJoLTg0bC02My4zMzMtNjMuMzMzVjExN2wuMjQ3LTEuOTc1LjcxLTEuODQ5IDEuMTI2LTEuNzIxIDEuNDkyLTEuNTk0IDEuODExLTEuNDY3IDIuMDgzLTEuMzQgMi4zMDUtMS4yMTMgMi40ODItMS4wODUgNS4yOTYtMS43ODggNS40MjMtMS4yNzggNS4xNjYtLjc2NyAyLjM2Ny0uMTkyIDIuMTU4LS4wNjQgMi4xNi4wNjQgMS41NTQuMTI2LTEzLjYxOS0xMy42MTktMS43MDgtMi4wNy0xLjI4OS0yLjM4LS44MTQtMi42MjktLjI4NC0yLjgyNi4yODQtMi44MjUuODE0LTIuNjMgMS4yOS0yLjM3OSAxLjcwNy0yLjA3TDY5LjUgNjUuNzJsMi4zNzktMS4yODkgMi42My0uODE0IDIuODI1LS4yODQgMi44MjQuMjg0IDIuNjI1LjgxNCAyLjM3IDEuMjkgMi4wNjMgMS43MDcgMTQuMTg2IDE0LjE4Ni0uNDUtMS40NTUtLjI4NC0yLjgyNi4yODQtMi44MjV6Ii8+CiAgICA8cGF0aCBmaWxsLXJ1bGU9ImV2ZW5vZGQiIGZpbGw9IiNmZmYiIGQ9Ik0xMTQuNjY3IDkxLjMzM2M3Ljc0NiAwIDEzLjk1My02LjI1MyAxMy45NTMtMTQgMC03Ljc0Ni02LjIwNy0xNC0xMy45NTMtMTQtNy43NDcgMC0xNCA2LjI1NC0xNCAxNCAwIDcuNzQ3IDYuMjUzIDE0IDE0IDE0em0tMzcuMzM0IDBjNy43NDcgMCAxMy45NTQtNi4yNTMgMTMuOTU0LTE0IDAtNy43NDYtNi4yMDctMTQtMTMuOTU0LTE0LTcuNzQ2IDAtMTQgNi4yNTQtMTQgMTQgMCA3Ljc0NyA2LjI1NCAxNCAxNCAxNHptMCA5LjMzNGMtMTAuODczIDAtMzIuNjY2IDUuNDYtMzIuNjY2IDE2LjMzM3YxMS42NjdIMTEwVjExN2MwLTEwLjg3My0yMS43OTMtMTYuMzMzLTMyLjY2Ny0xNi4zMzN6bTM3LjMzNCAwYy0xLjM1NCAwLTIuODk0LjA5My00LjUyNy4yMzMgNS40MTMgMy45MiA5LjE5MyA5LjE5MyA5LjE5MyAxNi4xdjExLjY2N2gyOFYxMTdjMC0xMC44NzMtMjEuNzkzLTE2LjMzMy0zMi42NjYtMTYuMzMzeiIvPgogIDwvZz4KPC9zdmc+;fontColor=#000000;fontSize=20;" parent="145" vertex="1">
                    <mxGeometry x="64" y="74.41" width="50" height="50" as="geometry"/>
                </mxCell>
                <mxCell id="146" style="edgeStyle=orthogonalEdgeStyle;rounded=0;html=1;entryX=0.5;entryY=0;entryDx=0;entryDy=0;entryPerimeter=0;strokeColor=#000000;fontSize=20;fontColor=#000000;startArrow=none;startFill=0;endArrow=classic;endFill=1;" parent="1" source="7" target="13" edge="1">
                    <mxGeometry relative="1" as="geometry"/>
                </mxCell>
                <mxCell id="150" style="edgeStyle=orthogonalEdgeStyle;rounded=0;html=1;strokeColor=#000000;fontSize=20;fontColor=#000000;startArrow=none;startFill=0;endArrow=classic;endFill=1;" parent="1" source="51" target="55" edge="1">
                    <mxGeometry relative="1" as="geometry"/>
                </mxCell>
                <mxCell id="182" value="プッシュ&amp;amp;&lt;br&gt;マージ(main)" style="edgeLabel;html=1;align=center;verticalAlign=middle;resizable=0;points=[];fontSize=19;fontColor=#000000;labelBackgroundColor=#FFFFFF;" parent="150" vertex="1" connectable="0">
                    <mxGeometry x="0.0413" y="-1" relative="1" as="geometry">
                        <mxPoint as="offset"/>
                    </mxGeometry>
                </mxCell>
                <mxCell id="151" value="" style="group" parent="1" vertex="1" connectable="0">
                    <mxGeometry x="1586" y="109.75" width="109" height="107.25" as="geometry"/>
                </mxCell>
                <mxCell id="51" value="" style="shape=actor;whiteSpace=wrap;html=1;strokeColor=#000000;strokeWidth=1;fontSize=12;fontColor=#000000;fillColor=#FFFFFF;" parent="151" vertex="1">
                    <mxGeometry x="32" width="45" height="67.5" as="geometry"/>
                </mxCell>
                <mxCell id="52" value="&lt;font style=&quot;font-size: 20px;&quot;&gt;Developer&lt;/font&gt;" style="text;html=1;align=center;verticalAlign=middle;resizable=0;points=[];autosize=1;strokeColor=none;fillColor=none;fontSize=12;fontColor=#000000;" parent="151" vertex="1">
                    <mxGeometry y="71.25" width="109" height="36" as="geometry"/>
                </mxCell>
                <mxCell id="158" style="edgeStyle=orthogonalEdgeStyle;rounded=0;html=1;entryX=0;entryY=0.5;entryDx=0;entryDy=0;strokeColor=#000000;fontSize=20;fontColor=#000000;startArrow=none;startFill=0;endArrow=classic;endFill=1;" parent="1" source="162" target="7" edge="1">
                    <mxGeometry relative="1" as="geometry"/>
                </mxCell>
                <mxCell id="159" value="" style="group" parent="1" vertex="1" connectable="0">
                    <mxGeometry x="94" y="100" width="69" height="123.5" as="geometry"/>
                </mxCell>
                <mxCell id="156" value="" style="group" parent="159" vertex="1" connectable="0">
                    <mxGeometry width="65" height="87.5" as="geometry"/>
                </mxCell>
                <mxCell id="153" value="" style="shape=actor;whiteSpace=wrap;html=1;strokeColor=#000000;strokeWidth=1;fontSize=12;fontColor=#000000;fillColor=#FFFFFF;" parent="156" vertex="1">
                    <mxGeometry width="45" height="67.5" as="geometry"/>
                </mxCell>
                <mxCell id="154" value="" style="shape=actor;whiteSpace=wrap;html=1;strokeColor=#000000;strokeWidth=1;fontSize=12;fontColor=#000000;fillColor=#FFFFFF;" parent="156" vertex="1">
                    <mxGeometry x="10" y="10" width="45" height="67.5" as="geometry"/>
                </mxCell>
                <mxCell id="155" value="" style="shape=actor;whiteSpace=wrap;html=1;strokeColor=#000000;strokeWidth=1;fontSize=12;fontColor=#000000;fillColor=#FFFFFF;" parent="156" vertex="1">
                    <mxGeometry x="20" y="20" width="45" height="67.5" as="geometry"/>
                </mxCell>
                <mxCell id="157" value="users" style="text;html=1;align=center;verticalAlign=middle;resizable=0;points=[];autosize=1;strokeColor=none;fillColor=none;fontSize=20;fontColor=#000000;" parent="159" vertex="1">
                    <mxGeometry x="2" y="87.5" width="67" height="36" as="geometry"/>
                </mxCell>
                <mxCell id="163" value="" style="edgeStyle=orthogonalEdgeStyle;rounded=0;html=1;entryX=0;entryY=0.5;entryDx=0;entryDy=0;strokeColor=#000000;fontSize=20;fontColor=#000000;startArrow=none;startFill=0;endArrow=none;endFill=1;" parent="1" source="155" target="162" edge="1">
                    <mxGeometry relative="1" as="geometry">
                        <mxPoint x="159" y="153.73333333333335" as="sourcePoint"/>
                        <mxPoint x="265.9" y="153.58989810261335" as="targetPoint"/>
                    </mxGeometry>
                </mxCell>
                <mxCell id="162" value="HTTPS" style="text;html=1;align=center;verticalAlign=middle;resizable=0;points=[];autosize=1;strokeColor=none;fillColor=none;fontSize=20;fontColor=#000000;labelBackgroundColor=none;strokeWidth=1;" parent="1" vertex="1">
                    <mxGeometry x="166" y="135.59" width="84" height="36" as="geometry"/>
                </mxCell>
                <mxCell id="165" value="HTTPS" style="text;html=1;align=center;verticalAlign=middle;resizable=0;points=[];autosize=1;strokeColor=none;fillColor=#FFFFFF;fontSize=20;fontColor=#000000;labelBackgroundColor=none;strokeWidth=1;" parent="1" vertex="1">
                    <mxGeometry x="305" y="263" width="84" height="36" as="geometry"/>
                </mxCell>
                <mxCell id="170" style="edgeStyle=orthogonalEdgeStyle;rounded=0;html=1;exitX=0;exitY=0.5;exitDx=0;exitDy=0;entryX=0.5;entryY=1;entryDx=0;entryDy=0;strokeColor=#B09500;fontSize=20;fontColor=#000000;startArrow=classicThin;startFill=1;endArrow=classic;endFill=1;fillColor=#e3c800;strokeWidth=1;" parent="1" source="86" target="69" edge="1">
                    <mxGeometry relative="1" as="geometry">
                        <Array as="points">
                            <mxPoint x="530" y="722"/>
                            <mxPoint x="530" y="413"/>
                            <mxPoint x="793" y="413"/>
                        </Array>
                    </mxGeometry>
                </mxCell>
                <mxCell id="172" style="edgeStyle=orthogonalEdgeStyle;rounded=0;html=1;exitX=0;exitY=0.5;exitDx=0;exitDy=0;entryX=0.5;entryY=1;entryDx=0;entryDy=0;strokeColor=#B09500;fontSize=20;fontColor=#000000;startArrow=classic;startFill=1;endArrow=classic;endFill=1;fillColor=#e3c800;strokeWidth=1;" parent="1" source="98" target="69" edge="1">
                    <mxGeometry relative="1" as="geometry">
                        <Array as="points">
                            <mxPoint x="530" y="1010"/>
                            <mxPoint x="530" y="413"/>
                            <mxPoint x="793" y="413"/>
                        </Array>
                    </mxGeometry>
                </mxCell>
                <mxCell id="176" value="・ID Tokenの検証&lt;br&gt;・認証ユーザに連携している&lt;br&gt;　ユーザーデータ取得" style="text;align=left;verticalAlign=middle;resizable=0;points=[];autosize=1;strokeColor=none;fillColor=#FFFFFF;fontSize=20;fontColor=#000000;labelBackgroundColor=#FFFFFF;strokeWidth=1;html=1;" parent="1" vertex="1">
                    <mxGeometry x="661" y="259" width="276" height="84" as="geometry"/>
                </mxCell>
                <mxCell id="174" value="&lt;font style=&quot;font-size: 19px;&quot;&gt;・認証情報(ID Token)&lt;br&gt;&lt;/font&gt;&lt;div style=&quot;font-size: 19px;&quot;&gt;&lt;font style=&quot;font-size: 19px;&quot;&gt;・ユーザーデータ&lt;/font&gt;&lt;/div&gt;" style="text;html=1;align=left;verticalAlign=middle;resizable=0;points=[];autosize=1;strokeColor=none;fillColor=#FFFFFF;fontSize=20;fontColor=#000000;labelBackgroundColor=none;strokeWidth=1;" parent="1" vertex="1">
                    <mxGeometry x="440" y="91" width="200" height="59" as="geometry"/>
                </mxCell>
            </root>
        </mxGraphModel>
    </diagram>
</mxfile>